{"asset":{"version":"2.0","generator":"Voxel Blitz Blender runtime export"},"scene":0,"scenes":[{"nodes":[0,1,2,3,14,15,16,17,18]}],"nodes":[{"name":"body","mesh":0,"extras":{"blenderAsset":"bison"}},{"name":"mag","mesh":1,"extras":{"blenderAsset":"bison"}},{"name":"bolt","mesh":2,"extras":{"blenderAsset":"bison"}},{"name":"trigger","mesh":3,"extras":{"blenderAsset":"bison"}},{"name":"Belt lead","mesh":4,"translation":[-0.01,0.13,-0.105],"extras":{"blenderAsset":"bison","role":"belt lead"}},{"name":"Belt lead links","mesh":5,"translation":[-0.01,0.13,-0.105],"extras":{"blenderAsset":"bison","role":"belt lead"}},{"name":"Feed cover latch","mesh":6,"translation":[0.0,0.0,0.0],"extras":{"blenderAsset":"bison","role":"feed cover"}},{"name":"Feed cover latch tab","mesh":7,"translation":[0.0,0.0,0.0],"extras":{"blenderAsset":"bison","role":"feed cover"}},{"name":"Feed cover pawl","mesh":8,"translation":[0.0,0.0,0.0],"extras":{"blenderAsset":"bison","role":"feed cover"}},{"name":"Feed cover pawl housing","mesh":9,"translation":[0.0,0.0,0.0],"extras":{"blenderAsset":"bison","role":"feed cover"}},{"name":"Feed cover pawl rear","mesh":10,"translation":[0.0,0.0,0.0],"extras":{"blenderAsset":"bison","role":"feed cover"}},{"name":"Feed cover rib 1","mesh":11,"translation":[0.0,0.0,0.0],"extras":{"blenderAsset":"bison","role":"feed cover"}},{"name":"Feed cover rib 2","mesh":12,"translation":[0.0,0.0,0.0],"extras":{"blenderAsset":"bison","role":"feed cover"}},{"name":"Feed tray cover","mesh":13,"translation":[0.0,0.0,0.0],"extras":{"blenderAsset":"bison","role":"feed cover"}},{"name":"extra","extras":{"blenderAsset":"bison"},"children":[4,5,6,7,8,9,10,11,12,13]},{"name":"muzzle","extras":{"role":"gameplay mount marker"},"translation":[0.0,0.055,-0.72]},{"name":"grip","extras":{"role":"gameplay mount marker"},"translation":[0.05,0.0,-0.1]},{"name":"support","extras":{"role":"gameplay mount marker"},"translation":[-0.06,-0.012,-0.47]},{"name":"sight","extras":{"role":"gameplay mount marker"},"translation":[0.0,0.155,0.06]}],"meshes":[{"name":"body","primitives":[{"attributes":{"POSITION":0,"NORMAL":1,"TEXCOORD_0":2},"indices":3,"material":0},{"attributes":{"POSITION":4,"NORMAL":5,"TEXCOORD_0":6},"indices":7,"material":1},{"attributes":{"POSITION":8,"NORMAL":9,"TEXCOORD_0":10},"indices":11,"material":2},{"attributes":{"POSITION":12,"NORMAL":13,"TEXCOORD_0":14},"indices":15,"material":4},{"attributes":{"POSITION":16,"NORMAL":17,"TEXCOORD_0":18},"indices":19,"material":6}]},{"name":"mag","primitives":[{"attributes":{"POSITION":20,"NORMAL":21,"TEXCOORD_0":22},"indices":23,"material":0},{"attributes":{"POSITION":24,"NORMAL":25,"TEXCOORD_0":26},"indices":27,"material":1},{"attributes":{"POSITION":28,"NORMAL":29,"TEXCOORD_0":30},"indices":31,"material":2},{"attributes":{"POSITION":32,"NORMAL":33,"TEXCOORD_0":34},"indices":35,"material":3},{"attributes":{"POSITION":36,"NORMAL":37,"TEXCOORD_0":38},"indices":39,"material":5},{"attributes":{"POSITION":40,"NORMAL":41,"TEXCOORD_0":42},"indices":43,"material":6},{"attributes":{"POSITION":44,"NORMAL":45,"TEXCOORD_0":46},"indices":47,"material":7}]},{"name":"bolt","primitives":[{"attributes":{"POSITION":48,"NORMAL":49,"TEXCOORD_0":50},"indices":51,"material":2},{"attributes":{"POSITION":52,"NORMAL":53,"TEXCOORD_0":54},"indices":55,"material":4}]},{"name":"trigger","primitives":[{"attributes":{"POSITION":56,"NORMAL":57,"TEXCOORD_0":58},"indices":59,"material":1},{"attributes":{"POSITION":60,"NORMAL":61,"TEXCOORD_0":62},"indices":63,"material":2}]},{"name":"Belt lead","primitives":[{"attributes":{"POSITION":64,"NORMAL":65,"TEXCOORD_0":66},"indices":67,"material":5}]},{"name":"Belt lead links","primitives":[{"attributes":{"POSITION":68,"NORMAL":69,"TEXCOORD_0":70},"indices":71,"material":2}]},{"name":"Feed cover latch","primitives":[{"attributes":{"POSITION":72,"NORMAL":73,"TEXCOORD_0":74},"indices":75,"material":1}]},{"name":"Feed cover latch tab","primitives":[{"attributes":{"POSITION":76,"NORMAL":77,"TEXCOORD_0":78},"indices":79,"material":2}]},{"name":"Feed cover pawl","primitives":[{"attributes":{"POSITION":80,"NORMAL":81,"TEXCOORD_0":82},"indices":83,"material":2}]},{"name":"Feed cover pawl housing","primitives":[{"attributes":{"POSITION":84,"NORMAL":85,"TEXCOORD_0":86},"indices":87,"material":2}]},{"name":"Feed cover pawl rear","primitives":[{"attributes":{"POSITION":88,"NORMAL":89,"TEXCOORD_0":90},"indices":91,"material":2}]},{"name":"Feed cover rib 1","primitives":[{"attributes":{"POSITION":92,"NORMAL":93,"TEXCOORD_0":94},"indices":95,"material":2}]},{"name":"Feed cover rib 2","primitives":[{"attributes":{"POSITION":96,"NORMAL":97,"TEXCOORD_0":98},"indices":99,"material":2}]},{"name":"Feed tray cover","primitives":[{"attributes":{"POSITION":100,"NORMAL":101,"TEXCOORD_0":102},"indices":103,"material":2}]}],"materials":[{"name":"BISON | olive drab","pbrMetallicRoughness":{"baseColorFactor":[1,1,1,1],"metallicFactor":0.14,"roughnessFactor":0.61,"baseColorTexture":{"index":6}},"extras":{"partMaterial":"olive drab","textureLibrary":"olive-paint","textureBumpScale":0.0004}},{"name":"BISON | orange paint","pbrMetallicRoughness":{"baseColorFactor":[1,1,1,1],"metallicFactor":0.14,"roughnessFactor":0.5,"baseColorTexture":{"index":7}},"extras":{"partMaterial":"orange paint","textureLibrary":"orange-paint","textureBumpScale":0.0004}},{"name":"BISON | gunmetal","pbrMetallicRoughness":{"baseColorFactor":[1,1,1,1],"metallicFactor":0.35,"roughnessFactor":0.53,"baseColorTexture":{"index":8}},"extras":{"partMaterial":"gunmetal","textureLibrary":"phosphated-steel","textureBumpScale":0.0003}},{"name":"BISON | petrol fabric","pbrMetallicRoughness":{"baseColorFactor":[1,1,1,1],"metallicFactor":0,"roughnessFactor":0.87,"baseColorTexture":{"index":9}},"extras":{"partMaterial":"petrol fabric","textureLibrary":"petrol-fabric","textureBumpScale":0.00065}},{"name":"BISON | rubber","pbrMetallicRoughness":{"baseColorFactor":[1,1,1,1],"metallicFactor":0,"roughnessFactor":0.84,"baseColorTexture":{"index":10}},"extras":{"partMaterial":"rubber","textureLibrary":"pebbled-rubber","textureBumpScale":0.0008}},{"name":"BISON | brass","pbrMetallicRoughness":{"baseColorFactor":[1,1,1,1],"metallicFactor":0.58,"roughnessFactor":0.42,"baseColorTexture":{"index":11}},"extras":{"partMaterial":"brass","textureLibrary":"aged-brass","textureBumpScale":0.0002}},{"name":"BISON | ivory coating","pbrMetallicRoughness":{"baseColorFactor":[1,1,1,1],"metallicFactor":0.08,"roughnessFactor":0.62,"baseColorTexture":{"index":12}},"extras":{"partMaterial":"ivory coating","textureLibrary":"ivory-ceramic","textureBumpScale":0.0003}},{"name":"BISON | tan webbing","pbrMetallicRoughness":{"baseColorFactor":[1,1,1,1],"metallicFactor":0,"roughnessFactor":0.9,"baseColorTexture":{"index":13}},"extras":{"partMaterial":"tan webbing","textureLibrary":"tan-webbing","textureBumpScale":0.00065}}],"images":[{"uri":"textures/ivory-armor.jpg"},{"uri":"textures/orange-painted-metal.jpg"},{"uri":"textures/petrol-ballistic-fabric.jpg"},{"uri":"textures/tan-webbing.jpg"},{"uri":"textures/worn-gunmetal.jpg"},{"uri":"textures/worn-rubber.jpg"},{"uri":"textures/palette/olive-paint.jpg","name":"textures/palette/olive-paint.jpg"},{"uri":"textures/palette/orange-paint.jpg","name":"textures/palette/orange-paint.jpg"},{"uri":"textures/palette/phosphated-steel.jpg","name":"textures/palette/phosphated-steel.jpg"},{"uri":"textures/palette/petrol-fabric.jpg","name":"textures/palette/petrol-fabric.jpg"},{"uri":"textures/palette/pebbled-rubber.jpg","name":"textures/palette/pebbled-rubber.jpg"},{"uri":"textures/palette/aged-brass.jpg","name":"textures/palette/aged-brass.jpg"},{"uri":"textures/palette/ivory-ceramic.jpg","name":"textures/palette/ivory-ceramic.jpg"},{"uri":"textures/palette/tan-webbing.jpg","name":"textures/palette/tan-webbing.jpg"}],"textures":[{"source":0,"sampler":0},{"source":1,"sampler":0},{"source":2,"sampler":0},{"source":3,"sampler":0},{"source":4,"sampler":0},{"source":5,"sampler":0},{"source":6,"sampler":0},{"source":7,"sampler":0},{"source":8,"sampler":0},{"source":9,"sampler":0},{"source":10,"sampler":0},{"source":11,"sampler":0},{"source":12,"sampler":0},{"source":13,"sampler":0}],"samplers":[{"magFilter":9729,"minFilter":9987,"wrapS":10497,"wrapT":10497}],"buffers":[{"uri":"bison.bin","byteLength":1267168}],"bufferViews":[{"buffer":0,"byteOffset":0,"byteLength":29520,"target":34962},{"buffer":0,"byteOffset":29520,"byteLength":29520,"target":34962},{"buffer":0,"byteOffset":59040,"byteLength":19680,"target":34962},{"buffer":0,"byteOffset":78720,"byteLength":15216,"target":34963},{"buffer":0,"byteOffset":93936,"byteLength":16560,"target":34962},{"buffer":0,"byteOffset":110496,"byteLength":16560,"target":34962},{"buffer":0,"byteOffset":127056,"byteLength":11040,"target":34962},{"buffer":0,"byteOffset":138096,"byteLength":8352,"target":34963},{"buffer":0,"byteOffset":146448,"byteLength":223536,"target":34962},{"buffer":0,"byteOffset":369984,"byteLength":223536,"target":34962},{"buffer":0,"byteOffset":593520,"byteLength":149024,"target":34962},{"buffer":0,"byteOffset":742544,"byteLength":123792,"target":34963},{"buffer":0,"byteOffset":866336,"byteLength":22464,"target":34962},{"buffer":0,"byteOffset":888800,"byteLength":22464,"target":34962},{"buffer":0,"byteOffset":911264,"byteLength":14976,"target":34962},{"buffer":0,"byteOffset":926240,"byteLength":11376,"target":34963},{"buffer":0,"byteOffset":937616,"byteLength":9696,"target":34962},{"buffer":0,"byteOffset":947312,"byteLength":9696,"target":34962},{"buffer":0,"byteOffset":957008,"byteLength":6464,"target":34962},{"buffer":0,"byteOffset":963472,"byteLength":7200,"target":34963},{"buffer":0,"byteOffset":970672,"byteLength":2592,"target":34962},{"buffer":0,"byteOffset":973264,"byteLength":2592,"target":34962},{"buffer":0,"byteOffset":975856,"byteLength":1728,"target":34962},{"buffer":0,"byteOffset":977584,"byteLength":1296,"target":34963},{"buffer":0,"byteOffset":978880,"byteLength":2592,"target":34962},{"buffer":0,"byteOffset":981472,"byteLength":2592,"target":34962},{"buffer":0,"byteOffset":984064,"byteLength":1728,"target":34962},{"buffer":0,"byteOffset":985792,"byteLength":1296,"target":34963},{"buffer":0,"byteOffset":987088,"byteLength":16992,"target":34962},{"buffer":0,"byteOffset":1004080,"byteLength":16992,"target":34962},{"buffer":0,"byteOffset":1021072,"byteLength":11328,"target":34962},{"buffer":0,"byteOffset":1032400,"byteLength":8496,"target":34963},{"buffer":0,"byteOffset":1040896,"byteLength":2592,"target":34962},{"buffer":0,"byteOffset":1043488,"byteLength":2592,"target":34962},{"buffer":0,"byteOffset":1046080,"byteLength":1728,"target":34962},{"buffer":0,"byteOffset":1047808,"byteLength":1296,"target":34963},{"buffer":0,"byteOffset":1049104,"byteLength":2880,"target":34962},{"buffer":0,"byteOffset":1051984,"byteLength":2880,"target":34962},{"buffer":0,"byteOffset":1054864,"byteLength":1920,"target":34962},{"buffer":0,"byteOffset":1056784,"byteLength":1680,"target":34963},{"buffer":0,"byteOffset":1058464,"byteLength":1824,"target":34962},{"buffer":0,"byteOffset":1060288,"byteLength":1824,"target":34962},{"buffer":0,"byteOffset":1062112,"byteLength":1216,"target":34962},{"buffer":0,"byteOffset":1063328,"byteLength":1440,"target":34963},{"buffer":0,"byteOffset":1064768,"byteLength":5184,"target":34962},{"buffer":0,"byteOffset":1069952,"byteLength":5184,"target":34962},{"buffer":0,"byteOffset":1075136,"byteLength":3456,"target":34962},{"buffer":0,"byteOffset":1078592,"byteLength":2592,"target":34963},{"buffer":0,"byteOffset":1081184,"byteLength":29568,"target":34962},{"buffer":0,"byteOffset":1110752,"byteLength":29568,"target":34962},{"buffer":0,"byteOffset":1140320,"byteLength":19712,"target":34962},{"buffer":0,"byteOffset":1160032,"byteLength":15792,"target":34963},{"buffer":0,"byteOffset":1175824,"byteLength":4320,"target":34962},{"buffer":0,"byteOffset":1180144,"byteLength":4320,"target":34962},{"buffer":0,"byteOffset":1184464,"byteLength":2880,"target":34962},{"buffer":0,"byteOffset":1187344,"byteLength":2880,"target":34963},{"buffer":0,"byteOffset":1190224,"byteLength":5184,"target":34962},{"buffer":0,"byteOffset":1195408,"byteLength":5184,"target":34962},{"buffer":0,"byteOffset":1200592,"byteLength":3456,"target":34962},{"buffer":0,"byteOffset":1204048,"byteLength":2592,"target":34963},{"buffer":0,"byteOffset":1206640,"byteLength":5184,"target":34962},{"buffer":0,"byteOffset":1211824,"byteLength":5184,"target":34962},{"buffer":0,"byteOffset":1217008,"byteLength":3456,"target":34962},{"buffer":0,"byteOffset":1220464,"byteLength":2688,"target":34963},{"buffer":0,"byteOffset":1223152,"byteLength":2880,"target":34962},{"buffer":0,"byteOffset":1226032,"byteLength":2880,"target":34962},{"buffer":0,"byteOffset":1228912,"byteLength":1920,"target":34962},{"buffer":0,"byteOffset":1230832,"byteLength":1680,"target":34963},{"buffer":0,"byteOffset":1232512,"byteLength":1728,"target":34962},{"buffer":0,"byteOffset":1234240,"byteLength":1728,"target":34962},{"buffer":0,"byteOffset":1235968,"byteLength":1152,"target":34962},{"buffer":0,"byteOffset":1237120,"byteLength":864,"target":34963},{"buffer":0,"byteOffset":1237984,"byteLength":2592,"target":34962},{"buffer":0,"byteOffset":1240576,"byteLength":2592,"target":34962},{"buffer":0,"byteOffset":1243168,"byteLength":1728,"target":34962},{"buffer":0,"byteOffset":1244896,"byteLength":1296,"target":34963},{"buffer":0,"byteOffset":1246192,"byteLength":2592,"target":34962},{"buffer":0,"byteOffset":1248784,"byteLength":2592,"target":34962},{"buffer":0,"byteOffset":1251376,"byteLength":1728,"target":34962},{"buffer":0,"byteOffset":1253104,"byteLength":1296,"target":34963},{"buffer":0,"byteOffset":1254400,"byteLength":288,"target":34962},{"buffer":0,"byteOffset":1254688,"byteLength":288,"target":34962},{"buffer":0,"byteOffset":1254976,"byteLength":192,"target":34962},{"buffer":0,"byteOffset":1255168,"byteLength":144,"target":34963},{"buffer":0,"byteOffset":1255312,"byteLength":288,"target":34962},{"buffer":0,"byteOffset":1255600,"byteLength":288,"target":34962},{"buffer":0,"byteOffset":1255888,"byteLength":192,"target":34962},{"buffer":0,"byteOffset":1256080,"byteLength":144,"target":34963},{"buffer":0,"byteOffset":1256224,"byteLength":288,"target":34962},{"buffer":0,"byteOffset":1256512,"byteLength":288,"target":34962},{"buffer":0,"byteOffset":1256800,"byteLength":192,"target":34962},{"buffer":0,"byteOffset":1256992,"byteLength":144,"target":34963},{"buffer":0,"byteOffset":1257136,"byteLength":288,"target":34962},{"buffer":0,"byteOffset":1257424,"byteLength":288,"target":34962},{"buffer":0,"byteOffset":1257712,"byteLength":192,"target":34962},{"buffer":0,"byteOffset":1257904,"byteLength":144,"target":34963},{"buffer":0,"byteOffset":1258048,"byteLength":288,"target":34962},{"buffer":0,"byteOffset":1258336,"byteLength":288,"target":34962},{"buffer":0,"byteOffset":1258624,"byteLength":192,"target":34962},{"buffer":0,"byteOffset":1258816,"byteLength":144,"target":34963},{"buffer":0,"byteOffset":1258960,"byteLength":2592,"target":34962},{"buffer":0,"byteOffset":1261552,"byteLength":2592,"target":34962},{"buffer":0,"byteOffset":1264144,"byteLength":1728,"target":34962},{"buffer":0,"byteOffset":1265872,"byteLength":1296,"target":34963}],"accessors":[{"bufferView":0,"componentType":5126,"count":2460,"type":"VEC3","min":[-0.063,-0.135312,-0.452],"max":[0.063,0.118,0.345]},{"bufferView":1,"componentType":5126,"count":2460,"type":"VEC3"},{"bufferView":2,"componentType":5126,"count":2460,"type":"VEC2"},{"bufferView":3,"componentType":5125,"count":3804,"type":"SCALAR"},{"bufferView":4,"componentType":5126,"count":1380,"type":"VEC3","min":[-0.07919,-0.02,-0.71],"max":[0.07919,0.147706,0.066]},{"bufferView":5,"componentType":5126,"count":1380,"type":"VEC3"},{"bufferView":6,"componentType":5126,"count":1380,"type":"VEC2"},{"bufferView":7,"componentType":5125,"count":2088,"type":"SCALAR"},{"bufferView":8,"componentType":5126,"count":18628,"type":"VEC3","min":[-0.106,-0.14195,-0.72],"max":[0.106,0.171,0.35]},{"bufferView":9,"componentType":5126,"count":18628,"type":"VEC3"},{"bufferView":10,"componentType":5126,"count":18628,"type":"VEC2"},{"bufferView":11,"componentType":5125,"count":30948,"type":"SCALAR"},{"bufferView":12,"componentType":5126,"count":1872,"type":"VEC3","min":[-0.115424,-0.108142,-0.7195],"max":[0.115424,0.156,0.365]},{"bufferView":13,"componentType":5126,"count":1872,"type":"VEC3"},{"bufferView":14,"componentType":5126,"count":1872,"type":"VEC2"},{"bufferView":15,"componentType":5125,"count":2844,"type":"SCALAR"},{"bufferView":16,"componentType":5126,"count":808,"type":"VEC3","min":[-0.0622,0.027674,-0.219075],"max":[0.0635,0.068,0.103]},{"bufferView":17,"componentType":5126,"count":808,"type":"VEC3"},{"bufferView":18,"componentType":5126,"count":808,"type":"VEC2"},{"bufferView":19,"componentType":5125,"count":1800,"type":"SCALAR"},{"bufferView":20,"componentType":5126,"count":216,"type":"VEC3","min":[-0.085,-0.2,-0.3],"max":[0.065,-0.06,-0.15]},{"bufferView":21,"componentType":5126,"count":216,"type":"VEC3"},{"bufferView":22,"componentType":5126,"count":216,"type":"VEC2"},{"bufferView":23,"componentType":5125,"count":324,"type":"SCALAR"},{"bufferView":24,"componentType":5126,"count":216,"type":"VEC3","min":[-0.025,-0.086,-0.309],"max":[0.005,-0.056,-0.297]},{"bufferView":25,"componentType":5126,"count":216,"type":"VEC3"},{"bufferView":26,"componentType":5126,"count":216,"type":"VEC2"},{"bufferView":27,"componentType":5125,"count":324,"type":"SCALAR"},{"bufferView":28,"componentType":5126,"count":1416,"type":"VEC3","min":[-0.089,-0.122,-0.311],"max":[0.068,0.081384,-0.14]},{"bufferView":29,"componentType":5126,"count":1416,"type":"VEC3"},{"bufferView":30,"componentType":5126,"count":1416,"type":"VEC2"},{"bufferView":31,"componentType":5125,"count":2124,"type":"SCALAR"},{"bufferView":32,"componentType":5126,"count":216,"type":"VEC3","min":[-0.088,-0.188,-0.28],"max":[0.068,-0.08,-0.17]},{"bufferView":33,"componentType":5126,"count":216,"type":"VEC3"},{"bufferView":34,"componentType":5126,"count":216,"type":"VEC2"},{"bufferView":35,"componentType":5125,"count":324,"type":"SCALAR"},{"bufferView":36,"componentType":5126,"count":240,"type":"VEC3","min":[-0.082685,-0.037365,-0.206499],"max":[-0.061088,0.07714,-0.153538]},{"bufferView":37,"componentType":5126,"count":240,"type":"VEC3"},{"bufferView":38,"componentType":5126,"count":240,"type":"VEC2"},{"bufferView":39,"componentType":5125,"count":420,"type":"SCALAR"},{"bufferView":40,"componentType":5126,"count":152,"type":"VEC3","min":[-0.025,-0.165562,-0.305],"max":[0.005,-0.143,-0.299]},{"bufferView":41,"componentType":5126,"count":152,"type":"VEC3"},{"bufferView":42,"componentType":5126,"count":152,"type":"VEC2"},{"bufferView":43,"componentType":5125,"count":360,"type":"SCALAR"},{"bufferView":44,"componentType":5126,"count":432,"type":"VEC3","min":[-0.09,-0.203,-0.273],"max":[0.07,-0.057,-0.179]},{"bufferView":45,"componentType":5126,"count":432,"type":"VEC3"},{"bufferView":46,"componentType":5126,"count":432,"type":"VEC2"},{"bufferView":47,"componentType":5125,"count":648,"type":"SCALAR"},{"bufferView":48,"componentType":5126,"count":2464,"type":"VEC3","min":[-0.144,0.038379,-0.16],"max":[0.02,0.078,0.097]},{"bufferView":49,"componentType":5126,"count":2464,"type":"VEC3"},{"bufferView":50,"componentType":5126,"count":2464,"type":"VEC2"},{"bufferView":51,"componentType":5125,"count":3948,"type":"SCALAR"},{"bufferView":52,"componentType":5126,"count":360,"type":"VEC3","min":[-0.1355,0.046112,-0.0375],"max":[-0.1205,0.069888,-0.0125]},{"bufferView":53,"componentType":5126,"count":360,"type":"VEC3"},{"bufferView":54,"componentType":5126,"count":360,"type":"VEC2"},{"bufferView":55,"componentType":5125,"count":720,"type":"SCALAR"},{"bufferView":56,"componentType":5126,"count":432,"type":"VEC3","min":[-0.005,-0.068,-0.138587],"max":[0.005,-0.038,-0.122]},{"bufferView":57,"componentType":5126,"count":432,"type":"VEC3"},{"bufferView":58,"componentType":5126,"count":432,"type":"VEC2"},{"bufferView":59,"componentType":5125,"count":648,"type":"SCALAR"},{"bufferView":60,"componentType":5126,"count":432,"type":"VEC3","min":[-0.016,-0.105,-0.235],"max":[0.016,-0.028,-0.06]},{"bufferView":61,"componentType":5126,"count":432,"type":"VEC3"},{"bufferView":62,"componentType":5126,"count":432,"type":"VEC2"},{"bufferView":63,"componentType":5125,"count":672,"type":"SCALAR"},{"bufferView":64,"componentType":5126,"count":240,"type":"VEC3","min":[-0.0475,-0.0075,-0.026],"max":[0.0475,0.0075,0.026]},{"bufferView":65,"componentType":5126,"count":240,"type":"VEC3"},{"bufferView":66,"componentType":5126,"count":240,"type":"VEC2"},{"bufferView":67,"componentType":5125,"count":420,"type":"SCALAR"},{"bufferView":68,"componentType":5126,"count":144,"type":"VEC3","min":[-0.056,-0.006,-0.011],"max":[0.07,0.006,0.011]},{"bufferView":69,"componentType":5126,"count":144,"type":"VEC3"},{"bufferView":70,"componentType":5126,"count":144,"type":"VEC2"},{"bufferView":71,"componentType":5125,"count":216,"type":"SCALAR"},{"bufferView":72,"componentType":5126,"count":216,"type":"VEC3","min":[-0.065,0.14,-0.04],"max":[-0.051,0.152,0.0]},{"bufferView":73,"componentType":5126,"count":216,"type":"VEC3"},{"bufferView":74,"componentType":5126,"count":216,"type":"VEC2"},{"bufferView":75,"componentType":5125,"count":324,"type":"SCALAR"},{"bufferView":76,"componentType":5126,"count":216,"type":"VEC3","min":[-0.071,0.143,-0.026],"max":[-0.061,0.151,-0.014]},{"bufferView":77,"componentType":5126,"count":216,"type":"VEC3"},{"bufferView":78,"componentType":5126,"count":216,"type":"VEC2"},{"bufferView":79,"componentType":5125,"count":324,"type":"SCALAR"},{"bufferView":80,"componentType":5126,"count":24,"type":"VEC3","min":[-0.03,0.1315,-0.11],"max":[0.01,0.1375,-0.09]},{"bufferView":81,"componentType":5126,"count":24,"type":"VEC3"},{"bufferView":82,"componentType":5126,"count":24,"type":"VEC2"},{"bufferView":83,"componentType":5125,"count":36,"type":"SCALAR"},{"bufferView":84,"componentType":5126,"count":24,"type":"VEC3","min":[-0.045,0.147,-0.13],"max":[-0.015,0.152,-0.07]},{"bufferView":85,"componentType":5126,"count":24,"type":"VEC3"},{"bufferView":86,"componentType":5126,"count":24,"type":"VEC2"},{"bufferView":87,"componentType":5125,"count":36,"type":"SCALAR"},{"bufferView":88,"componentType":5126,"count":24,"type":"VEC3","min":[-0.03,0.1315,-0.056],"max":[0.01,0.1375,-0.044]},{"bufferView":89,"componentType":5126,"count":24,"type":"VEC3"},{"bufferView":90,"componentType":5126,"count":24,"type":"VEC2"},{"bufferView":91,"componentType":5125,"count":36,"type":"SCALAR"},{"bufferView":92,"componentType":5126,"count":24,"type":"VEC3","min":[-0.045,0.148,-0.044],"max":[0.045,0.152,-0.036]},{"bufferView":93,"componentType":5126,"count":24,"type":"VEC3"},{"bufferView":94,"componentType":5126,"count":24,"type":"VEC2"},{"bufferView":95,"componentType":5125,"count":36,"type":"SCALAR"},{"bufferView":96,"componentType":5126,"count":24,"type":"VEC3","min":[-0.045,0.148,-0.164],"max":[0.045,0.152,-0.156]},{"bufferView":97,"componentType":5126,"count":24,"type":"VEC3"},{"bufferView":98,"componentType":5126,"count":24,"type":"VEC2"},{"bufferView":99,"componentType":5125,"count":36,"type":"SCALAR"},{"bufferView":100,"componentType":5126,"count":216,"type":"VEC3","min":[-0.056,0.137,-0.208],"max":[0.056,0.151,0.008]},{"bufferView":101,"componentType":5126,"count":216,"type":"VEC3"},{"bufferView":102,"componentType":5126,"count":216,"type":"VEC2"},{"bufferView":103,"componentType":5125,"count":324,"type":"SCALAR"}]}
