{"asset":{"version":"2.0","generator":"Voxel Blitz Blender runtime export"},"scene":0,"scenes":[{"nodes":[0,5,7,8,9,10,11,12]}],"nodes":[{"name":"body","mesh":0,"extras":{"blenderAsset":"fang"}},{"name":"mag cases","mesh":1,"extras":{"blenderAsset":"fang"}},{"name":"mag crane","mesh":2,"extras":{"blenderAsset":"fang"}},{"name":"mag cylinder","mesh":3,"extras":{"blenderAsset":"fang"}},{"name":"mag ejector","mesh":4,"extras":{"blenderAsset":"fang"}},{"name":"mag","extras":{"blenderAsset":"fang"},"children":[1,2,3,4]},{"name":"bolt hammer","mesh":5,"extras":{"blenderAsset":"fang"}},{"name":"bolt","mesh":6,"extras":{"blenderAsset":"fang"},"children":[6]},{"name":"trigger","mesh":7,"extras":{"blenderAsset":"fang"}},{"name":"extra","extras":{"blenderAsset":"fang"},"children":[]},{"name":"muzzle","extras":{"role":"gameplay mount marker"},"translation":[0.0,0.04,-0.52]},{"name":"grip","extras":{"role":"gameplay mount marker"},"translation":[0.042,-0.012,-0.055]},{"name":"sight","extras":{"role":"gameplay mount marker"},"translation":[0.0,0.105,-0.02]}],"meshes":[{"name":"body","primitives":[{"attributes":{"POSITION":0,"NORMAL":1,"TEXCOORD_0":2},"indices":3,"material":0},{"attributes":{"POSITION":4,"NORMAL":5,"TEXCOORD_0":6},"indices":7,"material":1},{"attributes":{"POSITION":8,"NORMAL":9,"TEXCOORD_0":10},"indices":11,"material":2},{"attributes":{"POSITION":12,"NORMAL":13,"TEXCOORD_0":14},"indices":15,"material":4},{"attributes":{"POSITION":16,"NORMAL":17,"TEXCOORD_0":18},"indices":19,"material":5},{"attributes":{"POSITION":20,"NORMAL":21,"TEXCOORD_0":22},"indices":23,"material":6}]},{"name":"mag cases","primitives":[{"attributes":{"POSITION":24,"NORMAL":25,"TEXCOORD_0":26},"indices":27,"material":1},{"attributes":{"POSITION":28,"NORMAL":29,"TEXCOORD_0":30},"indices":31,"material":3}]},{"name":"mag crane","primitives":[{"attributes":{"POSITION":32,"NORMAL":33,"TEXCOORD_0":34},"indices":35,"material":0}]},{"name":"mag cylinder","primitives":[{"attributes":{"POSITION":36,"NORMAL":37,"TEXCOORD_0":38},"indices":39,"material":0},{"attributes":{"POSITION":40,"NORMAL":41,"TEXCOORD_0":42},"indices":43,"material":4}]},{"name":"mag ejector","primitives":[{"attributes":{"POSITION":44,"NORMAL":45,"TEXCOORD_0":46},"indices":47,"material":2}]},{"name":"bolt hammer","primitives":[{"attributes":{"POSITION":52,"NORMAL":53,"TEXCOORD_0":54},"indices":55,"material":1},{"attributes":{"POSITION":56,"NORMAL":57,"TEXCOORD_0":58},"indices":59,"material":2}]},{"name":"bolt","primitives":[{"attributes":{"POSITION":48,"NORMAL":49,"TEXCOORD_0":50},"indices":51,"material":2}]},{"name":"trigger","primitives":[{"attributes":{"POSITION":60,"NORMAL":61,"TEXCOORD_0":62},"indices":63,"material":1},{"attributes":{"POSITION":64,"NORMAL":65,"TEXCOORD_0":66},"indices":67,"material":2},{"attributes":{"POSITION":68,"NORMAL":69,"TEXCOORD_0":70},"indices":71,"material":5}]}],"materials":[{"name":"FANG | blued steel","pbrMetallicRoughness":{"baseColorFactor":[1,1,1,1],"metallicFactor":0.4,"roughnessFactor":0.46,"baseColorTexture":{"index":5}},"extras":{"partMaterial":"blued steel","textureLibrary":"blued-steel","textureBumpScale":0.00025}},{"name":"FANG | black oxide","pbrMetallicRoughness":{"baseColorFactor":[1,1,1,1],"metallicFactor":0.4,"roughnessFactor":0.46,"baseColorTexture":{"index":5}},"extras":{"partMaterial":"black oxide","textureLibrary":"blued-steel","textureBumpScale":0.00025}},{"name":"FANG | satin steel","pbrMetallicRoughness":{"baseColorFactor":[1,1,1,1],"metallicFactor":0.55,"roughnessFactor":0.36,"baseColorTexture":{"index":6}},"extras":{"partMaterial":"satin steel","textureLibrary":"machined-steel","textureBumpScale":0.00018}},{"name":"FANG | brass","pbrMetallicRoughness":{"baseColorFactor":[1,1,1,1],"metallicFactor":0.58,"roughnessFactor":0.42,"baseColorTexture":{"index":7}},"extras":{"partMaterial":"brass","textureLibrary":"aged-brass","textureBumpScale":0.0002}},{"name":"FANG | rubber","pbrMetallicRoughness":{"baseColorFactor":[1,1,1,1],"metallicFactor":0,"roughnessFactor":0.84,"baseColorTexture":{"index":8}},"extras":{"partMaterial":"rubber","textureLibrary":"pebbled-rubber","textureBumpScale":0.0008}},{"name":"FANG | sight orange","pbrMetallicRoughness":{"baseColorFactor":[1,1,1,1],"metallicFactor":0.14,"roughnessFactor":0.5,"baseColorTexture":{"index":9}},"extras":{"partMaterial":"sight orange","textureLibrary":"orange-paint","textureBumpScale":0.0004}},{"name":"FANG | ivory coating","pbrMetallicRoughness":{"baseColorFactor":[1,1,1,1],"metallicFactor":0.08,"roughnessFactor":0.62,"baseColorTexture":{"index":10}},"extras":{"partMaterial":"ivory coating","textureLibrary":"ivory-ceramic","textureBumpScale":0.0003}}],"images":[{"uri":"textures/ivory-armor.jpg"},{"uri":"textures/orange-painted-metal.jpg"},{"uri":"textures/petrol-ballistic-fabric.jpg"},{"uri":"textures/worn-gunmetal.jpg"},{"uri":"textures/worn-rubber.jpg"},{"uri":"textures/palette/blued-steel.jpg","name":"textures/palette/blued-steel.jpg"},{"uri":"textures/palette/machined-steel.jpg","name":"textures/palette/machined-steel.jpg"},{"uri":"textures/palette/aged-brass.jpg","name":"textures/palette/aged-brass.jpg"},{"uri":"textures/palette/pebbled-rubber.jpg","name":"textures/palette/pebbled-rubber.jpg"},{"uri":"textures/palette/orange-paint.jpg","name":"textures/palette/orange-paint.jpg"},{"uri":"textures/palette/ivory-ceramic.jpg","name":"textures/palette/ivory-ceramic.jpg"}],"textures":[{"source":0,"sampler":0},{"source":1,"sampler":0},{"source":2,"sampler":0},{"source":3,"sampler":0},{"source":4,"sampler":0},{"source":5,"sampler":0},{"source":6,"sampler":0},{"source":7,"sampler":0},{"source":8,"sampler":0},{"source":9,"sampler":0},{"source":10,"sampler":0}],"samplers":[{"magFilter":9729,"minFilter":9987,"wrapS":10497,"wrapT":10497}],"buffers":[{"uri":"fang.bin","byteLength":795984}],"bufferViews":[{"buffer":0,"byteOffset":0,"byteLength":122196,"target":34962},{"buffer":0,"byteOffset":122196,"byteLength":122196,"target":34962},{"buffer":0,"byteOffset":244392,"byteLength":81464,"target":34962},{"buffer":0,"byteOffset":325856,"byteLength":82032,"target":34963},{"buffer":0,"byteOffset":407888,"byteLength":16272,"target":34962},{"buffer":0,"byteOffset":424160,"byteLength":16272,"target":34962},{"buffer":0,"byteOffset":440432,"byteLength":10848,"target":34962},{"buffer":0,"byteOffset":451280,"byteLength":9024,"target":34963},{"buffer":0,"byteOffset":460304,"byteLength":8496,"target":34962},{"buffer":0,"byteOffset":468800,"byteLength":8496,"target":34962},{"buffer":0,"byteOffset":477296,"byteLength":5664,"target":34962},{"buffer":0,"byteOffset":482960,"byteLength":4848,"target":34963},{"buffer":0,"byteOffset":487808,"byteLength":24384,"target":34962},{"buffer":0,"byteOffset":512192,"byteLength":24384,"target":34962},{"buffer":0,"byteOffset":536576,"byteLength":16256,"target":34962},{"buffer":0,"byteOffset":552832,"byteLength":12528,"target":34963},{"buffer":0,"byteOffset":565360,"byteLength":288,"target":34962},{"buffer":0,"byteOffset":565648,"byteLength":288,"target":34962},{"buffer":0,"byteOffset":565936,"byteLength":192,"target":34962},{"buffer":0,"byteOffset":566128,"byteLength":144,"target":34963},{"buffer":0,"byteOffset":566272,"byteLength":14640,"target":34962},{"buffer":0,"byteOffset":580912,"byteLength":14640,"target":34962},{"buffer":0,"byteOffset":595552,"byteLength":9760,"target":34962},{"buffer":0,"byteOffset":605312,"byteLength":9552,"target":34963},{"buffer":0,"byteOffset":614864,"byteLength":5184,"target":34962},{"buffer":0,"byteOffset":620048,"byteLength":5184,"target":34962},{"buffer":0,"byteOffset":625232,"byteLength":3456,"target":34962},{"buffer":0,"byteOffset":628688,"byteLength":3168,"target":34963},{"buffer":0,"byteOffset":631856,"byteLength":13824,"target":34962},{"buffer":0,"byteOffset":645680,"byteLength":13824,"target":34962},{"buffer":0,"byteOffset":659504,"byteLength":9216,"target":34962},{"buffer":0,"byteOffset":668720,"byteLength":9216,"target":34963},{"buffer":0,"byteOffset":677936,"byteLength":3456,"target":34962},{"buffer":0,"byteOffset":681392,"byteLength":3456,"target":34962},{"buffer":0,"byteOffset":684848,"byteLength":2304,"target":34962},{"buffer":0,"byteOffset":687152,"byteLength":1824,"target":34963},{"buffer":0,"byteOffset":688976,"byteLength":12672,"target":34962},{"buffer":0,"byteOffset":701648,"byteLength":12672,"target":34962},{"buffer":0,"byteOffset":714320,"byteLength":8448,"target":34962},{"buffer":0,"byteOffset":722768,"byteLength":6864,"target":34963},{"buffer":0,"byteOffset":729632,"byteLength":1728,"target":34962},{"buffer":0,"byteOffset":731360,"byteLength":1728,"target":34962},{"buffer":0,"byteOffset":733088,"byteLength":1152,"target":34962},{"buffer":0,"byteOffset":734240,"byteLength":864,"target":34963},{"buffer":0,"byteOffset":735104,"byteLength":3696,"target":34962},{"buffer":0,"byteOffset":738800,"byteLength":3696,"target":34962},{"buffer":0,"byteOffset":742496,"byteLength":2464,"target":34962},{"buffer":0,"byteOffset":744960,"byteLength":2208,"target":34963},{"buffer":0,"byteOffset":747168,"byteLength":864,"target":34962},{"buffer":0,"byteOffset":748032,"byteLength":864,"target":34962},{"buffer":0,"byteOffset":748896,"byteLength":576,"target":34962},{"buffer":0,"byteOffset":749472,"byteLength":528,"target":34963},{"buffer":0,"byteOffset":750000,"byteLength":864,"target":34962},{"buffer":0,"byteOffset":750864,"byteLength":864,"target":34962},{"buffer":0,"byteOffset":751728,"byteLength":576,"target":34962},{"buffer":0,"byteOffset":752304,"byteLength":432,"target":34963},{"buffer":0,"byteOffset":752736,"byteLength":5208,"target":34962},{"buffer":0,"byteOffset":757944,"byteLength":5208,"target":34962},{"buffer":0,"byteOffset":763152,"byteLength":3472,"target":34962},{"buffer":0,"byteOffset":766624,"byteLength":2688,"target":34963},{"buffer":0,"byteOffset":769312,"byteLength":864,"target":34962},{"buffer":0,"byteOffset":770176,"byteLength":864,"target":34962},{"buffer":0,"byteOffset":771040,"byteLength":576,"target":34962},{"buffer":0,"byteOffset":771616,"byteLength":432,"target":34963},{"buffer":0,"byteOffset":772048,"byteLength":2592,"target":34962},{"buffer":0,"byteOffset":774640,"byteLength":2592,"target":34962},{"buffer":0,"byteOffset":777232,"byteLength":1728,"target":34962},{"buffer":0,"byteOffset":778960,"byteLength":1296,"target":34963},{"buffer":0,"byteOffset":780256,"byteLength":4944,"target":34962},{"buffer":0,"byteOffset":785200,"byteLength":4944,"target":34962},{"buffer":0,"byteOffset":790144,"byteLength":3296,"target":34962},{"buffer":0,"byteOffset":793440,"byteLength":2544,"target":34963}],"accessors":[{"bufferView":0,"componentType":5126,"count":10183,"type":"VEC3","min":[-0.0205,-0.088504,-0.52],"max":[0.0205,0.105,0.041]},{"bufferView":1,"componentType":5126,"count":10183,"type":"VEC3"},{"bufferView":2,"componentType":5126,"count":10183,"type":"VEC2"},{"bufferView":3,"componentType":5125,"count":20508,"type":"SCALAR"},{"bufferView":4,"componentType":5126,"count":1356,"type":"VEC3","min":[-0.0253,-0.0905,-0.5195],"max":[0.0253,0.083,0.0225]},{"bufferView":5,"componentType":5126,"count":1356,"type":"VEC3"},{"bufferView":6,"componentType":5126,"count":1356,"type":"VEC2"},{"bufferView":7,"componentType":5125,"count":2256,"type":"SCALAR"},{"bufferView":8,"componentType":5126,"count":708,"type":"VEC3","min":[-0.0245,-0.081329,-0.364],"max":[0.0245,0.043,0.0232]},{"bufferView":9,"componentType":5126,"count":708,"type":"VEC3"},{"bufferView":10,"componentType":5126,"count":708,"type":"VEC2"},{"bufferView":11,"componentType":5125,"count":1212,"type":"SCALAR"},{"bufferView":12,"componentType":5126,"count":2032,"type":"VEC3","min":[-0.024,-0.102419,-0.07648],"max":[0.024,0.002973,0.036]},{"bufferView":13,"componentType":5126,"count":2032,"type":"VEC3"},{"bufferView":14,"componentType":5126,"count":2032,"type":"VEC2"},{"bufferView":15,"componentType":5125,"count":3132,"type":"SCALAR"},{"bufferView":16,"componentType":5126,"count":24,"type":"VEC3","min":[-0.0065,0.09,-0.511],"max":[0.0065,0.102,-0.506]},{"bufferView":17,"componentType":5126,"count":24,"type":"VEC3"},{"bufferView":18,"componentType":5126,"count":24,"type":"VEC2"},{"bufferView":19,"componentType":5125,"count":36,"type":"SCALAR"},{"bufferView":20,"componentType":5126,"count":1220,"type":"VEC3","min":[-0.0245,-0.069,-0.292089],"max":[0.0245,0.099,0.0045]},{"bufferView":21,"componentType":5126,"count":1220,"type":"VEC3"},{"bufferView":22,"componentType":5126,"count":1220,"type":"VEC2"},{"bufferView":23,"componentType":5125,"count":2388,"type":"SCALAR"},{"bufferView":24,"componentType":5126,"count":432,"type":"VEC3","min":[-0.016124,0.008,-0.0965],"max":[0.016124,0.044,-0.0925]},{"bufferView":25,"componentType":5126,"count":432,"type":"VEC3"},{"bufferView":26,"componentType":5126,"count":432,"type":"VEC2"},{"bufferView":27,"componentType":5125,"count":792,"type":"SCALAR"},{"bufferView":28,"componentType":5126,"count":1152,"type":"VEC3","min":[-0.017924,0.0062,-0.097],"max":[0.017924,0.0458,-0.094]},{"bufferView":29,"componentType":5126,"count":1152,"type":"VEC3"},{"bufferView":30,"componentType":5126,"count":1152,"type":"VEC2"},{"bufferView":31,"componentType":5125,"count":2304,"type":"SCALAR"},{"bufferView":32,"componentType":5126,"count":288,"type":"VEC3","min":[-0.01,-0.002,-0.166],"max":[0.01,0.014,-0.144]},{"bufferView":33,"componentType":5126,"count":288,"type":"VEC3"},{"bufferView":34,"componentType":5126,"count":288,"type":"VEC2"},{"bufferView":35,"componentType":5125,"count":456,"type":"SCALAR"},{"bufferView":36,"componentType":5126,"count":1056,"type":"VEC3","min":[-0.025,0.001,-0.148],"max":[0.025,0.051,-0.095]},{"bufferView":37,"componentType":5126,"count":1056,"type":"VEC3"},{"bufferView":38,"componentType":5126,"count":1056,"type":"VEC2"},{"bufferView":39,"componentType":5125,"count":1716,"type":"SCALAR"},{"bufferView":40,"componentType":5126,"count":144,"type":"VEC3","min":[-0.0255,0.003291,-0.1465],"max":[0.0255,0.048709,-0.0965]},{"bufferView":41,"componentType":5126,"count":144,"type":"VEC3"},{"bufferView":42,"componentType":5126,"count":144,"type":"VEC2"},{"bufferView":43,"componentType":5125,"count":216,"type":"SCALAR"},{"bufferView":44,"componentType":5126,"count":308,"type":"VEC3","min":[-0.008,0.018,-0.368],"max":[0.008,0.034,-0.147]},{"bufferView":45,"componentType":5126,"count":308,"type":"VEC3"},{"bufferView":46,"componentType":5126,"count":308,"type":"VEC2"},{"bufferView":47,"componentType":5125,"count":552,"type":"SCALAR"},{"bufferView":48,"componentType":5126,"count":72,"type":"VEC3","min":[-0.02,0.026,-0.022],"max":[0.02,0.034,-0.014]},{"bufferView":49,"componentType":5126,"count":72,"type":"VEC3"},{"bufferView":50,"componentType":5126,"count":72,"type":"VEC2"},{"bufferView":51,"componentType":5125,"count":132,"type":"SCALAR"},{"bufferView":52,"componentType":5126,"count":72,"type":"VEC3","min":[-0.01,0.08025,0.0295],"max":[0.01,0.08875,0.035]},{"bufferView":53,"componentType":5126,"count":72,"type":"VEC3"},{"bufferView":54,"componentType":5126,"count":72,"type":"VEC2"},{"bufferView":55,"componentType":5125,"count":108,"type":"SCALAR"},{"bufferView":56,"componentType":5126,"count":434,"type":"VEC3","min":[-0.011,0.018283,-0.031608],"max":[0.011,0.088,0.033611]},{"bufferView":57,"componentType":5126,"count":434,"type":"VEC3"},{"bufferView":58,"componentType":5126,"count":434,"type":"VEC2"},{"bufferView":59,"componentType":5125,"count":672,"type":"SCALAR"},{"bufferView":60,"componentType":5126,"count":72,"type":"VEC3","min":[-0.00725,-0.00725,-0.0675],"max":[0.00725,0.00325,-0.0655]},{"bufferView":61,"componentType":5126,"count":72,"type":"VEC3"},{"bufferView":62,"componentType":5126,"count":72,"type":"VEC2"},{"bufferView":63,"componentType":5125,"count":108,"type":"SCALAR"},{"bufferView":64,"componentType":5126,"count":216,"type":"VEC3","min":[-0.007,-0.01,-0.081],"max":[0.007,0.014,-0.067]},{"bufferView":65,"componentType":5126,"count":216,"type":"VEC3"},{"bufferView":66,"componentType":5126,"count":216,"type":"VEC2"},{"bufferView":67,"componentType":5125,"count":324,"type":"SCALAR"},{"bufferView":68,"componentType":5126,"count":412,"type":"VEC3","min":[-0.01,-0.02874,-0.093754],"max":[0.01,-0.001212,-0.067]},{"bufferView":69,"componentType":5126,"count":412,"type":"VEC3"},{"bufferView":70,"componentType":5126,"count":412,"type":"VEC2"},{"bufferView":71,"componentType":5125,"count":636,"type":"SCALAR"}]}
