{"asset":{"version":"2.0","generator":"Voxel Blitz Blender runtime export"},"scene":0,"scenes":[{"nodes":[0,1,2,3,4]}],"nodes":[{"name":"frag","extras":{"blenderAsset":"grenades","grenadeType":"frag"},"mesh":0},{"name":"limpet","extras":{"blenderAsset":"grenades","grenadeType":"limpet"},"mesh":1},{"name":"pulse","extras":{"blenderAsset":"grenades","grenadeType":"pulse"},"mesh":2},{"name":"molotov","extras":{"blenderAsset":"grenades","grenadeType":"molotov"},"mesh":3},{"name":"smoke","extras":{"blenderAsset":"grenades","grenadeType":"smoke"},"mesh":4}],"meshes":[{"name":"frag","primitives":[{"attributes":{"POSITION":0,"NORMAL":1,"TEXCOORD_0":2},"indices":3,"material":0},{"attributes":{"POSITION":4,"NORMAL":5,"TEXCOORD_0":6},"indices":7,"material":1},{"attributes":{"POSITION":8,"NORMAL":9,"TEXCOORD_0":10},"indices":11,"material":2},{"attributes":{"POSITION":12,"NORMAL":13,"TEXCOORD_0":14},"indices":15,"material":3}]},{"name":"limpet","primitives":[{"attributes":{"POSITION":16,"NORMAL":17,"TEXCOORD_0":18},"indices":19,"material":2},{"attributes":{"POSITION":20,"NORMAL":21,"TEXCOORD_0":22},"indices":23,"material":3},{"attributes":{"POSITION":24,"NORMAL":25,"TEXCOORD_0":26},"indices":27,"material":4},{"attributes":{"POSITION":28,"NORMAL":29,"TEXCOORD_0":30},"indices":31,"material":5},{"attributes":{"POSITION":32,"NORMAL":33,"TEXCOORD_0":34},"indices":35,"material":6},{"attributes":{"POSITION":36,"NORMAL":37,"TEXCOORD_0":38},"indices":39,"material":7}]},{"name":"pulse","primitives":[{"attributes":{"POSITION":40,"NORMAL":41,"TEXCOORD_0":42},"indices":43,"material":2},{"attributes":{"POSITION":44,"NORMAL":45,"TEXCOORD_0":46},"indices":47,"material":3},{"attributes":{"POSITION":48,"NORMAL":49,"TEXCOORD_0":50},"indices":51,"material":12}]},{"name":"molotov","primitives":[{"attributes":{"POSITION":52,"NORMAL":53,"TEXCOORD_0":54},"indices":55,"material":2},{"attributes":{"POSITION":56,"NORMAL":57,"TEXCOORD_0":58},"indices":59,"material":8},{"attributes":{"POSITION":60,"NORMAL":61,"TEXCOORD_0":62},"indices":63,"material":9},{"attributes":{"POSITION":64,"NORMAL":65,"TEXCOORD_0":66},"indices":67,"material":10},{"attributes":{"POSITION":68,"NORMAL":69,"TEXCOORD_0":70},"indices":71,"material":11}]},{"name":"smoke","primitives":[{"attributes":{"POSITION":72,"NORMAL":73,"TEXCOORD_0":74},"indices":75,"material":0},{"attributes":{"POSITION":76,"NORMAL":77,"TEXCOORD_0":78},"indices":79,"material":2},{"attributes":{"POSITION":80,"NORMAL":81,"TEXCOORD_0":82},"indices":83,"material":3},{"attributes":{"POSITION":84,"NORMAL":85,"TEXCOORD_0":86},"indices":87,"material":13},{"attributes":{"POSITION":88,"NORMAL":89,"TEXCOORD_0":90},"indices":91,"material":14}]}],"materials":[{"name":"GRENADES | fuse cap","pbrMetallicRoughness":{"baseColorFactor":[1.0,0.35153,0.01444,1.0],"metallicFactor":0.0,"roughnessFactor":0.3499999940395355,"baseColorTexture":{"index":2}},"extras":{"partMaterial":"fuse cap","glow":true},"emissiveFactor":[1.0,0.45079,0.06301],"extensions":{"KHR_materials_emissive_strength":{"emissiveStrength":1.2}}},{"name":"GRENADES | bronze","pbrMetallicRoughness":{"baseColorFactor":[0.47932,0.18782,0.04231,1.0],"metallicFactor":0.8999999761581421,"roughnessFactor":0.3799999952316284,"baseColorTexture":{"index":2}},"extras":{"partMaterial":"bronze"}},{"name":"GRENADES | grenade steel","pbrMetallicRoughness":{"baseColorFactor":[0.19462,0.22323,0.27889,1.0],"metallicFactor":0.75,"roughnessFactor":0.44999998807907104,"baseColorTexture":{"index":0}},"extras":{"partMaterial":"grenade steel"}},{"name":"GRENADES | hardware","pbrMetallicRoughness":{"baseColorFactor":[0.18782,0.21586,0.2462,1.0],"metallicFactor":0.8500000238418579,"roughnessFactor":0.3199999928474426,"baseColorTexture":{"index":2}},"extras":{"partMaterial":"hardware"}},{"name":"GRENADES | copper","pbrMetallicRoughness":{"baseColorFactor":[0.43415,0.11697,0.02732,1.0],"metallicFactor":0.8999999761581421,"roughnessFactor":0.3400000035762787,"baseColorTexture":{"index":2}},"extras":{"partMaterial":"copper"}},{"name":"GRENADES | rubber","pbrMetallicRoughness":{"baseColorFactor":[0.32314,0.34191,0.37124,1.0],"metallicFactor":0.0,"roughnessFactor":0.8500000238418579,"baseColorTexture":{"index":5}},"extras":{"partMaterial":"rubber"}},{"name":"GRENADES | orange rim","pbrMetallicRoughness":{"baseColorFactor":[1.0,1.0,1.0,1.0],"metallicFactor":0.30000001192092896,"roughnessFactor":0.44999998807907104,"baseColorTexture":{"index":1}},"extras":{"partMaterial":"orange rim","glow":true},"emissiveFactor":[1.0,0.10224,0.04519],"extensions":{"KHR_materials_emissive_strength":{"emissiveStrength":0.6}}},{"name":"GRENADES | sensor lens","pbrMetallicRoughness":{"baseColorFactor":[1.0,0.06848,0.02315,1.0],"metallicFactor":0.0,"roughnessFactor":0.25,"baseColorTexture":{"index":2}},"extras":{"partMaterial":"sensor lens","glow":true},"emissiveFactor":[1.0,0.03434,0.02122],"extensions":{"KHR_materials_emissive_strength":{"emissiveStrength":1.5}}},{"name":"GRENADES | glass","pbrMetallicRoughness":{"baseColorFactor":[0.04817,0.16203,0.02956,0.55],"metallicFactor":0.10000000149011612,"roughnessFactor":0.15000000596046448,"baseColorTexture":{"index":2}},"extras":{"partMaterial":"glass","glass":true},"alphaMode":"BLEND","doubleSided":true},{"name":"GRENADES | fuel","pbrMetallicRoughness":{"baseColorFactor":[0.52712,0.19462,0.01444,1.0],"metallicFactor":0.0,"roughnessFactor":0.30000001192092896,"baseColorTexture":{"index":2}},"extras":{"partMaterial":"fuel"}},{"name":"GRENADES | label","pbrMetallicRoughness":{"baseColorFactor":[0.7454,0.57758,0.27889,1.0],"metallicFactor":0.0,"roughnessFactor":0.699999988079071,"baseColorTexture":{"index":2}},"extras":{"partMaterial":"label"}},{"name":"GRENADES | rag","pbrMetallicRoughness":{"baseColorFactor":[0.68669,0.57758,0.35153,1.0],"metallicFactor":0.0,"roughnessFactor":0.8999999761581421,"baseColorTexture":{"index":4}},"extras":{"partMaterial":"rag"}},{"name":"GRENADES | pulse core","pbrMetallicRoughness":{"baseColorFactor":[0.02956,0.57758,0.80695,1.0],"metallicFactor":0.0,"roughnessFactor":0.30000001192092896,"baseColorTexture":{"index":2}},"extras":{"partMaterial":"pulse core","glow":true},"emissiveFactor":[0.0999,0.80695,1.0],"extensions":{"KHR_materials_emissive_strength":{"emissiveStrength":1.5}}},{"name":"GRENADES | smoke band","pbrMetallicRoughness":{"baseColorFactor":[0.68669,0.8388,0.8388,1.0],"metallicFactor":0.20000000298023224,"roughnessFactor":0.550000011920929,"baseColorTexture":{"index":2}},"extras":{"partMaterial":"smoke band"}},{"name":"GRENADES | smoke shell","pbrMetallicRoughness":{"baseColorFactor":[0.25415,0.29614,0.31399,1.0],"metallicFactor":0.75,"roughnessFactor":0.41999998688697815,"baseColorTexture":{"index":2}},"extras":{"partMaterial":"smoke shell"}}],"images":[{"uri":"textures/worn-gunmetal.jpg"},{"uri":"textures/orange-painted-metal.jpg"},{"uri":"textures/ivory-armor.jpg"},{"uri":"textures/petrol-ballistic-fabric.jpg"},{"uri":"textures/tan-webbing.jpg"},{"uri":"textures/worn-rubber.jpg"}],"textures":[{"source":0,"sampler":0},{"source":1,"sampler":0},{"source":2,"sampler":0},{"source":3,"sampler":0},{"source":4,"sampler":0},{"source":5,"sampler":0}],"samplers":[{"magFilter":9729,"minFilter":9987,"wrapS":10497,"wrapT":10497}],"buffers":[{"uri":"grenades.bin","byteLength":586272}],"bufferViews":[{"buffer":0,"byteOffset":0,"byteLength":10368,"target":34962},{"buffer":0,"byteOffset":10368,"byteLength":10368,"target":34962},{"buffer":0,"byteOffset":20736,"byteLength":6912,"target":34962},{"buffer":0,"byteOffset":27648,"byteLength":4752,"target":34963},{"buffer":0,"byteOffset":32400,"byteLength":10368,"target":34962},{"buffer":0,"byteOffset":42768,"byteLength":10368,"target":34962},{"buffer":0,"byteOffset":53136,"byteLength":6912,"target":34962},{"buffer":0,"byteOffset":60048,"byteLength":5568,"target":34963},{"buffer":0,"byteOffset":65616,"byteLength":28032,"target":34962},{"buffer":0,"byteOffset":93648,"byteLength":28032,"target":34962},{"buffer":0,"byteOffset":121680,"byteLength":18688,"target":34962},{"buffer":0,"byteOffset":140368,"byteLength":13008,"target":34963},{"buffer":0,"byteOffset":153376,"byteLength":5760,"target":34962},{"buffer":0,"byteOffset":159136,"byteLength":5760,"target":34962},{"buffer":0,"byteOffset":164896,"byteLength":3840,"target":34962},{"buffer":0,"byteOffset":168736,"byteLength":2640,"target":34963},{"buffer":0,"byteOffset":171376,"byteLength":6912,"target":34962},{"buffer":0,"byteOffset":178288,"byteLength":6912,"target":34962},{"buffer":0,"byteOffset":185200,"byteLength":4608,"target":34962},{"buffer":0,"byteOffset":189808,"byteLength":3264,"target":34963},{"buffer":0,"byteOffset":193072,"byteLength":5760,"target":34962},{"buffer":0,"byteOffset":198832,"byteLength":5760,"target":34962},{"buffer":0,"byteOffset":204592,"byteLength":3840,"target":34962},{"buffer":0,"byteOffset":208432,"byteLength":2640,"target":34963},{"buffer":0,"byteOffset":211072,"byteLength":7488,"target":34962},{"buffer":0,"byteOffset":218560,"byteLength":7488,"target":34962},{"buffer":0,"byteOffset":226048,"byteLength":4992,"target":34962},{"buffer":0,"byteOffset":231040,"byteLength":3744,"target":34963},{"buffer":0,"byteOffset":234784,"byteLength":4608,"target":34962},{"buffer":0,"byteOffset":239392,"byteLength":4608,"target":34962},{"buffer":0,"byteOffset":244000,"byteLength":3072,"target":34962},{"buffer":0,"byteOffset":247072,"byteLength":2112,"target":34963},{"buffer":0,"byteOffset":249184,"byteLength":2304,"target":34962},{"buffer":0,"byteOffset":251488,"byteLength":2304,"target":34962},{"buffer":0,"byteOffset":253792,"byteLength":1536,"target":34962},{"buffer":0,"byteOffset":255328,"byteLength":1104,"target":34963},{"buffer":0,"byteOffset":256432,"byteLength":2304,"target":34962},{"buffer":0,"byteOffset":258736,"byteLength":2304,"target":34962},{"buffer":0,"byteOffset":261040,"byteLength":1536,"target":34962},{"buffer":0,"byteOffset":262576,"byteLength":1104,"target":34963},{"buffer":0,"byteOffset":263680,"byteLength":27648,"target":34962},{"buffer":0,"byteOffset":291328,"byteLength":27648,"target":34962},{"buffer":0,"byteOffset":318976,"byteLength":18432,"target":34962},{"buffer":0,"byteOffset":337408,"byteLength":16032,"target":34963},{"buffer":0,"byteOffset":353440,"byteLength":12672,"target":34962},{"buffer":0,"byteOffset":366112,"byteLength":12672,"target":34962},{"buffer":0,"byteOffset":378784,"byteLength":8448,"target":34962},{"buffer":0,"byteOffset":387232,"byteLength":5808,"target":34963},{"buffer":0,"byteOffset":393040,"byteLength":8784,"target":34962},{"buffer":0,"byteOffset":401824,"byteLength":8784,"target":34962},{"buffer":0,"byteOffset":410608,"byteLength":5856,"target":34962},{"buffer":0,"byteOffset":416464,"byteLength":3936,"target":34963},{"buffer":0,"byteOffset":420400,"byteLength":2304,"target":34962},{"buffer":0,"byteOffset":422704,"byteLength":2304,"target":34962},{"buffer":0,"byteOffset":425008,"byteLength":1536,"target":34962},{"buffer":0,"byteOffset":426544,"byteLength":1056,"target":34963},{"buffer":0,"byteOffset":427600,"byteLength":10560,"target":34962},{"buffer":0,"byteOffset":438160,"byteLength":10560,"target":34962},{"buffer":0,"byteOffset":448720,"byteLength":7040,"target":34962},{"buffer":0,"byteOffset":455760,"byteLength":5712,"target":34963},{"buffer":0,"byteOffset":461472,"byteLength":864,"target":34962},{"buffer":0,"byteOffset":462336,"byteLength":864,"target":34962},{"buffer":0,"byteOffset":463200,"byteLength":576,"target":34962},{"buffer":0,"byteOffset":463776,"byteLength":528,"target":34963},{"buffer":0,"byteOffset":464304,"byteLength":2976,"target":34962},{"buffer":0,"byteOffset":467280,"byteLength":2976,"target":34962},{"buffer":0,"byteOffset":470256,"byteLength":1984,"target":34962},{"buffer":0,"byteOffset":472240,"byteLength":1488,"target":34963},{"buffer":0,"byteOffset":473728,"byteLength":7776,"target":34962},{"buffer":0,"byteOffset":481504,"byteLength":7776,"target":34962},{"buffer":0,"byteOffset":489280,"byteLength":5184,"target":34962},{"buffer":0,"byteOffset":494464,"byteLength":3888,"target":34963},{"buffer":0,"byteOffset":498352,"byteLength":1152,"target":34962},{"buffer":0,"byteOffset":499504,"byteLength":1152,"target":34962},{"buffer":0,"byteOffset":500656,"byteLength":768,"target":34962},{"buffer":0,"byteOffset":501424,"byteLength":528,"target":34963},{"buffer":0,"byteOffset":501952,"byteLength":12096,"target":34962},{"buffer":0,"byteOffset":514048,"byteLength":12096,"target":34962},{"buffer":0,"byteOffset":526144,"byteLength":8064,"target":34962},{"buffer":0,"byteOffset":534208,"byteLength":5904,"target":34963},{"buffer":0,"byteOffset":540112,"byteLength":8064,"target":34962},{"buffer":0,"byteOffset":548176,"byteLength":8064,"target":34962},{"buffer":0,"byteOffset":556240,"byteLength":5376,"target":34962},{"buffer":0,"byteOffset":561616,"byteLength":3744,"target":34963},{"buffer":0,"byteOffset":565360,"byteLength":4512,"target":34962},{"buffer":0,"byteOffset":569872,"byteLength":4512,"target":34962},{"buffer":0,"byteOffset":574384,"byteLength":3008,"target":34962},{"buffer":0,"byteOffset":577392,"byteLength":2400,"target":34963},{"buffer":0,"byteOffset":579792,"byteLength":2016,"target":34962},{"buffer":0,"byteOffset":581808,"byteLength":2016,"target":34962},{"buffer":0,"byteOffset":583824,"byteLength":1344,"target":34962},{"buffer":0,"byteOffset":585168,"byteLength":1104,"target":34963}],"accessors":[{"bufferView":0,"componentType":5126,"count":864,"type":"VEC3","min":[-0.075262,-0.003,-0.075262],"max":[0.075262,0.108,0.075262]},{"bufferView":1,"componentType":5126,"count":864,"type":"VEC3"},{"bufferView":2,"componentType":5126,"count":864,"type":"VEC2"},{"bufferView":3,"componentType":5125,"count":1188,"type":"SCALAR"},{"bufferView":4,"componentType":5126,"count":864,"type":"VEC3","min":[-0.069145,-0.085,-0.069145],"max":[0.069145,0.042,0.069145]},{"bufferView":5,"componentType":5126,"count":864,"type":"VEC3"},{"bufferView":6,"componentType":5126,"count":864,"type":"VEC2"},{"bufferView":7,"componentType":5125,"count":1392,"type":"SCALAR"},{"bufferView":8,"componentType":5126,"count":2336,"type":"VEC3","min":[-0.068,-0.0759,-0.068],"max":[0.068,0.079,0.068]},{"bufferView":9,"componentType":5126,"count":2336,"type":"VEC3"},{"bufferView":10,"componentType":5126,"count":2336,"type":"VEC2"},{"bufferView":11,"componentType":5125,"count":3252,"type":"SCALAR"},{"bufferView":12,"componentType":5126,"count":480,"type":"VEC3","min":[-0.027,-0.011578,-0.016],"max":[0.07209,0.099,0.02]},{"bufferView":13,"componentType":5126,"count":480,"type":"VEC3"},{"bufferView":14,"componentType":5126,"count":480,"type":"VEC2"},{"bufferView":15,"componentType":5125,"count":660,"type":"SCALAR"},{"bufferView":16,"componentType":5126,"count":576,"type":"VEC3","min":[-0.091,-0.051516,-0.041],"max":[0.091,0.051516,0.027]},{"bufferView":17,"componentType":5126,"count":576,"type":"VEC3"},{"bufferView":18,"componentType":5126,"count":576,"type":"VEC2"},{"bufferView":19,"componentType":5125,"count":816,"type":"SCALAR"},{"bufferView":20,"componentType":5126,"count":480,"type":"VEC3","min":[-0.093,-0.061,-0.042],"max":[0.093,0.065,0.003]},{"bufferView":21,"componentType":5126,"count":480,"type":"VEC3"},{"bufferView":22,"componentType":5126,"count":480,"type":"VEC2"},{"bufferView":23,"componentType":5125,"count":660,"type":"SCALAR"},{"bufferView":24,"componentType":5126,"count":624,"type":"VEC3","min":[-0.087769,-0.059683,-0.03],"max":[0.087769,0.059683,0.023]},{"bufferView":25,"componentType":5126,"count":624,"type":"VEC3"},{"bufferView":26,"componentType":5126,"count":624,"type":"VEC2"},{"bufferView":27,"componentType":5125,"count":936,"type":"SCALAR"},{"bufferView":28,"componentType":5126,"count":384,"type":"VEC3","min":[-0.09,-0.058,-0.044],"max":[0.09,0.058,-0.038]},{"bufferView":29,"componentType":5126,"count":384,"type":"VEC3"},{"bufferView":30,"componentType":5126,"count":384,"type":"VEC2"},{"bufferView":31,"componentType":5125,"count":528,"type":"SCALAR"},{"bufferView":32,"componentType":5126,"count":192,"type":"VEC3","min":[-0.092388,-0.064672,-0.013],"max":[0.092388,0.064672,-0.003]},{"bufferView":33,"componentType":5126,"count":192,"type":"VEC3"},{"bufferView":34,"componentType":5126,"count":192,"type":"VEC2"},{"bufferView":35,"componentType":5125,"count":276,"type":"SCALAR"},{"bufferView":36,"componentType":5126,"count":192,"type":"VEC3","min":[-0.010025,-0.010025,0.023],"max":[0.010025,0.010025,0.033]},{"bufferView":37,"componentType":5126,"count":192,"type":"VEC3"},{"bufferView":38,"componentType":5126,"count":192,"type":"VEC2"},{"bufferView":39,"componentType":5125,"count":276,"type":"SCALAR"},{"bufferView":40,"componentType":5126,"count":2304,"type":"VEC3","min":[-0.0855,-0.0845,-0.0855],"max":[0.0855,0.0845,0.0855]},{"bufferView":41,"componentType":5126,"count":2304,"type":"VEC3"},{"bufferView":42,"componentType":5126,"count":2304,"type":"VEC2"},{"bufferView":43,"componentType":5125,"count":4008,"type":"SCALAR"},{"bufferView":44,"componentType":5126,"count":1056,"type":"VEC3","min":[-0.076862,-0.011578,-0.085],"max":[0.076862,0.099,0.085]},{"bufferView":45,"componentType":5126,"count":1056,"type":"VEC3"},{"bufferView":46,"componentType":5126,"count":1056,"type":"VEC2"},{"bufferView":47,"componentType":5125,"count":1452,"type":"SCALAR"},{"bufferView":48,"componentType":5126,"count":732,"type":"VEC3","min":[-0.07741,-0.064649,-0.088],"max":[0.07741,0.108,0.088]},{"bufferView":49,"componentType":5126,"count":732,"type":"VEC3"},{"bufferView":50,"componentType":5126,"count":732,"type":"VEC2"},{"bufferView":51,"componentType":5125,"count":984,"type":"SCALAR"},{"bufferView":52,"componentType":5126,"count":192,"type":"VEC3","min":[-0.017,-0.005,0.0525],"max":[0.017,0.027,0.0565]},{"bufferView":53,"componentType":5126,"count":192,"type":"VEC3"},{"bufferView":54,"componentType":5126,"count":192,"type":"VEC2"},{"bufferView":55,"componentType":5125,"count":264,"type":"SCALAR"},{"bufferView":56,"componentType":5126,"count":880,"type":"VEC3","min":[-0.052149,-0.083,-0.052149],"max":[0.052149,0.25,0.052149]},{"bufferView":57,"componentType":5126,"count":880,"type":"VEC3"},{"bufferView":58,"componentType":5126,"count":880,"type":"VEC2"},{"bufferView":59,"componentType":5125,"count":1428,"type":"SCALAR"},{"bufferView":60,"componentType":5126,"count":72,"type":"VEC3","min":[-0.04733,-0.0675,-0.04733],"max":[0.04733,0.0775,0.04733]},{"bufferView":61,"componentType":5126,"count":72,"type":"VEC3"},{"bufferView":62,"componentType":5126,"count":72,"type":"VEC2"},{"bufferView":63,"componentType":5125,"count":132,"type":"SCALAR"},{"bufferView":64,"componentType":5126,"count":248,"type":"VEC3","min":[-0.053609,-0.019,-0.053609],"max":[0.053609,0.043,0.053609]},{"bufferView":65,"componentType":5126,"count":248,"type":"VEC3"},{"bufferView":66,"componentType":5126,"count":248,"type":"VEC2"},{"bufferView":67,"componentType":5125,"count":372,"type":"SCALAR"},{"bufferView":68,"componentType":5126,"count":648,"type":"VEC3","min":[-0.044536,0.194453,-0.017],"max":[0.039916,0.305615,0.017]},{"bufferView":69,"componentType":5126,"count":648,"type":"VEC3"},{"bufferView":70,"componentType":5126,"count":648,"type":"VEC2"},{"bufferView":71,"componentType":5125,"count":972,"type":"SCALAR"},{"bufferView":72,"componentType":5126,"count":96,"type":"VEC3","min":[-0.013,0.101,-0.013],"max":[0.013,0.111,0.013]},{"bufferView":73,"componentType":5126,"count":96,"type":"VEC3"},{"bufferView":74,"componentType":5126,"count":96,"type":"VEC2"},{"bufferView":75,"componentType":5125,"count":132,"type":"SCALAR"},{"bufferView":76,"componentType":5126,"count":1008,"type":"VEC3","min":[-0.05699,-0.082,-0.06],"max":[0.05699,0.082,0.06]},{"bufferView":77,"componentType":5126,"count":1008,"type":"VEC3"},{"bufferView":78,"componentType":5126,"count":1008,"type":"VEC2"},{"bufferView":79,"componentType":5125,"count":1476,"type":"SCALAR"},{"bufferView":80,"componentType":5126,"count":672,"type":"VEC3","min":[-0.027716,-0.011249,-0.027716],"max":[0.068261,0.102,0.027716]},{"bufferView":81,"componentType":5126,"count":672,"type":"VEC3"},{"bufferView":82,"componentType":5126,"count":672,"type":"VEC2"},{"bufferView":83,"componentType":5125,"count":936,"type":"SCALAR"},{"bufferView":84,"componentType":5126,"count":376,"type":"VEC3","min":[-0.056507,-0.049,-0.056507],"max":[0.056507,0.035,0.056507]},{"bufferView":85,"componentType":5126,"count":376,"type":"VEC3"},{"bufferView":86,"componentType":5126,"count":376,"type":"VEC2"},{"bufferView":87,"componentType":5125,"count":600,"type":"SCALAR"},{"bufferView":88,"componentType":5126,"count":168,"type":"VEC3","min":[-0.055058,-0.08,-0.055058],"max":[0.055058,0.08,0.055058]},{"bufferView":89,"componentType":5126,"count":168,"type":"VEC3"},{"bufferView":90,"componentType":5126,"count":168,"type":"VEC2"},{"bufferView":91,"componentType":5125,"count":276,"type":"SCALAR"}],"extensionsUsed":["KHR_materials_emissive_strength"]}
