{"asset":{"version":"2.0","generator":"Voxel Blitz Blender runtime export"},"scene":0,"scenes":[{"nodes":[0,1,2,3,4,5,6,7,8,9]}],"nodes":[{"name":"body","mesh":0,"extras":{"blenderAsset":"halo"}},{"name":"mag","mesh":1,"extras":{"blenderAsset":"halo"}},{"name":"bolt","mesh":2,"extras":{"blenderAsset":"halo"}},{"name":"trigger","mesh":3,"extras":{"blenderAsset":"halo"}},{"name":"factory-optic","mesh":4,"extras":{"blenderAsset":"halo"}},{"name":"extra","extras":{"blenderAsset":"halo"},"children":[]},{"name":"grip","extras":{"role":"gameplay mount marker"},"translation":[0.045,0.015,-0.1]},{"name":"muzzle","extras":{"role":"gameplay mount marker"},"translation":[0.0,0.055,-0.71]},{"name":"sight","extras":{"role":"gameplay mount marker"},"translation":[0.0,0.155,-0.1]},{"name":"support","extras":{"role":"gameplay mount marker"},"translation":[-0.055,0.005,-0.42]}],"meshes":[{"name":"body","primitives":[{"attributes":{"POSITION":0,"NORMAL":1,"TEXCOORD_0":2},"indices":3,"material":0},{"attributes":{"POSITION":4,"NORMAL":5,"TEXCOORD_0":6},"indices":7,"material":1},{"attributes":{"POSITION":8,"NORMAL":9,"TEXCOORD_0":10},"indices":11,"material":2},{"attributes":{"POSITION":12,"NORMAL":13,"TEXCOORD_0":14},"indices":15,"material":3},{"attributes":{"POSITION":16,"NORMAL":17,"TEXCOORD_0":18},"indices":19,"material":4},{"attributes":{"POSITION":20,"NORMAL":21,"TEXCOORD_0":22},"indices":23,"material":5},{"attributes":{"POSITION":24,"NORMAL":25,"TEXCOORD_0":26},"indices":27,"material":6},{"attributes":{"POSITION":28,"NORMAL":29,"TEXCOORD_0":30},"indices":31,"material":7}]},{"name":"mag","primitives":[{"attributes":{"POSITION":32,"NORMAL":33,"TEXCOORD_0":34},"indices":35,"material":1},{"attributes":{"POSITION":36,"NORMAL":37,"TEXCOORD_0":38},"indices":39,"material":3},{"attributes":{"POSITION":40,"NORMAL":41,"TEXCOORD_0":42},"indices":43,"material":6}]},{"name":"bolt","primitives":[{"attributes":{"POSITION":44,"NORMAL":45,"TEXCOORD_0":46},"indices":47,"material":0},{"attributes":{"POSITION":48,"NORMAL":49,"TEXCOORD_0":50},"indices":51,"material":1},{"attributes":{"POSITION":52,"NORMAL":53,"TEXCOORD_0":54},"indices":55,"material":5},{"attributes":{"POSITION":56,"NORMAL":57,"TEXCOORD_0":58},"indices":59,"material":6}]},{"name":"trigger","primitives":[{"attributes":{"POSITION":60,"NORMAL":61,"TEXCOORD_0":62},"indices":63,"material":0},{"attributes":{"POSITION":64,"NORMAL":65,"TEXCOORD_0":66},"indices":67,"material":1}]},{"name":"factory-optic","primitives":[{"attributes":{"POSITION":68,"NORMAL":69,"TEXCOORD_0":70},"indices":71,"material":0},{"attributes":{"POSITION":72,"NORMAL":73,"TEXCOORD_0":74},"indices":75,"material":3},{"attributes":{"POSITION":76,"NORMAL":77,"TEXCOORD_0":78},"indices":79,"material":6}]}],"materials":[{"name":"HALO | gunmetal","pbrMetallicRoughness":{"baseColorFactor":[1,1,1,1],"metallicFactor":0.35,"roughnessFactor":0.53,"baseColorTexture":{"index":6}},"extras":{"partMaterial":"gunmetal","textureLibrary":"phosphated-steel","textureBumpScale":0.0003}},{"name":"HALO | copper rail","pbrMetallicRoughness":{"baseColorFactor":[1,1,1,1],"metallicFactor":0.58,"roughnessFactor":0.43,"baseColorTexture":{"index":7}},"extras":{"partMaterial":"copper rail","textureLibrary":"aged-copper","textureBumpScale":0.0002}},{"name":"HALO | tan webbing","pbrMetallicRoughness":{"baseColorFactor":[1,1,1,1],"metallicFactor":0,"roughnessFactor":0.9,"baseColorTexture":{"index":8}},"extras":{"partMaterial":"tan webbing","textureLibrary":"tan-webbing","textureBumpScale":0.00065}},{"name":"HALO | dark polymer","pbrMetallicRoughness":{"baseColorFactor":[1,1,1,1],"metallicFactor":0.02,"roughnessFactor":0.7,"baseColorTexture":{"index":9}},"extras":{"partMaterial":"dark polymer","textureLibrary":"molded-polymer","textureBumpScale":0.00055}},{"name":"HALO | rubber","pbrMetallicRoughness":{"baseColorFactor":[1,1,1,1],"metallicFactor":0,"roughnessFactor":0.84,"baseColorTexture":{"index":10}},"extras":{"partMaterial":"rubber","textureLibrary":"pebbled-rubber","textureBumpScale":0.0008}},{"name":"HALO | blued steel","pbrMetallicRoughness":{"baseColorFactor":[1,1,1,1],"metallicFactor":0.4,"roughnessFactor":0.46,"baseColorTexture":{"index":11}},"extras":{"partMaterial":"blued steel","textureLibrary":"blued-steel","textureBumpScale":0.00025}},{"name":"HALO | coil glow","pbrMetallicRoughness":{"baseColorFactor":[0.01,0.06,0.09,1.0],"metallicFactor":0.0,"roughnessFactor":0.3499999940395355},"extras":{"partMaterial":"coil glow","cosmeticGlow":true},"emissiveFactor":[0.05500000201165678,0.7700000035762784,0.9899999952316278]},{"name":"HALO | ivory coating","pbrMetallicRoughness":{"baseColorFactor":[1,1,1,1],"metallicFactor":0.08,"roughnessFactor":0.62,"baseColorTexture":{"index":12}},"extras":{"partMaterial":"ivory coating","textureLibrary":"ivory-ceramic","textureBumpScale":0.0003}}],"images":[{"uri":"textures/ivory-armor.jpg"},{"uri":"textures/orange-painted-metal.jpg"},{"uri":"textures/petrol-ballistic-fabric.jpg"},{"uri":"textures/tan-webbing.jpg"},{"uri":"textures/worn-gunmetal.jpg"},{"uri":"textures/worn-rubber.jpg"},{"uri":"textures/palette/phosphated-steel.jpg","name":"textures/palette/phosphated-steel.jpg"},{"uri":"textures/palette/aged-copper.jpg","name":"textures/palette/aged-copper.jpg"},{"uri":"textures/palette/tan-webbing.jpg","name":"textures/palette/tan-webbing.jpg"},{"uri":"textures/palette/molded-polymer.jpg","name":"textures/palette/molded-polymer.jpg"},{"uri":"textures/palette/pebbled-rubber.jpg","name":"textures/palette/pebbled-rubber.jpg"},{"uri":"textures/palette/blued-steel.jpg","name":"textures/palette/blued-steel.jpg"},{"uri":"textures/palette/ivory-ceramic.jpg","name":"textures/palette/ivory-ceramic.jpg"}],"textures":[{"source":0,"sampler":0},{"source":1,"sampler":0},{"source":2,"sampler":0},{"source":3,"sampler":0},{"source":4,"sampler":0},{"source":5,"sampler":0},{"source":6,"sampler":0},{"source":7,"sampler":0},{"source":8,"sampler":0},{"source":9,"sampler":0},{"source":10,"sampler":0},{"source":11,"sampler":0},{"source":12,"sampler":0}],"samplers":[{"magFilter":9729,"minFilter":9987,"wrapS":10497,"wrapT":10497}],"buffers":[{"uri":"halo.bin","byteLength":894256}],"bufferViews":[{"buffer":0,"byteOffset":0,"byteLength":59808,"target":34962},{"buffer":0,"byteOffset":59808,"byteLength":59808,"target":34962},{"buffer":0,"byteOffset":119616,"byteLength":39872,"target":34962},{"buffer":0,"byteOffset":159488,"byteLength":37392,"target":34963},{"buffer":0,"byteOffset":196880,"byteLength":21888,"target":34962},{"buffer":0,"byteOffset":218768,"byteLength":21888,"target":34962},{"buffer":0,"byteOffset":240656,"byteLength":14592,"target":34962},{"buffer":0,"byteOffset":255248,"byteLength":13056,"target":34963},{"buffer":0,"byteOffset":268304,"byteLength":5184,"target":34962},{"buffer":0,"byteOffset":273488,"byteLength":5184,"target":34962},{"buffer":0,"byteOffset":278672,"byteLength":3456,"target":34962},{"buffer":0,"byteOffset":282128,"byteLength":2592,"target":34963},{"buffer":0,"byteOffset":284720,"byteLength":32160,"target":34962},{"buffer":0,"byteOffset":316880,"byteLength":32160,"target":34962},{"buffer":0,"byteOffset":349040,"byteLength":21440,"target":34962},{"buffer":0,"byteOffset":370480,"byteLength":16128,"target":34963},{"buffer":0,"byteOffset":386608,"byteLength":64824,"target":34962},{"buffer":0,"byteOffset":451432,"byteLength":64824,"target":34962},{"buffer":0,"byteOffset":516256,"byteLength":43216,"target":34962},{"buffer":0,"byteOffset":559472,"byteLength":34656,"target":34963},{"buffer":0,"byteOffset":594128,"byteLength":10368,"target":34962},{"buffer":0,"byteOffset":604496,"byteLength":10368,"target":34962},{"buffer":0,"byteOffset":614864,"byteLength":6912,"target":34962},{"buffer":0,"byteOffset":621776,"byteLength":5328,"target":34963},{"buffer":0,"byteOffset":627104,"byteLength":16128,"target":34962},{"buffer":0,"byteOffset":643232,"byteLength":16128,"target":34962},{"buffer":0,"byteOffset":659360,"byteLength":10752,"target":34962},{"buffer":0,"byteOffset":670112,"byteLength":8640,"target":34963},{"buffer":0,"byteOffset":678752,"byteLength":10272,"target":34962},{"buffer":0,"byteOffset":689024,"byteLength":10272,"target":34962},{"buffer":0,"byteOffset":699296,"byteLength":6848,"target":34962},{"buffer":0,"byteOffset":706144,"byteLength":7104,"target":34963},{"buffer":0,"byteOffset":713248,"byteLength":7776,"target":34962},{"buffer":0,"byteOffset":721024,"byteLength":7776,"target":34962},{"buffer":0,"byteOffset":728800,"byteLength":5184,"target":34962},{"buffer":0,"byteOffset":733984,"byteLength":3888,"target":34963},{"buffer":0,"byteOffset":737872,"byteLength":5184,"target":34962},{"buffer":0,"byteOffset":743056,"byteLength":5184,"target":34962},{"buffer":0,"byteOffset":748240,"byteLength":3456,"target":34962},{"buffer":0,"byteOffset":751696,"byteLength":2592,"target":34963},{"buffer":0,"byteOffset":754288,"byteLength":864,"target":34962},{"buffer":0,"byteOffset":755152,"byteLength":864,"target":34962},{"buffer":0,"byteOffset":756016,"byteLength":576,"target":34962},{"buffer":0,"byteOffset":756592,"byteLength":432,"target":34963},{"buffer":0,"byteOffset":757024,"byteLength":11376,"target":34962},{"buffer":0,"byteOffset":768400,"byteLength":11376,"target":34962},{"buffer":0,"byteOffset":779776,"byteLength":7584,"target":34962},{"buffer":0,"byteOffset":787360,"byteLength":6096,"target":34963},{"buffer":0,"byteOffset":793456,"byteLength":5184,"target":34962},{"buffer":0,"byteOffset":798640,"byteLength":5184,"target":34962},{"buffer":0,"byteOffset":803824,"byteLength":3456,"target":34962},{"buffer":0,"byteOffset":807280,"byteLength":2592,"target":34963},{"buffer":0,"byteOffset":809872,"byteLength":2592,"target":34962},{"buffer":0,"byteOffset":812464,"byteLength":2592,"target":34962},{"buffer":0,"byteOffset":815056,"byteLength":1728,"target":34962},{"buffer":0,"byteOffset":816784,"byteLength":1296,"target":34963},{"buffer":0,"byteOffset":818080,"byteLength":288,"target":34962},{"buffer":0,"byteOffset":818368,"byteLength":288,"target":34962},{"buffer":0,"byteOffset":818656,"byteLength":192,"target":34962},{"buffer":0,"byteOffset":818848,"byteLength":144,"target":34963},{"buffer":0,"byteOffset":818992,"byteLength":7776,"target":34962},{"buffer":0,"byteOffset":826768,"byteLength":7776,"target":34962},{"buffer":0,"byteOffset":834544,"byteLength":5184,"target":34962},{"buffer":0,"byteOffset":839728,"byteLength":3984,"target":34963},{"buffer":0,"byteOffset":843712,"byteLength":2592,"target":34962},{"buffer":0,"byteOffset":846304,"byteLength":2592,"target":34962},{"buffer":0,"byteOffset":848896,"byteLength":1728,"target":34962},{"buffer":0,"byteOffset":850624,"byteLength":1296,"target":34963},{"buffer":0,"byteOffset":851920,"byteLength":10368,"target":34962},{"buffer":0,"byteOffset":862288,"byteLength":10368,"target":34962},{"buffer":0,"byteOffset":872656,"byteLength":6912,"target":34962},{"buffer":0,"byteOffset":879568,"byteLength":5568,"target":34963},{"buffer":0,"byteOffset":885136,"byteLength":2592,"target":34962},{"buffer":0,"byteOffset":887728,"byteLength":2592,"target":34962},{"buffer":0,"byteOffset":890320,"byteLength":1728,"target":34962},{"buffer":0,"byteOffset":892048,"byteLength":1296,"target":34963},{"buffer":0,"byteOffset":893344,"byteLength":288,"target":34962},{"buffer":0,"byteOffset":893632,"byteLength":288,"target":34962},{"buffer":0,"byteOffset":893920,"byteLength":192,"target":34962},{"buffer":0,"byteOffset":894112,"byteLength":144,"target":34963}],"accessors":[{"bufferView":0,"componentType":5126,"count":4984,"type":"VEC3","min":[-0.049,-0.137246,-0.71],"max":[0.049,0.127,0.177]},{"bufferView":1,"componentType":5126,"count":4984,"type":"VEC3"},{"bufferView":2,"componentType":5126,"count":4984,"type":"VEC2"},{"bufferView":3,"componentType":5125,"count":9348,"type":"SCALAR"},{"bufferView":4,"componentType":5126,"count":1824,"type":"VEC3","min":[-0.05,-0.011,-0.711],"max":[0.05,0.0875,0.214]},{"bufferView":5,"componentType":5126,"count":1824,"type":"VEC3"},{"bufferView":6,"componentType":5126,"count":1824,"type":"VEC2"},{"bufferView":7,"componentType":5125,"count":3264,"type":"SCALAR"},{"bufferView":8,"componentType":5126,"count":432,"type":"VEC3","min":[0.022,0.046,0.146],"max":[0.042,0.07,0.194]},{"bufferView":9,"componentType":5126,"count":432,"type":"VEC3"},{"bufferView":10,"componentType":5126,"count":432,"type":"VEC2"},{"bufferView":11,"componentType":5125,"count":648,"type":"SCALAR"},{"bufferView":12,"componentType":5126,"count":2680,"type":"VEC3","min":[-0.044,-0.126943,-0.44],"max":[0.044,0.068,0.264]},{"bufferView":13,"componentType":5126,"count":2680,"type":"VEC3"},{"bufferView":14,"componentType":5126,"count":2680,"type":"VEC2"},{"bufferView":15,"componentType":5125,"count":4032,"type":"SCALAR"},{"bufferView":16,"componentType":5126,"count":5402,"type":"VEC3","min":[-0.043,-0.075,-0.7095],"max":[0.043,0.0872,0.276]},{"bufferView":17,"componentType":5126,"count":5402,"type":"VEC3"},{"bufferView":18,"componentType":5126,"count":5402,"type":"VEC2"},{"bufferView":19,"componentType":5125,"count":8664,"type":"SCALAR"},{"bufferView":20,"componentType":5126,"count":864,"type":"VEC3","min":[-0.032,-0.01144,-0.225],"max":[0.051,0.131,0.252]},{"bufferView":21,"componentType":5126,"count":864,"type":"VEC3"},{"bufferView":22,"componentType":5126,"count":864,"type":"VEC2"},{"bufferView":23,"componentType":5125,"count":1332,"type":"SCALAR"},{"bufferView":24,"componentType":5126,"count":1344,"type":"VEC3","min":[-0.051,0.006,-0.421],"max":[0.031,0.086,-0.16]},{"bufferView":25,"componentType":5126,"count":1344,"type":"VEC3"},{"bufferView":26,"componentType":5126,"count":1344,"type":"VEC2"},{"bufferView":27,"componentType":5125,"count":2160,"type":"SCALAR"},{"bufferView":28,"componentType":5126,"count":856,"type":"VEC3","min":[-0.0507,-0.001245,-0.12875],"max":[0.0507,0.006106,0.021007]},{"bufferView":29,"componentType":5126,"count":856,"type":"VEC3"},{"bufferView":30,"componentType":5126,"count":856,"type":"VEC2"},{"bufferView":31,"componentType":5125,"count":1776,"type":"SCALAR"},{"bufferView":32,"componentType":5126,"count":648,"type":"VEC3","min":[-0.03,-0.171,-0.178],"max":[0.03,-0.024,-0.162]},{"bufferView":33,"componentType":5126,"count":648,"type":"VEC3"},{"bufferView":34,"componentType":5126,"count":648,"type":"VEC2"},{"bufferView":35,"componentType":5125,"count":972,"type":"SCALAR"},{"bufferView":36,"componentType":5126,"count":432,"type":"VEC3","min":[-0.034,-0.169,-0.205],"max":[0.034,-0.035,-0.135]},{"bufferView":37,"componentType":5126,"count":432,"type":"VEC3"},{"bufferView":38,"componentType":5126,"count":432,"type":"VEC2"},{"bufferView":39,"componentType":5125,"count":648,"type":"SCALAR"},{"bufferView":40,"componentType":5126,"count":72,"type":"VEC3","min":[-0.025,-0.116,-0.208],"max":[0.025,-0.068,-0.198]},{"bufferView":41,"componentType":5126,"count":72,"type":"VEC3"},{"bufferView":42,"componentType":5126,"count":72,"type":"VEC2"},{"bufferView":43,"componentType":5125,"count":108,"type":"SCALAR"},{"bufferView":44,"componentType":5126,"count":948,"type":"VEC3","min":[-0.103,0.032783,-0.045547],"max":[-0.013,0.063217,-0.014453]},{"bufferView":45,"componentType":5126,"count":948,"type":"VEC3"},{"bufferView":46,"componentType":5126,"count":948,"type":"VEC2"},{"bufferView":47,"componentType":5125,"count":1524,"type":"SCALAR"},{"bufferView":48,"componentType":5126,"count":432,"type":"VEC3","min":[-0.037,0.02,-0.04],"max":[0.037,0.076,-0.02]},{"bufferView":49,"componentType":5126,"count":432,"type":"VEC3"},{"bufferView":50,"componentType":5126,"count":432,"type":"VEC2"},{"bufferView":51,"componentType":5125,"count":648,"type":"SCALAR"},{"bufferView":52,"componentType":5126,"count":216,"type":"VEC3","min":[-0.026,0.026,-0.055],"max":[0.026,0.066,-0.005]},{"bufferView":53,"componentType":5126,"count":216,"type":"VEC3"},{"bufferView":54,"componentType":5126,"count":216,"type":"VEC2"},{"bufferView":55,"componentType":5125,"count":324,"type":"SCALAR"},{"bufferView":56,"componentType":5126,"count":24,"type":"VEC3","min":[-0.015,0.063,-0.038],"max":[0.015,0.073,-0.03]},{"bufferView":57,"componentType":5126,"count":24,"type":"VEC3"},{"bufferView":58,"componentType":5126,"count":24,"type":"VEC2"},{"bufferView":59,"componentType":5125,"count":36,"type":"SCALAR"},{"bufferView":60,"componentType":5126,"count":648,"type":"VEC3","min":[-0.015,-0.07,-0.18],"max":[0.015,0.008,-0.095]},{"bufferView":61,"componentType":5126,"count":648,"type":"VEC3"},{"bufferView":62,"componentType":5126,"count":648,"type":"VEC2"},{"bufferView":63,"componentType":5125,"count":996,"type":"SCALAR"},{"bufferView":64,"componentType":5126,"count":216,"type":"VEC3","min":[-0.006,-0.021328,-0.149894],"max":[0.006,-0.006672,-0.140106]},{"bufferView":65,"componentType":5126,"count":216,"type":"VEC3"},{"bufferView":66,"componentType":5126,"count":216,"type":"VEC2"},{"bufferView":67,"componentType":5125,"count":324,"type":"SCALAR"},{"bufferView":68,"componentType":5126,"count":864,"type":"VEC3","min":[-0.0235,0.076,-0.7],"max":[0.0235,0.175,0.108]},{"bufferView":69,"componentType":5126,"count":864,"type":"VEC3"},{"bufferView":70,"componentType":5126,"count":864,"type":"VEC2"},{"bufferView":71,"componentType":5125,"count":1392,"type":"SCALAR"},{"bufferView":72,"componentType":5126,"count":216,"type":"VEC3","min":[-0.024,0.16,0.084],"max":[0.024,0.168,0.092]},{"bufferView":73,"componentType":5126,"count":216,"type":"VEC3"},{"bufferView":74,"componentType":5126,"count":216,"type":"VEC2"},{"bufferView":75,"componentType":5125,"count":324,"type":"SCALAR"},{"bufferView":76,"componentType":5126,"count":24,"type":"VEC3","min":[-0.004,0.151,-0.692],"max":[0.004,0.159,-0.684]},{"bufferView":77,"componentType":5126,"count":24,"type":"VEC3"},{"bufferView":78,"componentType":5126,"count":24,"type":"VEC2"},{"bufferView":79,"componentType":5125,"count":36,"type":"SCALAR"}]}
