{"asset":{"version":"2.0","generator":"Voxel Blitz Blender runtime export"},"scene":0,"scenes":[{"nodes":[0,1,2,3,4]}],"nodes":[{"name":"grip","mesh":0,"extras":{"blenderAsset":"hands"}},{"name":"support","mesh":1,"extras":{"blenderAsset":"hands"}},{"name":"forearm","mesh":2,"extras":{"blenderAsset":"hands"}},{"name":"upperarm","mesh":3,"extras":{"blenderAsset":"hands"}},{"name":"shoulder","mesh":4,"extras":{"blenderAsset":"hands"}}],"meshes":[{"name":"grip","primitives":[{"attributes":{"POSITION":0,"NORMAL":1,"TEXCOORD_0":2},"indices":3,"material":0},{"attributes":{"POSITION":4,"NORMAL":5,"TEXCOORD_0":6},"indices":7,"material":1},{"attributes":{"POSITION":8,"NORMAL":9,"TEXCOORD_0":10},"indices":11,"material":2},{"attributes":{"POSITION":12,"NORMAL":13,"TEXCOORD_0":14},"indices":15,"material":4},{"attributes":{"POSITION":16,"NORMAL":17,"TEXCOORD_0":18},"indices":19,"material":5},{"attributes":{"POSITION":20,"NORMAL":21,"TEXCOORD_0":22},"indices":23,"material":6}]},{"name":"support","primitives":[{"attributes":{"POSITION":24,"NORMAL":25,"TEXCOORD_0":26},"indices":27,"material":0},{"attributes":{"POSITION":28,"NORMAL":29,"TEXCOORD_0":30},"indices":31,"material":1},{"attributes":{"POSITION":32,"NORMAL":33,"TEXCOORD_0":34},"indices":35,"material":2},{"attributes":{"POSITION":36,"NORMAL":37,"TEXCOORD_0":38},"indices":39,"material":4},{"attributes":{"POSITION":40,"NORMAL":41,"TEXCOORD_0":42},"indices":43,"material":5},{"attributes":{"POSITION":44,"NORMAL":45,"TEXCOORD_0":46},"indices":47,"material":6}]},{"name":"forearm","primitives":[{"attributes":{"POSITION":48,"NORMAL":49,"TEXCOORD_0":50},"indices":51,"material":0},{"attributes":{"POSITION":52,"NORMAL":53,"TEXCOORD_0":54},"indices":55,"material":1},{"attributes":{"POSITION":56,"NORMAL":57,"TEXCOORD_0":58},"indices":59,"material":2},{"attributes":{"POSITION":60,"NORMAL":61,"TEXCOORD_0":62},"indices":63,"material":3},{"attributes":{"POSITION":64,"NORMAL":65,"TEXCOORD_0":66},"indices":67,"material":4}]},{"name":"upperarm","primitives":[{"attributes":{"POSITION":68,"NORMAL":69,"TEXCOORD_0":70},"indices":71,"material":0},{"attributes":{"POSITION":72,"NORMAL":73,"TEXCOORD_0":74},"indices":75,"material":1},{"attributes":{"POSITION":76,"NORMAL":77,"TEXCOORD_0":78},"indices":79,"material":2},{"attributes":{"POSITION":80,"NORMAL":81,"TEXCOORD_0":82},"indices":83,"material":3},{"attributes":{"POSITION":84,"NORMAL":85,"TEXCOORD_0":86},"indices":87,"material":4}]},{"name":"shoulder","primitives":[{"attributes":{"POSITION":88,"NORMAL":89,"TEXCOORD_0":90},"indices":91,"material":0},{"attributes":{"POSITION":92,"NORMAL":93,"TEXCOORD_0":94},"indices":95,"material":1},{"attributes":{"POSITION":96,"NORMAL":97,"TEXCOORD_0":98},"indices":99,"material":3},{"attributes":{"POSITION":100,"NORMAL":101,"TEXCOORD_0":102},"indices":103,"material":6}]}],"materials":[{"name":"HANDS | ceramic armor","pbrMetallicRoughness":{"baseColorFactor":[0.9046611743911496,0.8879231178819663,0.8227857543962835,1],"metallicFactor":0.11999999731779099,"roughnessFactor":0.4000000059604645,"baseColorTexture":{"index":2}},"extras":{"partMaterial":"ceramic armor"}},{"name":"HANDS | knuckle plate","pbrMetallicRoughness":{"baseColorFactor":[1.0,1.0,1.0,1],"metallicFactor":0.2199999988079071,"roughnessFactor":0.3799999952316284,"baseColorTexture":{"index":1}},"extras":{"partMaterial":"knuckle plate"}},{"name":"HANDS | glove leather","pbrMetallicRoughness":{"baseColorFactor":[0.1946178304415758,0.21586050011389926,0.24620132670783548,1],"metallicFactor":0.0,"roughnessFactor":0.800000011920929,"baseColorTexture":{"index":5}},"extras":{"partMaterial":"glove leather"}},{"name":"HANDS | suit fabric","pbrMetallicRoughness":{"baseColorFactor":[0.45641102318040466,0.5149176653765214,0.5520114015120001,1],"metallicFactor":0.0,"roughnessFactor":0.8799999952316284,"baseColorTexture":{"index":3}},"extras":{"partMaterial":"suit fabric"}},{"name":"HANDS | webbing","pbrMetallicRoughness":{"baseColorFactor":[0.43415363617474895,0.32314320911295075,0.16826940018969075,1],"metallicFactor":0.0,"roughnessFactor":0.8999999761581421,"baseColorTexture":{"index":4}},"extras":{"partMaterial":"webbing"}},{"name":"HANDS | skin","pbrMetallicRoughness":{"baseColorFactor":[0.6938717612919899,0.35153259950043936,0.20155625379439707,1],"metallicFactor":0.0,"roughnessFactor":0.6200000047683716,"baseColorTexture":{"index":2}},"extras":{"partMaterial":"skin"}},{"name":"HANDS | hardware","pbrMetallicRoughness":{"baseColorFactor":[0.6866853124353135,0.7156935005064807,0.7454042095403874,1],"metallicFactor":0.699999988079071,"roughnessFactor":0.36000001430511475,"baseColorTexture":{"index":0}},"extras":{"partMaterial":"hardware"}}],"images":[{"uri":"textures/worn-gunmetal.jpg"},{"uri":"textures/orange-painted-metal.jpg"},{"uri":"textures/ivory-armor.jpg"},{"uri":"textures/petrol-ballistic-fabric.jpg"},{"uri":"textures/tan-webbing.jpg"},{"uri":"textures/worn-rubber.jpg"}],"textures":[{"source":0,"sampler":0},{"source":1,"sampler":0},{"source":2,"sampler":0},{"source":3,"sampler":0},{"source":4,"sampler":0},{"source":5,"sampler":0}],"samplers":[{"magFilter":9729,"minFilter":9987,"wrapS":10497,"wrapT":10497}],"buffers":[{"uri":"hands.bin","byteLength":1260416}],"bufferViews":[{"buffer":0,"byteOffset":0,"byteLength":12960,"target":34962},{"buffer":0,"byteOffset":12960,"byteLength":12960,"target":34962},{"buffer":0,"byteOffset":25920,"byteLength":8640,"target":34962},{"buffer":0,"byteOffset":34560,"byteLength":6480,"target":34963},{"buffer":0,"byteOffset":41040,"byteLength":12960,"target":34962},{"buffer":0,"byteOffset":54000,"byteLength":12960,"target":34962},{"buffer":0,"byteOffset":66960,"byteLength":8640,"target":34962},{"buffer":0,"byteOffset":75600,"byteLength":6480,"target":34963},{"buffer":0,"byteOffset":82080,"byteLength":77952,"target":34962},{"buffer":0,"byteOffset":160032,"byteLength":77952,"target":34962},{"buffer":0,"byteOffset":237984,"byteLength":51968,"target":34962},{"buffer":0,"byteOffset":289952,"byteLength":38304,"target":34963},{"buffer":0,"byteOffset":328256,"byteLength":3648,"target":34962},{"buffer":0,"byteOffset":331904,"byteLength":3648,"target":34962},{"buffer":0,"byteOffset":335552,"byteLength":2432,"target":34962},{"buffer":0,"byteOffset":337984,"byteLength":1872,"target":34963},{"buffer":0,"byteOffset":339856,"byteLength":41472,"target":34962},{"buffer":0,"byteOffset":381328,"byteLength":41472,"target":34962},{"buffer":0,"byteOffset":422800,"byteLength":27648,"target":34962},{"buffer":0,"byteOffset":450448,"byteLength":20304,"target":34963},{"buffer":0,"byteOffset":470752,"byteLength":5184,"target":34962},{"buffer":0,"byteOffset":475936,"byteLength":5184,"target":34962},{"buffer":0,"byteOffset":481120,"byteLength":3456,"target":34962},{"buffer":0,"byteOffset":484576,"byteLength":2592,"target":34963},{"buffer":0,"byteOffset":487168,"byteLength":12960,"target":34962},{"buffer":0,"byteOffset":500128,"byteLength":12960,"target":34962},{"buffer":0,"byteOffset":513088,"byteLength":8640,"target":34962},{"buffer":0,"byteOffset":521728,"byteLength":6480,"target":34963},{"buffer":0,"byteOffset":528208,"byteLength":12960,"target":34962},{"buffer":0,"byteOffset":541168,"byteLength":12960,"target":34962},{"buffer":0,"byteOffset":554128,"byteLength":8640,"target":34962},{"buffer":0,"byteOffset":562768,"byteLength":6480,"target":34963},{"buffer":0,"byteOffset":569248,"byteLength":77952,"target":34962},{"buffer":0,"byteOffset":647200,"byteLength":77952,"target":34962},{"buffer":0,"byteOffset":725152,"byteLength":51968,"target":34962},{"buffer":0,"byteOffset":777120,"byteLength":38304,"target":34963},{"buffer":0,"byteOffset":815424,"byteLength":3648,"target":34962},{"buffer":0,"byteOffset":819072,"byteLength":3648,"target":34962},{"buffer":0,"byteOffset":822720,"byteLength":2432,"target":34962},{"buffer":0,"byteOffset":825152,"byteLength":1872,"target":34963},{"buffer":0,"byteOffset":827024,"byteLength":41472,"target":34962},{"buffer":0,"byteOffset":868496,"byteLength":41472,"target":34962},{"buffer":0,"byteOffset":909968,"byteLength":27648,"target":34962},{"buffer":0,"byteOffset":937616,"byteLength":20304,"target":34963},{"buffer":0,"byteOffset":957920,"byteLength":5184,"target":34962},{"buffer":0,"byteOffset":963104,"byteLength":5184,"target":34962},{"buffer":0,"byteOffset":968288,"byteLength":3456,"target":34962},{"buffer":0,"byteOffset":971744,"byteLength":2592,"target":34963},{"buffer":0,"byteOffset":974336,"byteLength":4608,"target":34962},{"buffer":0,"byteOffset":978944,"byteLength":4608,"target":34962},{"buffer":0,"byteOffset":983552,"byteLength":3072,"target":34962},{"buffer":0,"byteOffset":986624,"byteLength":2256,"target":34963},{"buffer":0,"byteOffset":988880,"byteLength":2592,"target":34962},{"buffer":0,"byteOffset":991472,"byteLength":2592,"target":34962},{"buffer":0,"byteOffset":994064,"byteLength":1728,"target":34962},{"buffer":0,"byteOffset":995792,"byteLength":1296,"target":34963},{"buffer":0,"byteOffset":997088,"byteLength":9792,"target":34962},{"buffer":0,"byteOffset":1006880,"byteLength":9792,"target":34962},{"buffer":0,"byteOffset":1016672,"byteLength":6528,"target":34962},{"buffer":0,"byteOffset":1023200,"byteLength":4896,"target":34963},{"buffer":0,"byteOffset":1028096,"byteLength":18432,"target":34962},{"buffer":0,"byteOffset":1046528,"byteLength":18432,"target":34962},{"buffer":0,"byteOffset":1064960,"byteLength":12288,"target":34962},{"buffer":0,"byteOffset":1077248,"byteLength":9120,"target":34963},{"buffer":0,"byteOffset":1086368,"byteLength":5184,"target":34962},{"buffer":0,"byteOffset":1091552,"byteLength":5184,"target":34962},{"buffer":0,"byteOffset":1096736,"byteLength":3456,"target":34962},{"buffer":0,"byteOffset":1100192,"byteLength":2640,"target":34963},{"buffer":0,"byteOffset":1102832,"byteLength":4608,"target":34962},{"buffer":0,"byteOffset":1107440,"byteLength":4608,"target":34962},{"buffer":0,"byteOffset":1112048,"byteLength":3072,"target":34962},{"buffer":0,"byteOffset":1115120,"byteLength":2256,"target":34963},{"buffer":0,"byteOffset":1117376,"byteLength":2592,"target":34962},{"buffer":0,"byteOffset":1119968,"byteLength":2592,"target":34962},{"buffer":0,"byteOffset":1122560,"byteLength":1728,"target":34962},{"buffer":0,"byteOffset":1124288,"byteLength":1296,"target":34963},{"buffer":0,"byteOffset":1125584,"byteLength":9216,"target":34962},{"buffer":0,"byteOffset":1134800,"byteLength":9216,"target":34962},{"buffer":0,"byteOffset":1144016,"byteLength":6144,"target":34962},{"buffer":0,"byteOffset":1150160,"byteLength":4560,"target":34963},{"buffer":0,"byteOffset":1154720,"byteLength":9216,"target":34962},{"buffer":0,"byteOffset":1163936,"byteLength":9216,"target":34962},{"buffer":0,"byteOffset":1173152,"byteLength":6144,"target":34962},{"buffer":0,"byteOffset":1179296,"byteLength":4560,"target":34963},{"buffer":0,"byteOffset":1183856,"byteLength":5184,"target":34962},{"buffer":0,"byteOffset":1189040,"byteLength":5184,"target":34962},{"buffer":0,"byteOffset":1194224,"byteLength":3456,"target":34962},{"buffer":0,"byteOffset":1197680,"byteLength":2640,"target":34963},{"buffer":0,"byteOffset":1200320,"byteLength":2592,"target":34962},{"buffer":0,"byteOffset":1202912,"byteLength":2592,"target":34962},{"buffer":0,"byteOffset":1205504,"byteLength":1728,"target":34962},{"buffer":0,"byteOffset":1207232,"byteLength":1296,"target":34963},{"buffer":0,"byteOffset":1208528,"byteLength":4608,"target":34962},{"buffer":0,"byteOffset":1213136,"byteLength":4608,"target":34962},{"buffer":0,"byteOffset":1217744,"byteLength":3072,"target":34962},{"buffer":0,"byteOffset":1220816,"byteLength":2256,"target":34963},{"buffer":0,"byteOffset":1223072,"byteLength":9216,"target":34962},{"buffer":0,"byteOffset":1232288,"byteLength":9216,"target":34962},{"buffer":0,"byteOffset":1241504,"byteLength":6144,"target":34962},{"buffer":0,"byteOffset":1247648,"byteLength":4560,"target":34963},{"buffer":0,"byteOffset":1252208,"byteLength":2592,"target":34962},{"buffer":0,"byteOffset":1254800,"byteLength":2592,"target":34962},{"buffer":0,"byteOffset":1257392,"byteLength":1728,"target":34962},{"buffer":0,"byteOffset":1259120,"byteLength":1296,"target":34963}],"accessors":[{"bufferView":0,"componentType":5126,"count":1080,"type":"VEC3","min":[-0.0364,-0.02028,-0.065164],"max":[0.035418,0.021901,0.014]},{"bufferView":1,"componentType":5126,"count":1080,"type":"VEC3"},{"bufferView":2,"componentType":5126,"count":1080,"type":"VEC2"},{"bufferView":3,"componentType":5125,"count":1620,"type":"SCALAR"},{"bufferView":4,"componentType":5126,"count":1080,"type":"VEC3","min":[-0.038713,0.012144,-0.052],"max":[0.038713,0.0235,-0.026]},{"bufferView":5,"componentType":5126,"count":1080,"type":"VEC3"},{"bufferView":6,"componentType":5126,"count":1080,"type":"VEC2"},{"bufferView":7,"componentType":5125,"count":1620,"type":"SCALAR"},{"bufferView":8,"componentType":5126,"count":6496,"type":"VEC3","min":[-0.054472,-0.039995,-0.065497],"max":[0.04045,0.01645,0.076]},{"bufferView":9,"componentType":5126,"count":6496,"type":"VEC3"},{"bufferView":10,"componentType":5126,"count":6496,"type":"VEC2"},{"bufferView":11,"componentType":5125,"count":9576,"type":"SCALAR"},{"bufferView":12,"componentType":5126,"count":304,"type":"VEC3","min":[-0.034738,-0.01626,0.028],"max":[0.034738,0.01626,0.044]},{"bufferView":13,"componentType":5126,"count":304,"type":"VEC3"},{"bufferView":14,"componentType":5126,"count":304,"type":"VEC2"},{"bufferView":15,"componentType":5125,"count":468,"type":"SCALAR"},{"bufferView":16,"componentType":5126,"count":3456,"type":"VEC3","min":[-0.037798,-0.042346,-0.061226],"max":[0.036954,-0.014464,-0.012326]},{"bufferView":17,"componentType":5126,"count":3456,"type":"VEC3"},{"bufferView":18,"componentType":5126,"count":3456,"type":"VEC2"},{"bufferView":19,"componentType":5125,"count":5076,"type":"SCALAR"},{"bufferView":20,"componentType":5126,"count":432,"type":"VEC3","min":[-0.012,0.0135,0.029],"max":[0.033,0.022,0.043]},{"bufferView":21,"componentType":5126,"count":432,"type":"VEC3"},{"bufferView":22,"componentType":5126,"count":432,"type":"VEC2"},{"bufferView":23,"componentType":5125,"count":648,"type":"SCALAR"},{"bufferView":24,"componentType":5126,"count":1080,"type":"VEC3","min":[-0.038409,-0.004661,-0.076169],"max":[0.037009,0.021901,0.014]},{"bufferView":25,"componentType":5126,"count":1080,"type":"VEC3"},{"bufferView":26,"componentType":5126,"count":1080,"type":"VEC2"},{"bufferView":27,"componentType":5125,"count":1620,"type":"SCALAR"},{"bufferView":28,"componentType":5126,"count":1080,"type":"VEC3","min":[-0.038713,0.012144,-0.052],"max":[0.038713,0.0235,-0.026]},{"bufferView":29,"componentType":5126,"count":1080,"type":"VEC3"},{"bufferView":30,"componentType":5126,"count":1080,"type":"VEC2"},{"bufferView":31,"componentType":5125,"count":1620,"type":"SCALAR"},{"bufferView":32,"componentType":5126,"count":6496,"type":"VEC3","min":[-0.086489,-0.022382,-0.083728],"max":[0.040719,0.01645,0.076]},{"bufferView":33,"componentType":5126,"count":6496,"type":"VEC3"},{"bufferView":34,"componentType":5126,"count":6496,"type":"VEC2"},{"bufferView":35,"componentType":5125,"count":9576,"type":"SCALAR"},{"bufferView":36,"componentType":5126,"count":304,"type":"VEC3","min":[-0.034738,-0.01626,0.028],"max":[0.034738,0.01626,0.044]},{"bufferView":37,"componentType":5126,"count":304,"type":"VEC3"},{"bufferView":38,"componentType":5126,"count":304,"type":"VEC2"},{"bufferView":39,"componentType":5125,"count":468,"type":"SCALAR"},{"bufferView":40,"componentType":5126,"count":3456,"type":"VEC3","min":[-0.092391,-0.059405,-0.089466],"max":[0.039185,0.005162,-0.036265]},{"bufferView":41,"componentType":5126,"count":3456,"type":"VEC3"},{"bufferView":42,"componentType":5126,"count":3456,"type":"VEC2"},{"bufferView":43,"componentType":5125,"count":5076,"type":"SCALAR"},{"bufferView":44,"componentType":5126,"count":432,"type":"VEC3","min":[-0.012,0.0135,0.029],"max":[0.033,0.022,0.043]},{"bufferView":45,"componentType":5126,"count":432,"type":"VEC3"},{"bufferView":46,"componentType":5126,"count":432,"type":"VEC2"},{"bufferView":47,"componentType":5125,"count":648,"type":"SCALAR"},{"bufferView":48,"componentType":5126,"count":384,"type":"VEC3","min":[-0.031822,0.017722,0.03],"max":[0.031822,0.04069,0.165]},{"bufferView":49,"componentType":5126,"count":384,"type":"VEC3"},{"bufferView":50,"componentType":5126,"count":384,"type":"VEC2"},{"bufferView":51,"componentType":5125,"count":564,"type":"SCALAR"},{"bufferView":52,"componentType":5126,"count":216,"type":"VEC3","min":[-0.013971,0.028629,0.046],"max":[0.013971,0.043371,0.15]},{"bufferView":53,"componentType":5126,"count":216,"type":"VEC3"},{"bufferView":54,"componentType":5126,"count":216,"type":"VEC2"},{"bufferView":55,"componentType":5125,"count":324,"type":"SCALAR"},{"bufferView":56,"componentType":5126,"count":816,"type":"VEC3","min":[-0.048,-0.034,-0.01],"max":[0.048,0.042,0.332]},{"bufferView":57,"componentType":5126,"count":816,"type":"VEC3"},{"bufferView":58,"componentType":5126,"count":816,"type":"VEC2"},{"bufferView":59,"componentType":5125,"count":1224,"type":"SCALAR"},{"bufferView":60,"componentType":5126,"count":1536,"type":"VEC3","min":[-0.047857,-0.034923,0.008],"max":[0.047857,0.034923,0.276]},{"bufferView":61,"componentType":5126,"count":1536,"type":"VEC3"},{"bufferView":62,"componentType":5126,"count":1536,"type":"VEC2"},{"bufferView":63,"componentType":5125,"count":2280,"type":"SCALAR"},{"bufferView":64,"componentType":5126,"count":432,"type":"VEC3","min":[-0.041113,-0.027254,0.118],"max":[0.041113,0.027254,0.134]},{"bufferView":65,"componentType":5126,"count":432,"type":"VEC3"},{"bufferView":66,"componentType":5126,"count":432,"type":"VEC2"},{"bufferView":67,"componentType":5125,"count":660,"type":"SCALAR"},{"bufferView":68,"componentType":5126,"count":384,"type":"VEC3","min":[-0.036853,0.038605,0.1],"max":[0.036853,0.060332,0.29]},{"bufferView":69,"componentType":5126,"count":384,"type":"VEC3"},{"bufferView":70,"componentType":5126,"count":384,"type":"VEC2"},{"bufferView":71,"componentType":5125,"count":564,"type":"SCALAR"},{"bufferView":72,"componentType":5126,"count":216,"type":"VEC3","min":[-0.016972,0.050561,0.116],"max":[0.016972,0.062839,0.274]},{"bufferView":73,"componentType":5126,"count":216,"type":"VEC3"},{"bufferView":74,"componentType":5126,"count":216,"type":"VEC2"},{"bufferView":75,"componentType":5125,"count":324,"type":"SCALAR"},{"bufferView":76,"componentType":5126,"count":768,"type":"VEC3","min":[-0.046194,-0.042498,-0.024],"max":[0.046194,0.042498,0.024]},{"bufferView":77,"componentType":5126,"count":768,"type":"VEC3"},{"bufferView":78,"componentType":5126,"count":768,"type":"VEC2"},{"bufferView":79,"componentType":5125,"count":1140,"type":"SCALAR"},{"bufferView":80,"componentType":5126,"count":768,"type":"VEC3","min":[-0.049797,-0.047923,0.016],"max":[0.049797,0.047923,0.366]},{"bufferView":81,"componentType":5126,"count":768,"type":"VEC3"},{"bufferView":82,"componentType":5126,"count":768,"type":"VEC2"},{"bufferView":83,"componentType":5125,"count":1140,"type":"SCALAR"},{"bufferView":84,"componentType":5126,"count":432,"type":"VEC3","min":[-0.047118,-0.043422,0.07],"max":[0.047118,0.043422,0.088]},{"bufferView":85,"componentType":5126,"count":432,"type":"VEC3"},{"bufferView":86,"componentType":5126,"count":432,"type":"VEC2"},{"bufferView":87,"componentType":5125,"count":660,"type":"SCALAR"},{"bufferView":88,"componentType":5126,"count":216,"type":"VEC3","min":[-0.067806,0.041558,-0.108],"max":[0.067806,0.056422,0.046]},{"bufferView":89,"componentType":5126,"count":216,"type":"VEC3"},{"bufferView":90,"componentType":5126,"count":216,"type":"VEC2"},{"bufferView":91,"componentType":5125,"count":324,"type":"SCALAR"},{"bufferView":92,"componentType":5126,"count":384,"type":"VEC3","min":[-0.057488,0.04465,-0.1],"max":[0.057488,0.073679,0.04]},{"bufferView":93,"componentType":5126,"count":384,"type":"VEC3"},{"bufferView":94,"componentType":5126,"count":384,"type":"VEC2"},{"bufferView":95,"componentType":5125,"count":564,"type":"SCALAR"},{"bufferView":96,"componentType":5126,"count":768,"type":"VEC3","min":[-0.051507,-0.049659,-0.095],"max":[0.051507,0.049659,0.025]},{"bufferView":97,"componentType":5126,"count":768,"type":"VEC3"},{"bufferView":98,"componentType":5126,"count":768,"type":"VEC2"},{"bufferView":99,"componentType":5125,"count":1140,"type":"SCALAR"},{"bufferView":100,"componentType":5126,"count":216,"type":"VEC3","min":[-0.011,0.066,-0.041],"max":[0.011,0.074,-0.019]},{"bufferView":101,"componentType":5126,"count":216,"type":"VEC3"},{"bufferView":102,"componentType":5126,"count":216,"type":"VEC2"},{"bufferView":103,"componentType":5125,"count":324,"type":"SCALAR"}]}
