{"asset":{"version":"2.0","generator":"Voxel Blitz Blender runtime export"},"scene":0,"scenes":[{"nodes":[0,1,2,3,4,5,6,7,8]}],"nodes":[{"name":"body","mesh":0,"extras":{"blenderAsset":"hydra"}},{"name":"mag","mesh":1,"extras":{"blenderAsset":"hydra"}},{"name":"bolt","mesh":2,"extras":{"blenderAsset":"hydra"}},{"name":"trigger","mesh":3,"extras":{"blenderAsset":"hydra"}},{"name":"extra","extras":{"blenderAsset":"hydra"},"children":[]},{"name":"grip","extras":{"role":"gameplay mount marker"},"translation":[0.05,0.0,-0.1]},{"name":"muzzle","extras":{"role":"gameplay mount marker"},"translation":[0.0,0.055,-0.88]},{"name":"sight","extras":{"role":"gameplay mount marker"},"translation":[0.0,0.155,-0.2]},{"name":"support","extras":{"role":"gameplay mount marker"},"translation":[-0.06,-0.012,-0.47]}],"meshes":[{"name":"body","primitives":[{"attributes":{"POSITION":0,"NORMAL":1,"TEXCOORD_0":2},"indices":3,"material":0},{"attributes":{"POSITION":4,"NORMAL":5,"TEXCOORD_0":6},"indices":7,"material":2},{"attributes":{"POSITION":8,"NORMAL":9,"TEXCOORD_0":10},"indices":11,"material":3},{"attributes":{"POSITION":12,"NORMAL":13,"TEXCOORD_0":14},"indices":15,"material":4},{"attributes":{"POSITION":16,"NORMAL":17,"TEXCOORD_0":18},"indices":19,"material":5},{"attributes":{"POSITION":20,"NORMAL":21,"TEXCOORD_0":22},"indices":23,"material":6}]},{"name":"mag","primitives":[{"attributes":{"POSITION":24,"NORMAL":25,"TEXCOORD_0":26},"indices":27,"material":0},{"attributes":{"POSITION":28,"NORMAL":29,"TEXCOORD_0":30},"indices":31,"material":1},{"attributes":{"POSITION":32,"NORMAL":33,"TEXCOORD_0":34},"indices":35,"material":2},{"attributes":{"POSITION":36,"NORMAL":37,"TEXCOORD_0":38},"indices":39,"material":4}]},{"name":"bolt","primitives":[{"attributes":{"POSITION":40,"NORMAL":41,"TEXCOORD_0":42},"indices":43,"material":3}]},{"name":"trigger","primitives":[{"attributes":{"POSITION":44,"NORMAL":45,"TEXCOORD_0":46},"indices":47,"material":3}]}],"materials":[{"name":"HYDRA | olive drab","pbrMetallicRoughness":{"baseColorFactor":[1,1,1,1],"metallicFactor":0.14,"roughnessFactor":0.61,"baseColorTexture":{"index":5}},"extras":{"partMaterial":"olive drab","textureLibrary":"olive-paint","textureBumpScale":0.0004}},{"name":"HYDRA | tan webbing","pbrMetallicRoughness":{"baseColorFactor":[1,1,1,1],"metallicFactor":0,"roughnessFactor":0.9,"baseColorTexture":{"index":6}},"extras":{"partMaterial":"tan webbing","textureLibrary":"tan-webbing","textureBumpScale":0.00065}},{"name":"HYDRA | orange paint","pbrMetallicRoughness":{"baseColorFactor":[1,1,1,1],"metallicFactor":0.14,"roughnessFactor":0.5,"baseColorTexture":{"index":7}},"extras":{"partMaterial":"orange paint","textureLibrary":"orange-paint","textureBumpScale":0.0004}},{"name":"HYDRA | gunmetal","pbrMetallicRoughness":{"baseColorFactor":[1,1,1,1],"metallicFactor":0.35,"roughnessFactor":0.53,"baseColorTexture":{"index":8}},"extras":{"partMaterial":"gunmetal","textureLibrary":"phosphated-steel","textureBumpScale":0.0003}},{"name":"HYDRA | dark steel","pbrMetallicRoughness":{"baseColorFactor":[1,1,1,1],"metallicFactor":0.4,"roughnessFactor":0.46,"baseColorTexture":{"index":9}},"extras":{"partMaterial":"dark steel","textureLibrary":"blued-steel","textureBumpScale":0.00025}},{"name":"HYDRA | rubber","pbrMetallicRoughness":{"baseColorFactor":[1,1,1,1],"metallicFactor":0,"roughnessFactor":0.84,"baseColorTexture":{"index":10}},"extras":{"partMaterial":"rubber","textureLibrary":"pebbled-rubber","textureBumpScale":0.0008}},{"name":"HYDRA | ivory coating","pbrMetallicRoughness":{"baseColorFactor":[1,1,1,1],"metallicFactor":0.08,"roughnessFactor":0.62,"baseColorTexture":{"index":11}},"extras":{"partMaterial":"ivory coating","textureLibrary":"ivory-ceramic","textureBumpScale":0.0003}}],"images":[{"uri":"textures/ivory-armor.jpg"},{"uri":"textures/orange-painted-metal.jpg"},{"uri":"textures/tan-webbing.jpg"},{"uri":"textures/worn-gunmetal.jpg"},{"uri":"textures/worn-rubber.jpg"},{"uri":"textures/palette/olive-paint.jpg","name":"textures/palette/olive-paint.jpg"},{"uri":"textures/palette/tan-webbing.jpg","name":"textures/palette/tan-webbing.jpg"},{"uri":"textures/palette/orange-paint.jpg","name":"textures/palette/orange-paint.jpg"},{"uri":"textures/palette/phosphated-steel.jpg","name":"textures/palette/phosphated-steel.jpg"},{"uri":"textures/palette/blued-steel.jpg","name":"textures/palette/blued-steel.jpg"},{"uri":"textures/palette/pebbled-rubber.jpg","name":"textures/palette/pebbled-rubber.jpg"},{"uri":"textures/palette/ivory-ceramic.jpg","name":"textures/palette/ivory-ceramic.jpg"}],"textures":[{"source":0,"sampler":0},{"source":1,"sampler":0},{"source":2,"sampler":0},{"source":3,"sampler":0},{"source":4,"sampler":0},{"source":5,"sampler":0},{"source":6,"sampler":0},{"source":7,"sampler":0},{"source":8,"sampler":0},{"source":9,"sampler":0},{"source":10,"sampler":0},{"source":11,"sampler":0}],"samplers":[{"magFilter":9729,"minFilter":9987,"wrapS":10497,"wrapT":10497}],"buffers":[{"uri":"hydra.bin","byteLength":1049456}],"bufferViews":[{"buffer":0,"byteOffset":0,"byteLength":36612,"target":34962},{"buffer":0,"byteOffset":36612,"byteLength":36612,"target":34962},{"buffer":0,"byteOffset":73224,"byteLength":24408,"target":34962},{"buffer":0,"byteOffset":97632,"byteLength":18624,"target":34963},{"buffer":0,"byteOffset":116256,"byteLength":13200,"target":34962},{"buffer":0,"byteOffset":129456,"byteLength":13200,"target":34962},{"buffer":0,"byteOffset":142656,"byteLength":8800,"target":34962},{"buffer":0,"byteOffset":151456,"byteLength":6864,"target":34963},{"buffer":0,"byteOffset":158320,"byteLength":94776,"target":34962},{"buffer":0,"byteOffset":253096,"byteLength":94776,"target":34962},{"buffer":0,"byteOffset":347872,"byteLength":63184,"target":34962},{"buffer":0,"byteOffset":411056,"byteLength":66048,"target":34963},{"buffer":0,"byteOffset":477104,"byteLength":83808,"target":34962},{"buffer":0,"byteOffset":560912,"byteLength":83808,"target":34962},{"buffer":0,"byteOffset":644720,"byteLength":55872,"target":34962},{"buffer":0,"byteOffset":700592,"byteLength":45888,"target":34963},{"buffer":0,"byteOffset":746480,"byteLength":19944,"target":34962},{"buffer":0,"byteOffset":766424,"byteLength":19944,"target":34962},{"buffer":0,"byteOffset":786368,"byteLength":13296,"target":34962},{"buffer":0,"byteOffset":799664,"byteLength":10416,"target":34963},{"buffer":0,"byteOffset":810080,"byteLength":15216,"target":34962},{"buffer":0,"byteOffset":825296,"byteLength":15216,"target":34962},{"buffer":0,"byteOffset":840512,"byteLength":10144,"target":34962},{"buffer":0,"byteOffset":850656,"byteLength":10944,"target":34963},{"buffer":0,"byteOffset":861600,"byteLength":6336,"target":34962},{"buffer":0,"byteOffset":867936,"byteLength":6336,"target":34962},{"buffer":0,"byteOffset":874272,"byteLength":4224,"target":34962},{"buffer":0,"byteOffset":878496,"byteLength":3408,"target":34963},{"buffer":0,"byteOffset":881904,"byteLength":9792,"target":34962},{"buffer":0,"byteOffset":891696,"byteLength":9792,"target":34962},{"buffer":0,"byteOffset":901488,"byteLength":6528,"target":34962},{"buffer":0,"byteOffset":908016,"byteLength":4896,"target":34963},{"buffer":0,"byteOffset":912912,"byteLength":5328,"target":34962},{"buffer":0,"byteOffset":918240,"byteLength":5328,"target":34962},{"buffer":0,"byteOffset":923568,"byteLength":3552,"target":34962},{"buffer":0,"byteOffset":927120,"byteLength":3168,"target":34963},{"buffer":0,"byteOffset":930288,"byteLength":14976,"target":34962},{"buffer":0,"byteOffset":945264,"byteLength":14976,"target":34962},{"buffer":0,"byteOffset":960240,"byteLength":9984,"target":34962},{"buffer":0,"byteOffset":970224,"byteLength":8256,"target":34963},{"buffer":0,"byteOffset":978480,"byteLength":19632,"target":34962},{"buffer":0,"byteOffset":998112,"byteLength":19632,"target":34962},{"buffer":0,"byteOffset":1017744,"byteLength":13088,"target":34962},{"buffer":0,"byteOffset":1030832,"byteLength":10416,"target":34963},{"buffer":0,"byteOffset":1041248,"byteLength":2592,"target":34962},{"buffer":0,"byteOffset":1043840,"byteLength":2592,"target":34962},{"buffer":0,"byteOffset":1046432,"byteLength":1728,"target":34962},{"buffer":0,"byteOffset":1048160,"byteLength":1296,"target":34963}],"accessors":[{"bufferView":0,"componentType":5126,"count":3051,"type":"VEC3","min":[-0.1025,-0.119276,-0.495],"max":[0.059,0.145,0.313]},{"bufferView":1,"componentType":5126,"count":3051,"type":"VEC3"},{"bufferView":2,"componentType":5126,"count":3051,"type":"VEC2"},{"bufferView":3,"componentType":5125,"count":4656,"type":"SCALAR"},{"bufferView":4,"componentType":5126,"count":1100,"type":"VEC3","min":[-0.085,0.015,-0.853],"max":[0.0615,0.153,0.025]},{"bufferView":5,"componentType":5126,"count":1100,"type":"VEC3"},{"bufferView":6,"componentType":5126,"count":1100,"type":"VEC2"},{"bufferView":7,"componentType":5125,"count":1716,"type":"SCALAR"},{"bufferView":8,"componentType":5126,"count":7898,"type":"VEC3","min":[-0.055,-0.0925,-0.88],"max":[0.095,0.162,0.1115]},{"bufferView":9,"componentType":5126,"count":7898,"type":"VEC3"},{"bufferView":10,"componentType":5126,"count":7898,"type":"VEC2"},{"bufferView":11,"componentType":5125,"count":16512,"type":"SCALAR"},{"bufferView":12,"componentType":5126,"count":6984,"type":"VEC3","min":[-0.101,-0.129246,-0.863],"max":[0.123,0.144,0.06]},{"bufferView":13,"componentType":5126,"count":6984,"type":"VEC3"},{"bufferView":14,"componentType":5126,"count":6984,"type":"VEC2"},{"bufferView":15,"componentType":5125,"count":11472,"type":"SCALAR"},{"bufferView":16,"componentType":5126,"count":1662,"type":"VEC3","min":[-0.088,-0.113276,-0.8795],"max":[0.059,0.129,0.325]},{"bufferView":17,"componentType":5126,"count":1662,"type":"VEC3"},{"bufferView":18,"componentType":5126,"count":1662,"type":"VEC2"},{"bufferView":19,"componentType":5125,"count":2604,"type":"SCALAR"},{"bufferView":20,"componentType":5126,"count":1268,"type":"VEC3","min":[-0.0557,0.01691,-0.173478],"max":[0.0557,0.035404,0.054725]},{"bufferView":21,"componentType":5126,"count":1268,"type":"VEC3"},{"bufferView":22,"componentType":5126,"count":1268,"type":"VEC2"},{"bufferView":23,"componentType":5125,"count":2736,"type":"SCALAR"},{"bufferView":24,"componentType":5126,"count":528,"type":"VEC3","min":[-0.11,-0.266,-0.31],"max":[0.114,-0.042,-0.14]},{"bufferView":25,"componentType":5126,"count":528,"type":"VEC3"},{"bufferView":26,"componentType":5126,"count":528,"type":"VEC2"},{"bufferView":27,"componentType":5125,"count":852,"type":"SCALAR"},{"bufferView":28,"componentType":5126,"count":816,"type":"VEC3","min":[-0.113,-0.109,-0.344],"max":[0.027,0.092,-0.171]},{"bufferView":29,"componentType":5126,"count":816,"type":"VEC3"},{"bufferView":30,"componentType":5126,"count":816,"type":"VEC2"},{"bufferView":31,"componentType":5125,"count":1224,"type":"SCALAR"},{"bufferView":32,"componentType":5126,"count":444,"type":"VEC3","min":[-0.1035,-0.104986,-0.3235],"max":[0.028,0.074986,-0.1795]},{"bufferView":33,"componentType":5126,"count":444,"type":"VEC3"},{"bufferView":34,"componentType":5126,"count":444,"type":"VEC2"},{"bufferView":35,"componentType":5125,"count":792,"type":"SCALAR"},{"bufferView":36,"componentType":5126,"count":1248,"type":"VEC3","min":[-0.114,-0.27,-0.328],"max":[0.118,-0.038,-0.13]},{"bufferView":37,"componentType":5126,"count":1248,"type":"VEC3"},{"bufferView":38,"componentType":5126,"count":1248,"type":"VEC2"},{"bufferView":39,"componentType":5125,"count":2064,"type":"SCALAR"},{"bufferView":40,"componentType":5126,"count":1636,"type":"VEC3","min":[-0.138,0.0415,-0.09],"max":[0.0165,0.0745,0.09]},{"bufferView":41,"componentType":5126,"count":1636,"type":"VEC3"},{"bufferView":42,"componentType":5126,"count":1636,"type":"VEC2"},{"bufferView":43,"componentType":5125,"count":2604,"type":"SCALAR"},{"bufferView":44,"componentType":5126,"count":216,"type":"VEC3","min":[-0.005,-0.019653,-0.13863],"max":[0.005,0.005719,-0.12137]},{"bufferView":45,"componentType":5126,"count":216,"type":"VEC3"},{"bufferView":46,"componentType":5126,"count":216,"type":"VEC2"},{"bufferView":47,"componentType":5125,"count":324,"type":"SCALAR"}]}
