{"asset":{"version":"2.0","generator":"Voxel Blitz Blender runtime export"},"scene":0,"scenes":[{"nodes":[0,1,2,3,4,5,6,7,8]}],"nodes":[{"name":"body","mesh":0,"extras":{"blenderAsset":"ifrit"}},{"name":"mag","mesh":1,"extras":{"blenderAsset":"ifrit"}},{"name":"bolt","mesh":2,"extras":{"blenderAsset":"ifrit"}},{"name":"trigger","mesh":3,"extras":{"blenderAsset":"ifrit"}},{"name":"extra","extras":{"blenderAsset":"ifrit"},"children":[]},{"name":"grip","extras":{"role":"gameplay mount marker"},"translation":[0.045,-0.02,-0.08]},{"name":"muzzle","extras":{"role":"gameplay mount marker"},"translation":[0.0,0.065,-0.655]},{"name":"sight","extras":{"role":"gameplay mount marker"},"translation":[0.0,0.158,-0.3]},{"name":"support","extras":{"role":"gameplay mount marker"},"translation":[-0.06,-0.03,-0.4]}],"meshes":[{"name":"body","primitives":[{"attributes":{"POSITION":0,"NORMAL":1,"TEXCOORD_0":2},"indices":3,"material":0},{"attributes":{"POSITION":4,"NORMAL":5,"TEXCOORD_0":6},"indices":7,"material":1},{"attributes":{"POSITION":8,"NORMAL":9,"TEXCOORD_0":10},"indices":11,"material":2},{"attributes":{"POSITION":12,"NORMAL":13,"TEXCOORD_0":14},"indices":15,"material":3},{"attributes":{"POSITION":16,"NORMAL":17,"TEXCOORD_0":18},"indices":19,"material":4},{"attributes":{"POSITION":20,"NORMAL":21,"TEXCOORD_0":22},"indices":23,"material":6}]},{"name":"mag","primitives":[{"attributes":{"POSITION":24,"NORMAL":25,"TEXCOORD_0":26},"indices":27,"material":2},{"attributes":{"POSITION":28,"NORMAL":29,"TEXCOORD_0":30},"indices":31,"material":5},{"attributes":{"POSITION":32,"NORMAL":33,"TEXCOORD_0":34},"indices":35,"material":7}]},{"name":"bolt","primitives":[{"attributes":{"POSITION":36,"NORMAL":37,"TEXCOORD_0":38},"indices":39,"material":0},{"attributes":{"POSITION":40,"NORMAL":41,"TEXCOORD_0":42},"indices":43,"material":1}]},{"name":"trigger","primitives":[{"attributes":{"POSITION":44,"NORMAL":45,"TEXCOORD_0":46},"indices":47,"material":0},{"attributes":{"POSITION":48,"NORMAL":49,"TEXCOORD_0":50},"indices":51,"material":2}]}],"materials":[{"name":"IFRIT | gunmetal","pbrMetallicRoughness":{"baseColorFactor":[1,1,1,1],"metallicFactor":0.35,"roughnessFactor":0.53,"baseColorTexture":{"index":6}},"extras":{"partMaterial":"gunmetal","textureLibrary":"phosphated-steel","textureBumpScale":0.0003}},{"name":"IFRIT | rubber","pbrMetallicRoughness":{"baseColorFactor":[1,1,1,1],"metallicFactor":0,"roughnessFactor":0.84,"baseColorTexture":{"index":7}},"extras":{"partMaterial":"rubber","textureLibrary":"pebbled-rubber","textureBumpScale":0.0008}},{"name":"IFRIT | brass","pbrMetallicRoughness":{"baseColorFactor":[1,1,1,1],"metallicFactor":0.58,"roughnessFactor":0.42,"baseColorTexture":{"index":8}},"extras":{"partMaterial":"brass","textureLibrary":"aged-brass","textureBumpScale":0.0002}},{"name":"IFRIT | cream","pbrMetallicRoughness":{"baseColorFactor":[1,1,1,1],"metallicFactor":0.08,"roughnessFactor":0.62,"baseColorTexture":{"index":9}},"extras":{"partMaterial":"cream","textureLibrary":"ivory-ceramic","textureBumpScale":0.0003}},{"name":"IFRIT | heat wrap","pbrMetallicRoughness":{"baseColorFactor":[1,1,1,1],"metallicFactor":0,"roughnessFactor":0.88,"baseColorTexture":{"index":10}},"extras":{"partMaterial":"heat wrap","textureLibrary":"heat-wrap","textureBumpScale":0.0008}},{"name":"IFRIT | fuel red","pbrMetallicRoughness":{"baseColorFactor":[1,1,1,1],"metallicFactor":0.12,"roughnessFactor":0.54,"baseColorTexture":{"index":11}},"extras":{"partMaterial":"fuel red","textureLibrary":"red-enamel","textureBumpScale":0.0004}},{"name":"IFRIT | pilot light","pbrMetallicRoughness":{"baseColorFactor":[0.45,0.12,0.02,1.0],"metallicFactor":0.0,"roughnessFactor":0.4000000059604645},"extras":{"partMaterial":"pilot light","cosmeticGlow":true},"emissiveFactor":[1,1,0.17999999597668648]},{"name":"IFRIT | webbing","pbrMetallicRoughness":{"baseColorFactor":[1,1,1,1],"metallicFactor":0,"roughnessFactor":0.9,"baseColorTexture":{"index":12}},"extras":{"partMaterial":"webbing","textureLibrary":"tan-webbing","textureBumpScale":0.00065}}],"images":[{"uri":"textures/ivory-armor.jpg"},{"uri":"textures/orange-painted-metal.jpg"},{"uri":"textures/petrol-ballistic-fabric.jpg"},{"uri":"textures/tan-webbing.jpg"},{"uri":"textures/worn-gunmetal.jpg"},{"uri":"textures/worn-rubber.jpg"},{"uri":"textures/palette/phosphated-steel.jpg","name":"textures/palette/phosphated-steel.jpg"},{"uri":"textures/palette/pebbled-rubber.jpg","name":"textures/palette/pebbled-rubber.jpg"},{"uri":"textures/palette/aged-brass.jpg","name":"textures/palette/aged-brass.jpg"},{"uri":"textures/palette/ivory-ceramic.jpg","name":"textures/palette/ivory-ceramic.jpg"},{"uri":"textures/palette/heat-wrap.jpg","name":"textures/palette/heat-wrap.jpg"},{"uri":"textures/palette/red-enamel.jpg","name":"textures/palette/red-enamel.jpg"},{"uri":"textures/palette/tan-webbing.jpg","name":"textures/palette/tan-webbing.jpg"}],"textures":[{"source":0,"sampler":0},{"source":1,"sampler":0},{"source":2,"sampler":0},{"source":3,"sampler":0},{"source":4,"sampler":0},{"source":5,"sampler":0},{"source":6,"sampler":0},{"source":7,"sampler":0},{"source":8,"sampler":0},{"source":9,"sampler":0},{"source":10,"sampler":0},{"source":11,"sampler":0},{"source":12,"sampler":0}],"samplers":[{"magFilter":9729,"minFilter":9987,"wrapS":10497,"wrapT":10497}],"buffers":[{"uri":"ifrit.bin","byteLength":711808}],"bufferViews":[{"buffer":0,"byteOffset":0,"byteLength":80112,"target":34962},{"buffer":0,"byteOffset":80112,"byteLength":80112,"target":34962},{"buffer":0,"byteOffset":160224,"byteLength":53408,"target":34962},{"buffer":0,"byteOffset":213632,"byteLength":52416,"target":34963},{"buffer":0,"byteOffset":266048,"byteLength":39072,"target":34962},{"buffer":0,"byteOffset":305120,"byteLength":39072,"target":34962},{"buffer":0,"byteOffset":344192,"byteLength":26048,"target":34962},{"buffer":0,"byteOffset":370240,"byteLength":20112,"target":34963},{"buffer":0,"byteOffset":390352,"byteLength":23136,"target":34962},{"buffer":0,"byteOffset":413488,"byteLength":23136,"target":34962},{"buffer":0,"byteOffset":436624,"byteLength":15424,"target":34962},{"buffer":0,"byteOffset":452048,"byteLength":13920,"target":34963},{"buffer":0,"byteOffset":465968,"byteLength":19488,"target":34962},{"buffer":0,"byteOffset":485456,"byteLength":19488,"target":34962},{"buffer":0,"byteOffset":504944,"byteLength":12992,"target":34962},{"buffer":0,"byteOffset":517936,"byteLength":12000,"target":34963},{"buffer":0,"byteOffset":529936,"byteLength":3168,"target":34962},{"buffer":0,"byteOffset":533104,"byteLength":3168,"target":34962},{"buffer":0,"byteOffset":536272,"byteLength":2112,"target":34962},{"buffer":0,"byteOffset":538384,"byteLength":1584,"target":34963},{"buffer":0,"byteOffset":539968,"byteLength":864,"target":34962},{"buffer":0,"byteOffset":540832,"byteLength":864,"target":34962},{"buffer":0,"byteOffset":541696,"byteLength":576,"target":34962},{"buffer":0,"byteOffset":542272,"byteLength":528,"target":34963},{"buffer":0,"byteOffset":542800,"byteLength":2592,"target":34962},{"buffer":0,"byteOffset":545392,"byteLength":2592,"target":34962},{"buffer":0,"byteOffset":547984,"byteLength":1728,"target":34962},{"buffer":0,"byteOffset":549712,"byteLength":1584,"target":34963},{"buffer":0,"byteOffset":551296,"byteLength":25920,"target":34962},{"buffer":0,"byteOffset":577216,"byteLength":25920,"target":34962},{"buffer":0,"byteOffset":603136,"byteLength":17280,"target":34962},{"buffer":0,"byteOffset":620416,"byteLength":14832,"target":34963},{"buffer":0,"byteOffset":635248,"byteLength":6912,"target":34962},{"buffer":0,"byteOffset":642160,"byteLength":6912,"target":34962},{"buffer":0,"byteOffset":649072,"byteLength":4608,"target":34962},{"buffer":0,"byteOffset":653680,"byteLength":4608,"target":34963},{"buffer":0,"byteOffset":658288,"byteLength":5184,"target":34962},{"buffer":0,"byteOffset":663472,"byteLength":5184,"target":34962},{"buffer":0,"byteOffset":668656,"byteLength":3456,"target":34962},{"buffer":0,"byteOffset":672112,"byteLength":2976,"target":34963},{"buffer":0,"byteOffset":675088,"byteLength":1152,"target":34962},{"buffer":0,"byteOffset":676240,"byteLength":1152,"target":34962},{"buffer":0,"byteOffset":677392,"byteLength":768,"target":34962},{"buffer":0,"byteOffset":678160,"byteLength":720,"target":34963},{"buffer":0,"byteOffset":678880,"byteLength":7776,"target":34962},{"buffer":0,"byteOffset":686656,"byteLength":7776,"target":34962},{"buffer":0,"byteOffset":694432,"byteLength":5184,"target":34962},{"buffer":0,"byteOffset":699616,"byteLength":3984,"target":34963},{"buffer":0,"byteOffset":703600,"byteLength":2592,"target":34962},{"buffer":0,"byteOffset":706192,"byteLength":2592,"target":34962},{"buffer":0,"byteOffset":708784,"byteLength":1728,"target":34962},{"buffer":0,"byteOffset":710512,"byteLength":1296,"target":34963}],"accessors":[{"bufferView":0,"componentType":5126,"count":6676,"type":"VEC3","min":[-0.072,-0.082,-0.655],"max":[0.058,0.14,0.312]},{"bufferView":1,"componentType":5126,"count":6676,"type":"VEC3"},{"bufferView":2,"componentType":5126,"count":6676,"type":"VEC2"},{"bufferView":3,"componentType":5125,"count":13104,"type":"SCALAR"},{"bufferView":4,"componentType":5126,"count":3256,"type":"VEC3","min":[-0.114,-0.207351,-0.6565],"max":[0.056,0.085,0.33]},{"bufferView":5,"componentType":5126,"count":3256,"type":"VEC3"},{"bufferView":6,"componentType":5126,"count":3256,"type":"VEC2"},{"bufferView":7,"componentType":5125,"count":5028,"type":"SCALAR"},{"bufferView":8,"componentType":5126,"count":1928,"type":"VEC3","min":[-0.12,-0.202,-0.6765],"max":[0.056,0.121,0.167]},{"bufferView":9,"componentType":5126,"count":1928,"type":"VEC3"},{"bufferView":10,"componentType":5126,"count":1928,"type":"VEC2"},{"bufferView":11,"componentType":5125,"count":3480,"type":"SCALAR"},{"bufferView":12,"componentType":5126,"count":1624,"type":"VEC3","min":[-0.075,0.007,-0.6495],"max":[0.0564,0.162,0.05467]},{"bufferView":13,"componentType":5126,"count":1624,"type":"VEC3"},{"bufferView":14,"componentType":5126,"count":1624,"type":"VEC2"},{"bufferView":15,"componentType":5125,"count":3000,"type":"SCALAR"},{"bufferView":16,"componentType":5126,"count":264,"type":"VEC3","min":[-0.05,-0.085,-0.41],"max":[0.05,-0.045,-0.155]},{"bufferView":17,"componentType":5126,"count":264,"type":"VEC3"},{"bufferView":18,"componentType":5126,"count":264,"type":"VEC2"},{"bufferView":19,"componentType":5125,"count":396,"type":"SCALAR"},{"bufferView":20,"componentType":5126,"count":72,"type":"VEC3","min":[-0.085,0.09,-0.703],"max":[-0.065,0.11,-0.668]},{"bufferView":21,"componentType":5126,"count":72,"type":"VEC3"},{"bufferView":22,"componentType":5126,"count":72,"type":"VEC2"},{"bufferView":23,"componentType":5125,"count":132,"type":"SCALAR"},{"bufferView":24,"componentType":5126,"count":216,"type":"VEC3","min":[-0.133,-0.156,-0.257],"max":[0.133,-0.0355,-0.213]},{"bufferView":25,"componentType":5126,"count":216,"type":"VEC3"},{"bufferView":26,"componentType":5126,"count":216,"type":"VEC2"},{"bufferView":27,"componentType":5125,"count":396,"type":"SCALAR"},{"bufferView":28,"componentType":5126,"count":2160,"type":"VEC3","min":[-0.11,-0.218,-0.317],"max":[0.11,-0.054,-0.153]},{"bufferView":29,"componentType":5126,"count":2160,"type":"VEC3"},{"bufferView":30,"componentType":5126,"count":2160,"type":"VEC2"},{"bufferView":31,"componentType":5125,"count":3708,"type":"SCALAR"},{"bufferView":32,"componentType":5126,"count":576,"type":"VEC3","min":[-0.062,-0.219,-0.318],"max":[0.062,-0.053,-0.152]},{"bufferView":33,"componentType":5126,"count":576,"type":"VEC3"},{"bufferView":34,"componentType":5126,"count":576,"type":"VEC2"},{"bufferView":35,"componentType":5125,"count":1152,"type":"SCALAR"},{"bufferView":36,"componentType":5126,"count":432,"type":"VEC3","min":[0.045,0.033,-0.057],"max":[0.1075,0.067,-0.023]},{"bufferView":37,"componentType":5126,"count":432,"type":"VEC3"},{"bufferView":38,"componentType":5126,"count":432,"type":"VEC2"},{"bufferView":39,"componentType":5125,"count":744,"type":"SCALAR"},{"bufferView":40,"componentType":5126,"count":96,"type":"VEC3","min":[0.1045,0.034,-0.056],"max":[0.1385,0.066,-0.024]},{"bufferView":41,"componentType":5126,"count":96,"type":"VEC3"},{"bufferView":42,"componentType":5126,"count":96,"type":"VEC2"},{"bufferView":43,"componentType":5125,"count":180,"type":"SCALAR"},{"bufferView":44,"componentType":5126,"count":648,"type":"VEC3","min":[-0.014,-0.08,-0.175],"max":[0.014,-0.01,-0.045]},{"bufferView":45,"componentType":5126,"count":648,"type":"VEC3"},{"bufferView":46,"componentType":5126,"count":648,"type":"VEC2"},{"bufferView":47,"componentType":5125,"count":996,"type":"SCALAR"},{"bufferView":48,"componentType":5126,"count":216,"type":"VEC3","min":[-0.006,-0.061486,-0.116053],"max":[0.006,-0.044514,-0.103947]},{"bufferView":49,"componentType":5126,"count":216,"type":"VEC3"},{"bufferView":50,"componentType":5126,"count":216,"type":"VEC2"},{"bufferView":51,"componentType":5125,"count":324,"type":"SCALAR"}]}
