{"asset":{"version":"2.0","generator":"Voxel Blitz Blender runtime export"},"scene":0,"scenes":[{"nodes":[0,1,2,3,4]}],"nodes":[{"name":"body","mesh":0,"extras":{"blenderAsset":"kestrel"}},{"name":"bolt","mesh":1,"extras":{"blenderAsset":"kestrel"}},{"name":"factory-optic","mesh":2,"extras":{"blenderAsset":"kestrel"}},{"name":"mag","mesh":3,"extras":{"blenderAsset":"kestrel"}},{"name":"trigger","mesh":4,"extras":{"blenderAsset":"kestrel"}}],"meshes":[{"name":"body","primitives":[{"attributes":{"POSITION":0,"NORMAL":1,"TEXCOORD_0":2},"indices":3,"material":0},{"attributes":{"POSITION":4,"NORMAL":5,"TEXCOORD_0":6},"indices":7,"material":1},{"attributes":{"POSITION":8,"NORMAL":9,"TEXCOORD_0":10},"indices":11,"material":2},{"attributes":{"POSITION":12,"NORMAL":13,"TEXCOORD_0":14},"indices":15,"material":3},{"attributes":{"POSITION":16,"NORMAL":17,"TEXCOORD_0":18},"indices":19,"material":4},{"attributes":{"POSITION":20,"NORMAL":21,"TEXCOORD_0":22},"indices":23,"material":6}]},{"name":"bolt","primitives":[{"attributes":{"POSITION":24,"NORMAL":25,"TEXCOORD_0":26},"indices":27,"material":2}]},{"name":"factory-optic","primitives":[{"attributes":{"POSITION":28,"NORMAL":29,"TEXCOORD_0":30},"indices":31,"material":1},{"attributes":{"POSITION":32,"NORMAL":33,"TEXCOORD_0":34},"indices":35,"material":5},{"attributes":{"POSITION":36,"NORMAL":37,"TEXCOORD_0":38},"indices":39,"material":6},{"attributes":{"POSITION":40,"NORMAL":41,"TEXCOORD_0":42},"indices":43,"material":7}]},{"name":"mag","primitives":[{"attributes":{"POSITION":44,"NORMAL":45,"TEXCOORD_0":46},"indices":47,"material":0},{"attributes":{"POSITION":48,"NORMAL":49,"TEXCOORD_0":50},"indices":51,"material":1},{"attributes":{"POSITION":52,"NORMAL":53,"TEXCOORD_0":54},"indices":55,"material":2}]},{"name":"trigger","primitives":[{"attributes":{"POSITION":56,"NORMAL":57,"TEXCOORD_0":58},"indices":59,"material":1}]}],"materials":[{"name":"Kestrel | orange paint","pbrMetallicRoughness":{"baseColorFactor":[1,1,1,1],"metallicFactor":0.14,"roughnessFactor":0.5,"baseColorTexture":{"index":6}},"extras":{"paletteColor":16747546,"textureLibrary":"orange-paint","textureBumpScale":0.0004}},{"name":"Kestrel | rubber","pbrMetallicRoughness":{"baseColorFactor":[1,1,1,1],"metallicFactor":0,"roughnessFactor":0.84,"baseColorTexture":{"index":7}},"extras":{"paletteColor":2237738,"textureLibrary":"pebbled-rubber","textureBumpScale":0.0008}},{"name":"Kestrel | machined steel","pbrMetallicRoughness":{"baseColorFactor":[1,1,1,1],"metallicFactor":0.55,"roughnessFactor":0.36,"baseColorTexture":{"index":8}},"extras":{"paletteColor":2830392,"textureLibrary":"machined-steel","textureBumpScale":0.00018}},{"name":"Kestrel | petrol paint","pbrMetallicRoughness":{"baseColorFactor":[1,1,1,1],"metallicFactor":0.16,"roughnessFactor":0.58,"baseColorTexture":{"index":9}},"extras":{"paletteColor":3948614,"textureLibrary":"petrol-paint","textureBumpScale":0.00045}},{"name":"Kestrel | ivory marking","pbrMetallicRoughness":{"baseColorFactor":[0.8999999761581421,0.9200000166893005,0.8100000023841858,1.0],"metallicFactor":0.0,"roughnessFactor":0.6000000238418579},"extras":{}},{"name":"Kestrel | cyan indicator","pbrMetallicRoughness":{"baseColorFactor":[0.07000000029802322,0.800000011920929,1.0,1.0],"metallicFactor":0.10000000149011612,"roughnessFactor":0.25},"extras":{"cosmeticGlow":true},"emissiveFactor":[0.11200000214576722,1,1]},{"name":"Kestrel | ceramic paint","pbrMetallicRoughness":{"baseColorFactor":[1,1,1,1],"metallicFactor":0.08,"roughnessFactor":0.62,"baseColorTexture":{"index":10}},"extras":{"paletteColor":4541266,"textureLibrary":"ivory-ceramic","textureBumpScale":0.0003}},{"name":"Kestrel | optic glass","pbrMetallicRoughness":{"baseColorFactor":[0.18,0.58,0.65,0.12],"metallicFactor":0,"roughnessFactor":0.11999999731779099},"extras":{"glass":true},"alphaMode":"BLEND","doubleSided":true}],"images":[{"uri":"textures/orange-painted-metal.jpg"},{"uri":"textures/ivory-armor.jpg"},{"uri":"textures/petrol-ballistic-fabric.jpg"},{"uri":"textures/worn-gunmetal.jpg"},{"uri":"textures/tan-webbing.jpg"},{"uri":"textures/worn-rubber.jpg"},{"uri":"textures/palette/orange-paint.jpg","name":"textures/palette/orange-paint.jpg"},{"uri":"textures/palette/pebbled-rubber.jpg","name":"textures/palette/pebbled-rubber.jpg"},{"uri":"textures/palette/machined-steel.jpg","name":"textures/palette/machined-steel.jpg"},{"uri":"textures/palette/petrol-paint.jpg","name":"textures/palette/petrol-paint.jpg"},{"uri":"textures/palette/ivory-ceramic.jpg","name":"textures/palette/ivory-ceramic.jpg"}],"textures":[{"source":0,"sampler":0},{"source":1,"sampler":0},{"source":2,"sampler":0},{"source":3,"sampler":0},{"source":4,"sampler":0},{"source":5,"sampler":0},{"source":6,"sampler":0},{"source":7,"sampler":0},{"source":8,"sampler":0},{"source":9,"sampler":0},{"source":10,"sampler":0}],"samplers":[{"magFilter":9729,"minFilter":9987,"wrapS":10497,"wrapT":10497}],"buffers":[{"uri":"kestrel.bin","byteLength":690848}],"bufferViews":[{"buffer":0,"byteOffset":0,"byteLength":6240,"target":34962},{"buffer":0,"byteOffset":6240,"byteLength":6240,"target":34962},{"buffer":0,"byteOffset":12480,"byteLength":4160,"target":34962},{"buffer":0,"byteOffset":16640,"byteLength":7152,"target":34963},{"buffer":0,"byteOffset":23792,"byteLength":28536,"target":34962},{"buffer":0,"byteOffset":52328,"byteLength":28536,"target":34962},{"buffer":0,"byteOffset":80864,"byteLength":19024,"target":34962},{"buffer":0,"byteOffset":99888,"byteLength":31872,"target":34963},{"buffer":0,"byteOffset":131760,"byteLength":64368,"target":34962},{"buffer":0,"byteOffset":196128,"byteLength":64368,"target":34962},{"buffer":0,"byteOffset":260496,"byteLength":42912,"target":34962},{"buffer":0,"byteOffset":303408,"byteLength":75408,"target":34963},{"buffer":0,"byteOffset":378816,"byteLength":6336,"target":34962},{"buffer":0,"byteOffset":385152,"byteLength":6336,"target":34962},{"buffer":0,"byteOffset":391488,"byteLength":4224,"target":34962},{"buffer":0,"byteOffset":395712,"byteLength":7296,"target":34963},{"buffer":0,"byteOffset":403008,"byteLength":54288,"target":34962},{"buffer":0,"byteOffset":457296,"byteLength":54288,"target":34962},{"buffer":0,"byteOffset":511584,"byteLength":36192,"target":34962},{"buffer":0,"byteOffset":547776,"byteLength":47616,"target":34963},{"buffer":0,"byteOffset":595392,"byteLength":3024,"target":34962},{"buffer":0,"byteOffset":598416,"byteLength":3024,"target":34962},{"buffer":0,"byteOffset":601440,"byteLength":2016,"target":34962},{"buffer":0,"byteOffset":603456,"byteLength":3600,"target":34963},{"buffer":0,"byteOffset":607056,"byteLength":2304,"target":34962},{"buffer":0,"byteOffset":609360,"byteLength":2304,"target":34962},{"buffer":0,"byteOffset":611664,"byteLength":1536,"target":34962},{"buffer":0,"byteOffset":613200,"byteLength":2592,"target":34963},{"buffer":0,"byteOffset":615792,"byteLength":1152,"target":34962},{"buffer":0,"byteOffset":616944,"byteLength":1152,"target":34962},{"buffer":0,"byteOffset":618096,"byteLength":768,"target":34962},{"buffer":0,"byteOffset":618864,"byteLength":1296,"target":34963},{"buffer":0,"byteOffset":620160,"byteLength":1152,"target":34962},{"buffer":0,"byteOffset":621312,"byteLength":1152,"target":34962},{"buffer":0,"byteOffset":622464,"byteLength":768,"target":34962},{"buffer":0,"byteOffset":623232,"byteLength":1296,"target":34963},{"buffer":0,"byteOffset":624528,"byteLength":3456,"target":34962},{"buffer":0,"byteOffset":627984,"byteLength":3456,"target":34962},{"buffer":0,"byteOffset":631440,"byteLength":2304,"target":34962},{"buffer":0,"byteOffset":633744,"byteLength":3888,"target":34963},{"buffer":0,"byteOffset":637632,"byteLength":1152,"target":34962},{"buffer":0,"byteOffset":638784,"byteLength":1152,"target":34962},{"buffer":0,"byteOffset":639936,"byteLength":768,"target":34962},{"buffer":0,"byteOffset":640704,"byteLength":1296,"target":34963},{"buffer":0,"byteOffset":642000,"byteLength":2304,"target":34962},{"buffer":0,"byteOffset":644304,"byteLength":2304,"target":34962},{"buffer":0,"byteOffset":646608,"byteLength":1536,"target":34962},{"buffer":0,"byteOffset":648144,"byteLength":2592,"target":34963},{"buffer":0,"byteOffset":650736,"byteLength":8064,"target":34962},{"buffer":0,"byteOffset":658800,"byteLength":8064,"target":34962},{"buffer":0,"byteOffset":666864,"byteLength":5376,"target":34962},{"buffer":0,"byteOffset":672240,"byteLength":9072,"target":34963},{"buffer":0,"byteOffset":681312,"byteLength":1344,"target":34962},{"buffer":0,"byteOffset":682656,"byteLength":1344,"target":34962},{"buffer":0,"byteOffset":684000,"byteLength":896,"target":34962},{"buffer":0,"byteOffset":684896,"byteLength":1584,"target":34963},{"buffer":0,"byteOffset":686480,"byteLength":1152,"target":34962},{"buffer":0,"byteOffset":687632,"byteLength":1152,"target":34962},{"buffer":0,"byteOffset":688784,"byteLength":768,"target":34962},{"buffer":0,"byteOffset":689552,"byteLength":1296,"target":34963}],"accessors":[{"bufferView":0,"componentType":5126,"count":520,"type":"VEC3","min":[-0.044822,-0.141507,-0.476537],"max":[0.035679,0.08282,0.084708]},{"bufferView":1,"componentType":5126,"count":520,"type":"VEC3"},{"bufferView":2,"componentType":5126,"count":520,"type":"VEC2"},{"bufferView":3,"componentType":5125,"count":1788,"type":"SCALAR"},{"bufferView":4,"componentType":5126,"count":2378,"type":"VEC3","min":[-0.054496,-0.134236,-0.594545],"max":[0.030497,0.07519,0.169687]},{"bufferView":5,"componentType":5126,"count":2378,"type":"VEC3"},{"bufferView":6,"componentType":5126,"count":2378,"type":"VEC2"},{"bufferView":7,"componentType":5125,"count":7968,"type":"SCALAR"},{"bufferView":8,"componentType":5126,"count":5364,"type":"VEC3","min":[-0.052424,-0.07435,-0.596618],"max":[0.030151,0.11692,0.173156]},{"bufferView":9,"componentType":5126,"count":5364,"type":"VEC3"},{"bufferView":10,"componentType":5126,"count":5364,"type":"VEC2"},{"bufferView":11,"componentType":5125,"count":18852,"type":"SCALAR"},{"bufferView":12,"componentType":5126,"count":528,"type":"VEC3","min":[-0.043095,-0.123908,-0.369378],"max":[0.019095,0.07166,-0.011424]},{"bufferView":13,"componentType":5126,"count":528,"type":"VEC3"},{"bufferView":14,"componentType":5126,"count":528,"type":"VEC2"},{"bufferView":15,"componentType":5125,"count":1824,"type":"SCALAR"},{"bufferView":16,"componentType":5126,"count":4524,"type":"VEC3","min":[0.023863,0.00651,-0.322775],"max":[0.026074,0.069114,-0.042211]},{"bufferView":17,"componentType":5126,"count":4524,"type":"VEC3"},{"bufferView":18,"componentType":5126,"count":4524,"type":"VEC2"},{"bufferView":19,"componentType":5125,"count":11904,"type":"SCALAR"},{"bufferView":20,"componentType":5126,"count":252,"type":"VEC3","min":[-0.046204,0.027738,-0.359898],"max":[0.022205,0.09832,0.147712]},{"bufferView":21,"componentType":5126,"count":252,"type":"VEC3"},{"bufferView":22,"componentType":5126,"count":252,"type":"VEC2"},{"bufferView":23,"componentType":5125,"count":900,"type":"SCALAR"},{"bufferView":24,"componentType":5126,"count":192,"type":"VEC3","min":[0.024623,0.03353,-0.177181],"max":[0.064701,0.06391,-0.084587]},{"bufferView":25,"componentType":5126,"count":192,"type":"VEC3"},{"bufferView":26,"componentType":5126,"count":192,"type":"VEC2"},{"bufferView":27,"componentType":5125,"count":648,"type":"SCALAR"},{"bufferView":28,"componentType":5126,"count":96,"type":"VEC3","min":[-0.017966,0.10873,-0.208967],"max":[0.017966,0.13167,-0.150923]},{"bufferView":29,"componentType":5126,"count":96,"type":"VEC3"},{"bufferView":30,"componentType":5126,"count":96,"type":"VEC2"},{"bufferView":31,"componentType":5125,"count":324,"type":"SCALAR"},{"bufferView":32,"componentType":5126,"count":96,"type":"VEC3","min":[0.028676,0.14469,-0.188928],"max":[0.032131,0.14903,-0.170962]},{"bufferView":33,"componentType":5126,"count":96,"type":"VEC3"},{"bufferView":34,"componentType":5126,"count":96,"type":"VEC2"},{"bufferView":35,"componentType":5125,"count":324,"type":"SCALAR"},{"bufferView":36,"componentType":5126,"count":288,"type":"VEC3","min":[-0.029022,0.12082,-0.208622],"max":[0.029022,0.17135,-0.151269]},{"bufferView":37,"componentType":5126,"count":288,"type":"VEC3"},{"bufferView":38,"componentType":5126,"count":288,"type":"VEC2"},{"bufferView":39,"componentType":5125,"count":972,"type":"SCALAR"},{"bufferView":40,"componentType":5126,"count":96,"type":"VEC3","min":[-0.019693,0.12857,-0.196874],"max":[0.019693,0.16143,-0.192037]},{"bufferView":41,"componentType":5126,"count":96,"type":"VEC3"},{"bufferView":42,"componentType":5126,"count":96,"type":"VEC2"},{"bufferView":43,"componentType":5125,"count":324,"type":"SCALAR"},{"bufferView":44,"componentType":5126,"count":192,"type":"VEC3","min":[-0.043095,-0.143115,-0.238576],"max":[0.019095,-0.109125,-0.186268]},{"bufferView":45,"componentType":5126,"count":192,"type":"VEC3"},{"bufferView":46,"componentType":5126,"count":192,"type":"VEC2"},{"bufferView":47,"componentType":5125,"count":648,"type":"SCALAR"},{"bufferView":48,"componentType":5126,"count":672,"type":"VEC3","min":[-0.041367,-0.162442,-0.263324],"max":[0.017367,-0.047041,-0.181681]},{"bufferView":49,"componentType":5126,"count":672,"type":"VEC3"},{"bufferView":50,"componentType":5126,"count":672,"type":"VEC2"},{"bufferView":51,"componentType":5125,"count":2268,"type":"SCALAR"},{"bufferView":52,"componentType":5126,"count":112,"type":"VEC3","min":[-0.035148,-0.152319,-0.283743],"max":[0.011148,-0.028343,-0.189169]},{"bufferView":53,"componentType":5126,"count":112,"type":"VEC3"},{"bufferView":54,"componentType":5126,"count":112,"type":"VEC2"},{"bufferView":55,"componentType":5125,"count":396,"type":"SCALAR"},{"bufferView":56,"componentType":5126,"count":96,"type":"VEC3","min":[-0.017528,-0.053702,-0.16423],"max":[-0.006472,-0.028658,-0.151436]},{"bufferView":57,"componentType":5126,"count":96,"type":"VEC3"},{"bufferView":58,"componentType":5126,"count":96,"type":"VEC2"},{"bufferView":59,"componentType":5125,"count":324,"type":"SCALAR"}]}
