{"asset":{"version":"2.0","generator":"Voxel Blitz Blender runtime export"},"scene":0,"scenes":[{"nodes":[0,1,2,3,4,11,12,13,14,15]}],"nodes":[{"name":"body","mesh":0,"extras":{"blenderAsset":"mastiff"}},{"name":"mag","mesh":1,"extras":{"blenderAsset":"mastiff"}},{"name":"bolt","mesh":2,"extras":{"blenderAsset":"mastiff"}},{"name":"pump","mesh":3,"extras":{"blenderAsset":"mastiff"}},{"name":"trigger","mesh":4,"extras":{"blenderAsset":"mastiff"}},{"name":"Shell 1","mesh":5,"translation":[-0.047,0.015,0.053],"extras":{"blenderAsset":"mastiff","role":"round"}},{"name":"Shell 1 base","mesh":6,"translation":[-0.047,0.015,0.053],"extras":{"blenderAsset":"mastiff","role":"round"}},{"name":"Shell 2","mesh":7,"translation":[-0.047,0.015,0.0],"extras":{"blenderAsset":"mastiff","role":"round"}},{"name":"Shell 2 base","mesh":8,"translation":[-0.047,0.015,0.0],"extras":{"blenderAsset":"mastiff","role":"round"}},{"name":"Shell 3","mesh":9,"translation":[-0.047,0.015,-0.053],"extras":{"blenderAsset":"mastiff","role":"round"}},{"name":"Shell 3 base","mesh":10,"translation":[-0.047,0.015,-0.053],"extras":{"blenderAsset":"mastiff","role":"round"}},{"name":"extra","extras":{"blenderAsset":"mastiff"},"children":[5,6,7,8,9,10]},{"name":"grip","extras":{"role":"gameplay mount marker"},"translation":[0.045,0.01,-0.11]},{"name":"muzzle","extras":{"role":"gameplay mount marker"},"translation":[0.0,0.06,-0.668]},{"name":"sight","extras":{"role":"gameplay mount marker"},"translation":[0.0,0.1,0.0]},{"name":"support","extras":{"role":"gameplay mount marker"},"translation":[-0.055,-0.03,-0.33]}],"meshes":[{"name":"body","primitives":[{"attributes":{"POSITION":0,"NORMAL":1,"TEXCOORD_0":2},"indices":3,"material":0},{"attributes":{"POSITION":4,"NORMAL":5,"TEXCOORD_0":6},"indices":7,"material":1},{"attributes":{"POSITION":8,"NORMAL":9,"TEXCOORD_0":10},"indices":11,"material":2},{"attributes":{"POSITION":12,"NORMAL":13,"TEXCOORD_0":14},"indices":15,"material":3},{"attributes":{"POSITION":16,"NORMAL":17,"TEXCOORD_0":18},"indices":19,"material":4}]},{"name":"mag","primitives":[{"attributes":{"POSITION":20,"NORMAL":21,"TEXCOORD_0":22},"indices":23,"material":0},{"attributes":{"POSITION":24,"NORMAL":25,"TEXCOORD_0":26},"indices":27,"material":3}]},{"name":"bolt","primitives":[{"attributes":{"POSITION":28,"NORMAL":29,"TEXCOORD_0":30},"indices":31,"material":0}]},{"name":"pump","primitives":[{"attributes":{"POSITION":32,"NORMAL":33,"TEXCOORD_0":34},"indices":35,"material":0},{"attributes":{"POSITION":36,"NORMAL":37,"TEXCOORD_0":38},"indices":39,"material":1}]},{"name":"trigger","primitives":[{"attributes":{"POSITION":40,"NORMAL":41,"TEXCOORD_0":42},"indices":43,"material":0}]},{"name":"Shell 1","primitives":[{"attributes":{"POSITION":44,"NORMAL":45,"TEXCOORD_0":46},"indices":47,"material":5}]},{"name":"Shell 1 base","primitives":[{"attributes":{"POSITION":48,"NORMAL":49,"TEXCOORD_0":50},"indices":51,"material":6}]},{"name":"Shell 2","primitives":[{"attributes":{"POSITION":52,"NORMAL":53,"TEXCOORD_0":54},"indices":55,"material":5}]},{"name":"Shell 2 base","primitives":[{"attributes":{"POSITION":56,"NORMAL":57,"TEXCOORD_0":58},"indices":59,"material":6}]},{"name":"Shell 3","primitives":[{"attributes":{"POSITION":60,"NORMAL":61,"TEXCOORD_0":62},"indices":63,"material":5}]},{"name":"Shell 3 base","primitives":[{"attributes":{"POSITION":64,"NORMAL":65,"TEXCOORD_0":66},"indices":67,"material":6}]}],"materials":[{"name":"MASTIFF | blued steel","pbrMetallicRoughness":{"baseColorFactor":[1,1,1,1],"metallicFactor":0.4,"roughnessFactor":0.46,"baseColorTexture":{"index":4}},"extras":{"partMaterial":"blued steel","textureLibrary":"blued-steel","textureBumpScale":0.00025}},{"name":"MASTIFF | polymer","pbrMetallicRoughness":{"baseColorFactor":[1,1,1,1],"metallicFactor":0.02,"roughnessFactor":0.7,"baseColorTexture":{"index":5}},"extras":{"partMaterial":"polymer","textureLibrary":"molded-polymer","textureBumpScale":0.00055}},{"name":"MASTIFF | rubber","pbrMetallicRoughness":{"baseColorFactor":[1,1,1,1],"metallicFactor":0,"roughnessFactor":0.84,"baseColorTexture":{"index":6}},"extras":{"partMaterial":"rubber","textureLibrary":"pebbled-rubber","textureBumpScale":0.0008}},{"name":"MASTIFF | orange paint","pbrMetallicRoughness":{"baseColorFactor":[1,1,1,1],"metallicFactor":0.14,"roughnessFactor":0.5,"baseColorTexture":{"index":7}},"extras":{"partMaterial":"orange paint","textureLibrary":"orange-paint","textureBumpScale":0.0004}},{"name":"MASTIFF | ivory coating","pbrMetallicRoughness":{"baseColorFactor":[1,1,1,1],"metallicFactor":0.08,"roughnessFactor":0.62,"baseColorTexture":{"index":8}},"extras":{"partMaterial":"ivory coating","textureLibrary":"ivory-ceramic","textureBumpScale":0.0003}},{"name":"MASTIFF | shell red","pbrMetallicRoughness":{"baseColorFactor":[1,1,1,1],"metallicFactor":0.12,"roughnessFactor":0.54,"baseColorTexture":{"index":9}},"extras":{"partMaterial":"shell red","textureLibrary":"red-enamel","textureBumpScale":0.0004}},{"name":"MASTIFF | brass","pbrMetallicRoughness":{"baseColorFactor":[1,1,1,1],"metallicFactor":0.58,"roughnessFactor":0.42,"baseColorTexture":{"index":10}},"extras":{"partMaterial":"brass","textureLibrary":"aged-brass","textureBumpScale":0.0002}}],"images":[{"uri":"textures/ivory-armor.jpg"},{"uri":"textures/orange-painted-metal.jpg"},{"uri":"textures/worn-gunmetal.jpg"},{"uri":"textures/worn-rubber.jpg"},{"uri":"textures/palette/blued-steel.jpg","name":"textures/palette/blued-steel.jpg"},{"uri":"textures/palette/molded-polymer.jpg","name":"textures/palette/molded-polymer.jpg"},{"uri":"textures/palette/pebbled-rubber.jpg","name":"textures/palette/pebbled-rubber.jpg"},{"uri":"textures/palette/orange-paint.jpg","name":"textures/palette/orange-paint.jpg"},{"uri":"textures/palette/ivory-ceramic.jpg","name":"textures/palette/ivory-ceramic.jpg"},{"uri":"textures/palette/red-enamel.jpg","name":"textures/palette/red-enamel.jpg"},{"uri":"textures/palette/aged-brass.jpg","name":"textures/palette/aged-brass.jpg"}],"textures":[{"source":0,"sampler":0},{"source":1,"sampler":0},{"source":2,"sampler":0},{"source":3,"sampler":0},{"source":4,"sampler":0},{"source":5,"sampler":0},{"source":6,"sampler":0},{"source":7,"sampler":0},{"source":8,"sampler":0},{"source":9,"sampler":0},{"source":10,"sampler":0}],"samplers":[{"magFilter":9729,"minFilter":9987,"wrapS":10497,"wrapT":10497}],"buffers":[{"uri":"mastiff.bin","byteLength":758048}],"bufferViews":[{"buffer":0,"byteOffset":0,"byteLength":92040,"target":34962},{"buffer":0,"byteOffset":92040,"byteLength":92040,"target":34962},{"buffer":0,"byteOffset":184080,"byteLength":61360,"target":34962},{"buffer":0,"byteOffset":245440,"byteLength":57408,"target":34963},{"buffer":0,"byteOffset":302848,"byteLength":9480,"target":34962},{"buffer":0,"byteOffset":312328,"byteLength":9480,"target":34962},{"buffer":0,"byteOffset":321808,"byteLength":6320,"target":34962},{"buffer":0,"byteOffset":328128,"byteLength":4800,"target":34963},{"buffer":0,"byteOffset":332928,"byteLength":26676,"target":34962},{"buffer":0,"byteOffset":359604,"byteLength":26676,"target":34962},{"buffer":0,"byteOffset":386280,"byteLength":17784,"target":34962},{"buffer":0,"byteOffset":404064,"byteLength":13968,"target":34963},{"buffer":0,"byteOffset":418032,"byteLength":2592,"target":34962},{"buffer":0,"byteOffset":420624,"byteLength":2592,"target":34962},{"buffer":0,"byteOffset":423216,"byteLength":1728,"target":34962},{"buffer":0,"byteOffset":424944,"byteLength":1296,"target":34963},{"buffer":0,"byteOffset":426240,"byteLength":16368,"target":34962},{"buffer":0,"byteOffset":442608,"byteLength":16368,"target":34962},{"buffer":0,"byteOffset":458976,"byteLength":10912,"target":34962},{"buffer":0,"byteOffset":469888,"byteLength":10896,"target":34963},{"buffer":0,"byteOffset":480784,"byteLength":3552,"target":34962},{"buffer":0,"byteOffset":484336,"byteLength":3552,"target":34962},{"buffer":0,"byteOffset":487888,"byteLength":2368,"target":34962},{"buffer":0,"byteOffset":490256,"byteLength":1872,"target":34963},{"buffer":0,"byteOffset":492128,"byteLength":8424,"target":34962},{"buffer":0,"byteOffset":500552,"byteLength":8424,"target":34962},{"buffer":0,"byteOffset":508976,"byteLength":5616,"target":34962},{"buffer":0,"byteOffset":514592,"byteLength":4608,"target":34963},{"buffer":0,"byteOffset":519200,"byteLength":5184,"target":34962},{"buffer":0,"byteOffset":524384,"byteLength":5184,"target":34962},{"buffer":0,"byteOffset":529568,"byteLength":3456,"target":34962},{"buffer":0,"byteOffset":533024,"byteLength":2592,"target":34963},{"buffer":0,"byteOffset":535616,"byteLength":5184,"target":34962},{"buffer":0,"byteOffset":540800,"byteLength":5184,"target":34962},{"buffer":0,"byteOffset":545984,"byteLength":3456,"target":34962},{"buffer":0,"byteOffset":549440,"byteLength":2592,"target":34963},{"buffer":0,"byteOffset":552032,"byteLength":38880,"target":34962},{"buffer":0,"byteOffset":590912,"byteLength":38880,"target":34962},{"buffer":0,"byteOffset":629792,"byteLength":25920,"target":34962},{"buffer":0,"byteOffset":655712,"byteLength":19440,"target":34963},{"buffer":0,"byteOffset":675152,"byteLength":10368,"target":34962},{"buffer":0,"byteOffset":685520,"byteLength":10368,"target":34962},{"buffer":0,"byteOffset":695888,"byteLength":6912,"target":34962},{"buffer":0,"byteOffset":702800,"byteLength":5280,"target":34963},{"buffer":0,"byteOffset":708080,"byteLength":2016,"target":34962},{"buffer":0,"byteOffset":710096,"byteLength":2016,"target":34962},{"buffer":0,"byteOffset":712112,"byteLength":1344,"target":34962},{"buffer":0,"byteOffset":713456,"byteLength":1248,"target":34963},{"buffer":0,"byteOffset":714704,"byteLength":3024,"target":34962},{"buffer":0,"byteOffset":717728,"byteLength":3024,"target":34962},{"buffer":0,"byteOffset":720752,"byteLength":2016,"target":34962},{"buffer":0,"byteOffset":722768,"byteLength":1968,"target":34963},{"buffer":0,"byteOffset":724736,"byteLength":2016,"target":34962},{"buffer":0,"byteOffset":726752,"byteLength":2016,"target":34962},{"buffer":0,"byteOffset":728768,"byteLength":1344,"target":34962},{"buffer":0,"byteOffset":730112,"byteLength":1248,"target":34963},{"buffer":0,"byteOffset":731360,"byteLength":3024,"target":34962},{"buffer":0,"byteOffset":734384,"byteLength":3024,"target":34962},{"buffer":0,"byteOffset":737408,"byteLength":2016,"target":34962},{"buffer":0,"byteOffset":739424,"byteLength":1968,"target":34963},{"buffer":0,"byteOffset":741392,"byteLength":2016,"target":34962},{"buffer":0,"byteOffset":743408,"byteLength":2016,"target":34962},{"buffer":0,"byteOffset":745424,"byteLength":1344,"target":34962},{"buffer":0,"byteOffset":746768,"byteLength":1248,"target":34963},{"buffer":0,"byteOffset":748016,"byteLength":3024,"target":34962},{"buffer":0,"byteOffset":751040,"byteLength":3024,"target":34962},{"buffer":0,"byteOffset":754064,"byteLength":2016,"target":34962},{"buffer":0,"byteOffset":756080,"byteLength":1968,"target":34963}],"accessors":[{"bufferView":0,"componentType":5126,"count":7670,"type":"VEC3","min":[-0.033,-0.074,-0.668],"max":[0.033,0.114,0.305]},{"bufferView":1,"componentType":5126,"count":7670,"type":"VEC3"},{"bufferView":2,"componentType":5126,"count":7670,"type":"VEC2"},{"bufferView":3,"componentType":5125,"count":14352,"type":"SCALAR"},{"bufferView":4,"componentType":5126,"count":790,"type":"VEC3","min":[-0.041,-0.109701,-0.127009],"max":[0.03,0.05,0.349626]},{"bufferView":5,"componentType":5126,"count":790,"type":"VEC3"},{"bufferView":6,"componentType":5126,"count":790,"type":"VEC2"},{"bufferView":7,"componentType":5125,"count":1200,"type":"SCALAR"},{"bufferView":8,"componentType":5126,"count":2223,"type":"VEC3","min":[-0.031,-0.116361,-0.6672],"max":[0.031,0.0745,0.359]},{"bufferView":9,"componentType":5126,"count":2223,"type":"VEC3"},{"bufferView":10,"componentType":5126,"count":2223,"type":"VEC2"},{"bufferView":11,"componentType":5125,"count":3492,"type":"SCALAR"},{"bufferView":12,"componentType":5126,"count":216,"type":"VEC3","min":[-0.007,0.054,0.08],"max":[0.007,0.062,0.11]},{"bufferView":13,"componentType":5126,"count":216,"type":"VEC3"},{"bufferView":14,"componentType":5126,"count":216,"type":"VEC2"},{"bufferView":15,"componentType":5125,"count":324,"type":"SCALAR"},{"bufferView":16,"componentType":5126,"count":1364,"type":"VEC3","min":[-0.0297,-0.004017,-0.594],"max":[0.0297,0.099829,0.25366]},{"bufferView":17,"componentType":5126,"count":1364,"type":"VEC3"},{"bufferView":18,"componentType":5126,"count":1364,"type":"VEC2"},{"bufferView":19,"componentType":5125,"count":2724,"type":"SCALAR"},{"bufferView":20,"componentType":5126,"count":296,"type":"VEC3","min":[-0.02,-0.002,-0.605],"max":[0.02,0.037621,-0.587]},{"bufferView":21,"componentType":5126,"count":296,"type":"VEC3"},{"bufferView":22,"componentType":5126,"count":296,"type":"VEC2"},{"bufferView":23,"componentType":5125,"count":468,"type":"SCALAR"},{"bufferView":24,"componentType":5126,"count":702,"type":"VEC3","min":[-0.0205,-0.0025,-0.579],"max":[0.0205,0.0385,-0.565]},{"bufferView":25,"componentType":5126,"count":702,"type":"VEC3"},{"bufferView":26,"componentType":5126,"count":702,"type":"VEC2"},{"bufferView":27,"componentType":5125,"count":1152,"type":"SCALAR"},{"bufferView":28,"componentType":5126,"count":432,"type":"VEC3","min":[0.027,0.015,-0.095],"max":[0.036,0.045,-0.005]},{"bufferView":29,"componentType":5126,"count":432,"type":"VEC3"},{"bufferView":30,"componentType":5126,"count":432,"type":"VEC2"},{"bufferView":31,"componentType":5125,"count":648,"type":"SCALAR"},{"bufferView":32,"componentType":5126,"count":432,"type":"VEC3","min":[-0.028,0.022,-0.22],"max":[0.028,0.034,-0.09]},{"bufferView":33,"componentType":5126,"count":432,"type":"VEC3"},{"bufferView":34,"componentType":5126,"count":432,"type":"VEC2"},{"bufferView":35,"componentType":5125,"count":648,"type":"SCALAR"},{"bufferView":36,"componentType":5126,"count":3240,"type":"VEC3","min":[-0.042,-0.014,-0.355],"max":[0.042,0.039,-0.21]},{"bufferView":37,"componentType":5126,"count":3240,"type":"VEC3"},{"bufferView":38,"componentType":5126,"count":3240,"type":"VEC2"},{"bufferView":39,"componentType":5125,"count":4860,"type":"SCALAR"},{"bufferView":40,"componentType":5126,"count":864,"type":"VEC3","min":[-0.015,-0.075,-0.195],"max":[0.015,-0.028,0.025]},{"bufferView":41,"componentType":5126,"count":864,"type":"VEC3"},{"bufferView":42,"componentType":5126,"count":864,"type":"VEC2"},{"bufferView":43,"componentType":5125,"count":1320,"type":"SCALAR"},{"bufferView":44,"componentType":5126,"count":168,"type":"VEC3","min":[-0.01,-0.023,-0.009749],"max":[0.01,0.019,0.009749]},{"bufferView":45,"componentType":5126,"count":168,"type":"VEC3"},{"bufferView":46,"componentType":5126,"count":168,"type":"VEC2"},{"bufferView":47,"componentType":5125,"count":312,"type":"SCALAR"},{"bufferView":48,"componentType":5126,"count":252,"type":"VEC3","min":[-0.0118,0.019,-0.011504],"max":[0.0118,0.03275,0.011504]},{"bufferView":49,"componentType":5126,"count":252,"type":"VEC3"},{"bufferView":50,"componentType":5126,"count":252,"type":"VEC2"},{"bufferView":51,"componentType":5125,"count":492,"type":"SCALAR"},{"bufferView":52,"componentType":5126,"count":168,"type":"VEC3","min":[-0.01,-0.023,-0.009749],"max":[0.01,0.019,0.009749]},{"bufferView":53,"componentType":5126,"count":168,"type":"VEC3"},{"bufferView":54,"componentType":5126,"count":168,"type":"VEC2"},{"bufferView":55,"componentType":5125,"count":312,"type":"SCALAR"},{"bufferView":56,"componentType":5126,"count":252,"type":"VEC3","min":[-0.0118,0.019,-0.011504],"max":[0.0118,0.03275,0.011504]},{"bufferView":57,"componentType":5126,"count":252,"type":"VEC3"},{"bufferView":58,"componentType":5126,"count":252,"type":"VEC2"},{"bufferView":59,"componentType":5125,"count":492,"type":"SCALAR"},{"bufferView":60,"componentType":5126,"count":168,"type":"VEC3","min":[-0.01,-0.023,-0.009749],"max":[0.01,0.019,0.009749]},{"bufferView":61,"componentType":5126,"count":168,"type":"VEC3"},{"bufferView":62,"componentType":5126,"count":168,"type":"VEC2"},{"bufferView":63,"componentType":5125,"count":312,"type":"SCALAR"},{"bufferView":64,"componentType":5126,"count":252,"type":"VEC3","min":[-0.0118,0.019,-0.011504],"max":[0.0118,0.03275,0.011504]},{"bufferView":65,"componentType":5126,"count":252,"type":"VEC3"},{"bufferView":66,"componentType":5126,"count":252,"type":"VEC2"},{"bufferView":67,"componentType":5125,"count":492,"type":"SCALAR"}]}
