{"asset":{"version":"2.0","generator":"Voxel Blitz Blender runtime export"},"scene":0,"scenes":[{"nodes":[0,1,2,3,4,8,9,10,11,12]}],"nodes":[{"name":"body","mesh":0,"extras":{"blenderAsset":"peregrine"}},{"name":"mag","mesh":1,"extras":{"blenderAsset":"peregrine"}},{"name":"bolt","mesh":2,"extras":{"blenderAsset":"peregrine"}},{"name":"trigger","mesh":3,"extras":{"blenderAsset":"peregrine"}},{"name":"factory-optic","mesh":4,"extras":{"blenderAsset":"peregrine"}},{"name":"Stripper round 1","mesh":5,"translation":[0.0,0.115,-0.235],"extras":{"blenderAsset":"peregrine","role":"stripper round"}},{"name":"Stripper round 2","mesh":6,"translation":[0.0,0.131,-0.235],"extras":{"blenderAsset":"peregrine","role":"stripper round"}},{"name":"Stripper round 3","mesh":7,"translation":[0.0,0.147,-0.235],"extras":{"blenderAsset":"peregrine","role":"stripper round"}},{"name":"extra","extras":{"blenderAsset":"peregrine"},"children":[5,6,7]},{"name":"muzzle","extras":{"role":"gameplay mount marker"},"translation":[0.0,0.055,-0.76]},{"name":"grip","extras":{"role":"gameplay mount marker"},"translation":[0.045,0.02,-0.13]},{"name":"support","extras":{"role":"gameplay mount marker"},"translation":[-0.055,-0.01,-0.48]},{"name":"sight","extras":{"role":"gameplay mount marker"},"translation":[0.0,0.205,-0.25]}],"meshes":[{"name":"body","primitives":[{"attributes":{"POSITION":0,"NORMAL":1,"TEXCOORD_0":2},"indices":3,"material":0},{"attributes":{"POSITION":4,"NORMAL":5,"TEXCOORD_0":6},"indices":7,"material":1},{"attributes":{"POSITION":8,"NORMAL":9,"TEXCOORD_0":10},"indices":11,"material":2},{"attributes":{"POSITION":12,"NORMAL":13,"TEXCOORD_0":14},"indices":15,"material":3},{"attributes":{"POSITION":16,"NORMAL":17,"TEXCOORD_0":18},"indices":19,"material":4},{"attributes":{"POSITION":20,"NORMAL":21,"TEXCOORD_0":22},"indices":23,"material":5}]},{"name":"mag","primitives":[{"attributes":{"POSITION":24,"NORMAL":25,"TEXCOORD_0":26},"indices":27,"material":0},{"attributes":{"POSITION":28,"NORMAL":29,"TEXCOORD_0":30},"indices":31,"material":1},{"attributes":{"POSITION":32,"NORMAL":33,"TEXCOORD_0":34},"indices":35,"material":4}]},{"name":"bolt","primitives":[{"attributes":{"POSITION":36,"NORMAL":37,"TEXCOORD_0":38},"indices":39,"material":0},{"attributes":{"POSITION":40,"NORMAL":41,"TEXCOORD_0":42},"indices":43,"material":2}]},{"name":"trigger","primitives":[{"attributes":{"POSITION":44,"NORMAL":45,"TEXCOORD_0":46},"indices":47,"material":2}]},{"name":"factory-optic","primitives":[{"attributes":{"POSITION":48,"NORMAL":49,"TEXCOORD_0":50},"indices":51,"material":0},{"attributes":{"POSITION":52,"NORMAL":53,"TEXCOORD_0":54},"indices":55,"material":1},{"attributes":{"POSITION":56,"NORMAL":57,"TEXCOORD_0":58},"indices":59,"material":3},{"attributes":{"POSITION":60,"NORMAL":61,"TEXCOORD_0":62},"indices":63,"material":5}]},{"name":"Stripper round 1","primitives":[{"attributes":{"POSITION":64,"NORMAL":65,"TEXCOORD_0":66},"indices":67,"material":2}]},{"name":"Stripper round 2","primitives":[{"attributes":{"POSITION":68,"NORMAL":69,"TEXCOORD_0":70},"indices":71,"material":2}]},{"name":"Stripper round 3","primitives":[{"attributes":{"POSITION":72,"NORMAL":73,"TEXCOORD_0":74},"indices":75,"material":2}]}],"materials":[{"name":"PEREGRINE | gunmetal","pbrMetallicRoughness":{"baseColorFactor":[1,1,1,1],"metallicFactor":0.35,"roughnessFactor":0.53,"baseColorTexture":{"index":6}},"extras":{"partMaterial":"gunmetal","textureLibrary":"phosphated-steel","textureBumpScale":0.0003}},{"name":"PEREGRINE | rubber","pbrMetallicRoughness":{"baseColorFactor":[1,1,1,1],"metallicFactor":0,"roughnessFactor":0.84,"baseColorTexture":{"index":7}},"extras":{"partMaterial":"rubber","textureLibrary":"pebbled-rubber","textureBumpScale":0.0008}},{"name":"PEREGRINE | machined metal","pbrMetallicRoughness":{"baseColorFactor":[1,1,1,1],"metallicFactor":0.55,"roughnessFactor":0.36,"baseColorTexture":{"index":8}},"extras":{"partMaterial":"machined metal","textureLibrary":"machined-steel","textureBumpScale":0.00018}},{"name":"PEREGRINE | petrol coating","pbrMetallicRoughness":{"baseColorFactor":[1,1,1,1],"metallicFactor":0.16,"roughnessFactor":0.58,"baseColorTexture":{"index":9}},"extras":{"partMaterial":"petrol coating","textureLibrary":"petrol-paint","textureBumpScale":0.00045}},{"name":"PEREGRINE | orange paint","pbrMetallicRoughness":{"baseColorFactor":[1,1,1,1],"metallicFactor":0.14,"roughnessFactor":0.5,"baseColorTexture":{"index":10}},"extras":{"partMaterial":"orange paint","textureLibrary":"orange-paint","textureBumpScale":0.0004}},{"name":"PEREGRINE | ivory coating","pbrMetallicRoughness":{"baseColorFactor":[1,1,1,1],"metallicFactor":0.08,"roughnessFactor":0.62,"baseColorTexture":{"index":11}},"extras":{"partMaterial":"ivory coating","textureLibrary":"ivory-ceramic","textureBumpScale":0.0003}}],"images":[{"uri":"textures/worn-gunmetal.jpg"},{"uri":"textures/orange-painted-metal.jpg"},{"uri":"textures/ivory-armor.jpg"},{"uri":"textures/petrol-ballistic-fabric.jpg"},{"uri":"textures/tan-webbing.jpg"},{"uri":"textures/worn-rubber.jpg"},{"uri":"textures/palette/phosphated-steel.jpg","name":"textures/palette/phosphated-steel.jpg"},{"uri":"textures/palette/pebbled-rubber.jpg","name":"textures/palette/pebbled-rubber.jpg"},{"uri":"textures/palette/machined-steel.jpg","name":"textures/palette/machined-steel.jpg"},{"uri":"textures/palette/petrol-paint.jpg","name":"textures/palette/petrol-paint.jpg"},{"uri":"textures/palette/orange-paint.jpg","name":"textures/palette/orange-paint.jpg"},{"uri":"textures/palette/ivory-ceramic.jpg","name":"textures/palette/ivory-ceramic.jpg"}],"textures":[{"source":0,"sampler":0},{"source":1,"sampler":0},{"source":2,"sampler":0},{"source":3,"sampler":0},{"source":4,"sampler":0},{"source":5,"sampler":0},{"source":6,"sampler":0},{"source":7,"sampler":0},{"source":8,"sampler":0},{"source":9,"sampler":0},{"source":10,"sampler":0},{"source":11,"sampler":0}],"samplers":[{"magFilter":9729,"minFilter":9987,"wrapS":10497,"wrapT":10497}],"buffers":[{"uri":"peregrine.bin","byteLength":550048}],"bufferViews":[{"buffer":0,"byteOffset":0,"byteLength":29616,"target":34962},{"buffer":0,"byteOffset":29616,"byteLength":29616,"target":34962},{"buffer":0,"byteOffset":59232,"byteLength":19744,"target":34962},{"buffer":0,"byteOffset":78976,"byteLength":13104,"target":34963},{"buffer":0,"byteOffset":92080,"byteLength":22200,"target":34962},{"buffer":0,"byteOffset":114280,"byteLength":22200,"target":34962},{"buffer":0,"byteOffset":136480,"byteLength":14800,"target":34962},{"buffer":0,"byteOffset":151280,"byteLength":9408,"target":34963},{"buffer":0,"byteOffset":160688,"byteLength":4272,"target":34962},{"buffer":0,"byteOffset":164960,"byteLength":4272,"target":34962},{"buffer":0,"byteOffset":169232,"byteLength":2848,"target":34962},{"buffer":0,"byteOffset":172080,"byteLength":2112,"target":34963},{"buffer":0,"byteOffset":174192,"byteLength":3120,"target":34962},{"buffer":0,"byteOffset":177312,"byteLength":3120,"target":34962},{"buffer":0,"byteOffset":180432,"byteLength":2080,"target":34962},{"buffer":0,"byteOffset":182512,"byteLength":1344,"target":34963},{"buffer":0,"byteOffset":183856,"byteLength":8064,"target":34962},{"buffer":0,"byteOffset":191920,"byteLength":8064,"target":34962},{"buffer":0,"byteOffset":199984,"byteLength":5376,"target":34962},{"buffer":0,"byteOffset":205360,"byteLength":3168,"target":34963},{"buffer":0,"byteOffset":208528,"byteLength":5088,"target":34962},{"buffer":0,"byteOffset":213616,"byteLength":5088,"target":34962},{"buffer":0,"byteOffset":218704,"byteLength":3392,"target":34962},{"buffer":0,"byteOffset":222096,"byteLength":2208,"target":34963},{"buffer":0,"byteOffset":224304,"byteLength":1296,"target":34962},{"buffer":0,"byteOffset":225600,"byteLength":1296,"target":34962},{"buffer":0,"byteOffset":226896,"byteLength":864,"target":34962},{"buffer":0,"byteOffset":227760,"byteLength":528,"target":34963},{"buffer":0,"byteOffset":228288,"byteLength":5472,"target":34962},{"buffer":0,"byteOffset":233760,"byteLength":5472,"target":34962},{"buffer":0,"byteOffset":239232,"byteLength":3648,"target":34962},{"buffer":0,"byteOffset":242880,"byteLength":2112,"target":34963},{"buffer":0,"byteOffset":244992,"byteLength":1392,"target":34962},{"buffer":0,"byteOffset":246384,"byteLength":1392,"target":34962},{"buffer":0,"byteOffset":247776,"byteLength":928,"target":34962},{"buffer":0,"byteOffset":248704,"byteLength":528,"target":34963},{"buffer":0,"byteOffset":249232,"byteLength":5304,"target":34962},{"buffer":0,"byteOffset":254536,"byteLength":5304,"target":34962},{"buffer":0,"byteOffset":259840,"byteLength":3536,"target":34962},{"buffer":0,"byteOffset":263376,"byteLength":2208,"target":34963},{"buffer":0,"byteOffset":265584,"byteLength":9312,"target":34962},{"buffer":0,"byteOffset":274896,"byteLength":9312,"target":34962},{"buffer":0,"byteOffset":284208,"byteLength":6208,"target":34962},{"buffer":0,"byteOffset":290416,"byteLength":3888,"target":34963},{"buffer":0,"byteOffset":294304,"byteLength":1992,"target":34962},{"buffer":0,"byteOffset":296296,"byteLength":1992,"target":34962},{"buffer":0,"byteOffset":298288,"byteLength":1328,"target":34962},{"buffer":0,"byteOffset":299616,"byteLength":816,"target":34963},{"buffer":0,"byteOffset":300432,"byteLength":47316,"target":34962},{"buffer":0,"byteOffset":347748,"byteLength":47316,"target":34962},{"buffer":0,"byteOffset":395064,"byteLength":31544,"target":34962},{"buffer":0,"byteOffset":426608,"byteLength":19344,"target":34963},{"buffer":0,"byteOffset":445952,"byteLength":10344,"target":34962},{"buffer":0,"byteOffset":456296,"byteLength":10344,"target":34962},{"buffer":0,"byteOffset":466640,"byteLength":6896,"target":34962},{"buffer":0,"byteOffset":473536,"byteLength":5136,"target":34963},{"buffer":0,"byteOffset":478672,"byteLength":4032,"target":34962},{"buffer":0,"byteOffset":482704,"byteLength":4032,"target":34962},{"buffer":0,"byteOffset":486736,"byteLength":2688,"target":34962},{"buffer":0,"byteOffset":489424,"byteLength":2304,"target":34963},{"buffer":0,"byteOffset":491728,"byteLength":9000,"target":34962},{"buffer":0,"byteOffset":500728,"byteLength":9000,"target":34962},{"buffer":0,"byteOffset":509728,"byteLength":6000,"target":34962},{"buffer":0,"byteOffset":515728,"byteLength":4416,"target":34963},{"buffer":0,"byteOffset":520144,"byteLength":3216,"target":34962},{"buffer":0,"byteOffset":523360,"byteLength":3216,"target":34962},{"buffer":0,"byteOffset":526576,"byteLength":2144,"target":34962},{"buffer":0,"byteOffset":528720,"byteLength":1392,"target":34963},{"buffer":0,"byteOffset":530112,"byteLength":3216,"target":34962},{"buffer":0,"byteOffset":533328,"byteLength":3216,"target":34962},{"buffer":0,"byteOffset":536544,"byteLength":2144,"target":34962},{"buffer":0,"byteOffset":538688,"byteLength":1392,"target":34963},{"buffer":0,"byteOffset":540080,"byteLength":3216,"target":34962},{"buffer":0,"byteOffset":543296,"byteLength":3216,"target":34962},{"buffer":0,"byteOffset":546512,"byteLength":2144,"target":34962},{"buffer":0,"byteOffset":548656,"byteLength":1392,"target":34963}],"accessors":[{"bufferView":0,"componentType":5126,"count":2468,"type":"VEC3","min":[-0.0495,-0.147697,-0.726],"max":[0.0495,0.138,0.37]},{"bufferView":1,"componentType":5126,"count":2468,"type":"VEC3"},{"bufferView":2,"componentType":5126,"count":2468,"type":"VEC2"},{"bufferView":3,"componentType":5125,"count":3276,"type":"SCALAR"},{"bufferView":4,"componentType":5126,"count":1850,"type":"VEC3","min":[-0.0563,-0.142451,-0.7485],"max":[0.0563,0.086,0.408]},{"bufferView":5,"componentType":5126,"count":1850,"type":"VEC3"},{"bufferView":6,"componentType":5126,"count":1850,"type":"VEC2"},{"bufferView":7,"componentType":5125,"count":2352,"type":"SCALAR"},{"bufferView":8,"componentType":5126,"count":356,"type":"VEC3","min":[-0.0485,0.059619,-0.255381],"max":[0.0485,0.066381,-0.037619]},{"bufferView":9,"componentType":5126,"count":356,"type":"VEC3"},{"bufferView":10,"componentType":5126,"count":356,"type":"VEC2"},{"bufferView":11,"componentType":5125,"count":528,"type":"SCALAR"},{"bufferView":12,"componentType":5126,"count":260,"type":"VEC3","min":[-0.055,-0.037,-0.55],"max":[0.055,0.1255,0.3505]},{"bufferView":13,"componentType":5126,"count":260,"type":"VEC3"},{"bufferView":14,"componentType":5126,"count":260,"type":"VEC2"},{"bufferView":15,"componentType":5125,"count":336,"type":"SCALAR"},{"bufferView":16,"componentType":5126,"count":672,"type":"VEC3","min":[-0.0575,0.015,-0.5375],"max":[0.0575,0.0605,0.135]},{"bufferView":17,"componentType":5126,"count":672,"type":"VEC3"},{"bufferView":18,"componentType":5126,"count":672,"type":"VEC2"},{"bufferView":19,"componentType":5125,"count":792,"type":"SCALAR"},{"bufferView":20,"componentType":5126,"count":424,"type":"VEC3","min":[-0.0525,-0.076,-0.76],"max":[0.0525,0.09,0.3875]},{"bufferView":21,"componentType":5126,"count":424,"type":"VEC3"},{"bufferView":22,"componentType":5126,"count":424,"type":"VEC2"},{"bufferView":23,"componentType":5125,"count":552,"type":"SCALAR"},{"bufferView":24,"componentType":5126,"count":108,"type":"VEC3","min":[-0.03,-0.121837,-0.281933],"max":[0.03,-0.027,-0.214084]},{"bufferView":25,"componentType":5126,"count":108,"type":"VEC3"},{"bufferView":26,"componentType":5126,"count":108,"type":"VEC2"},{"bufferView":27,"componentType":5125,"count":132,"type":"SCALAR"},{"bufferView":28,"componentType":5126,"count":456,"type":"VEC3","min":[-0.032,-0.111,-0.2605],"max":[0.032,-0.045,-0.2295]},{"bufferView":29,"componentType":5126,"count":456,"type":"VEC3"},{"bufferView":30,"componentType":5126,"count":456,"type":"VEC2"},{"bufferView":31,"componentType":5125,"count":528,"type":"SCALAR"},{"bufferView":32,"componentType":5126,"count":116,"type":"VEC3","min":[-0.034,-0.1285,-0.2865],"max":[0.034,-0.1175,-0.2115]},{"bufferView":33,"componentType":5126,"count":116,"type":"VEC3"},{"bufferView":34,"componentType":5126,"count":116,"type":"VEC2"},{"bufferView":35,"componentType":5125,"count":132,"type":"SCALAR"},{"bufferView":36,"componentType":5126,"count":442,"type":"VEC3","min":[-0.079,0.062,-0.0405],"max":[0.018353,0.134353,-0.0015]},{"bufferView":37,"componentType":5126,"count":442,"type":"VEC3"},{"bufferView":38,"componentType":5126,"count":442,"type":"VEC2"},{"bufferView":39,"componentType":5125,"count":552,"type":"SCALAR"},{"bufferView":40,"componentType":5126,"count":776,"type":"VEC3","min":[-0.086489,0.041511,-0.225],"max":[0.014489,0.130489,-0.021]},{"bufferView":41,"componentType":5126,"count":776,"type":"VEC3"},{"bufferView":42,"componentType":5126,"count":776,"type":"VEC2"},{"bufferView":43,"componentType":5125,"count":972,"type":"SCALAR"},{"bufferView":44,"componentType":5126,"count":166,"type":"VEC3","min":[-0.006,-0.039747,-0.176932],"max":[0.006,0.012887,-0.155358]},{"bufferView":45,"componentType":5126,"count":166,"type":"VEC3"},{"bufferView":46,"componentType":5126,"count":166,"type":"VEC2"},{"bufferView":47,"componentType":5125,"count":204,"type":"SCALAR"},{"bufferView":48,"componentType":5126,"count":3943,"type":"VEC3","min":[-0.048296,0.1315,-0.3434],"max":[0.048296,0.2555,0.01496]},{"bufferView":49,"componentType":5126,"count":3943,"type":"VEC3"},{"bufferView":50,"componentType":5126,"count":3943,"type":"VEC2"},{"bufferView":51,"componentType":5125,"count":4836,"type":"SCALAR"},{"bufferView":52,"componentType":5126,"count":862,"type":"VEC3","min":[-0.049262,0.155738,-0.34544],"max":[0.049262,0.2565,0.01768]},{"bufferView":53,"componentType":5126,"count":862,"type":"VEC3"},{"bufferView":54,"componentType":5126,"count":862,"type":"VEC2"},{"bufferView":55,"componentType":5125,"count":1284,"type":"SCALAR"},{"bufferView":56,"componentType":5126,"count":336,"type":"VEC3","min":[-0.049262,0.155738,-0.33796],"max":[0.049262,0.254262,0.00748]},{"bufferView":57,"componentType":5126,"count":336,"type":"VEC3"},{"bufferView":58,"componentType":5126,"count":336,"type":"VEC2"},{"bufferView":59,"componentType":5125,"count":576,"type":"SCALAR"},{"bufferView":60,"componentType":5126,"count":750,"type":"VEC3","min":[-0.035,0.14,-0.17136],"max":[0.035,0.23591,-0.03332]},{"bufferView":61,"componentType":5126,"count":750,"type":"VEC3"},{"bufferView":62,"componentType":5126,"count":750,"type":"VEC2"},{"bufferView":63,"componentType":5125,"count":1104,"type":"SCALAR"},{"bufferView":64,"componentType":5126,"count":268,"type":"VEC3","min":[-0.005706,-0.005845,-0.031],"max":[0.005706,0.005845,0.031]},{"bufferView":65,"componentType":5126,"count":268,"type":"VEC3"},{"bufferView":66,"componentType":5126,"count":268,"type":"VEC2"},{"bufferView":67,"componentType":5125,"count":348,"type":"SCALAR"},{"bufferView":68,"componentType":5126,"count":268,"type":"VEC3","min":[-0.005706,-0.005845,-0.031],"max":[0.005706,0.005845,0.031]},{"bufferView":69,"componentType":5126,"count":268,"type":"VEC3"},{"bufferView":70,"componentType":5126,"count":268,"type":"VEC2"},{"bufferView":71,"componentType":5125,"count":348,"type":"SCALAR"},{"bufferView":72,"componentType":5126,"count":268,"type":"VEC3","min":[-0.005706,-0.005845,-0.031],"max":[0.005706,0.005845,0.031]},{"bufferView":73,"componentType":5126,"count":268,"type":"VEC3"},{"bufferView":74,"componentType":5126,"count":268,"type":"VEC2"},{"bufferView":75,"componentType":5125,"count":348,"type":"SCALAR"}]}
