{"asset":{"version":"2.0","generator":"Voxel Blitz Blender runtime export"},"scene":0,"scenes":[{"nodes":[0,1,2,3,4,5,6,7,8,9]}],"nodes":[{"name":"body","mesh":0,"extras":{"blenderAsset":"pike"}},{"name":"mag","mesh":1,"extras":{"blenderAsset":"pike"}},{"name":"bolt","mesh":2,"extras":{"blenderAsset":"pike"}},{"name":"trigger","mesh":3,"extras":{"blenderAsset":"pike"}},{"name":"factory-optic","mesh":4,"extras":{"blenderAsset":"pike"}},{"name":"extra","extras":{"blenderAsset":"pike"},"children":[]},{"name":"grip","extras":{"role":"gameplay mount marker"},"translation":[0.045,0.015,-0.1]},{"name":"muzzle","extras":{"role":"gameplay mount marker"},"translation":[0.0,0.055,-0.72]},{"name":"sight","extras":{"role":"gameplay mount marker"},"translation":[0.0,0.155,-0.1]},{"name":"support","extras":{"role":"gameplay mount marker"},"translation":[-0.055,0.005,-0.42]}],"meshes":[{"name":"body","primitives":[{"attributes":{"POSITION":0,"NORMAL":1,"TEXCOORD_0":2},"indices":3,"material":0},{"attributes":{"POSITION":4,"NORMAL":5,"TEXCOORD_0":6},"indices":7,"material":1},{"attributes":{"POSITION":8,"NORMAL":9,"TEXCOORD_0":10},"indices":11,"material":2},{"attributes":{"POSITION":12,"NORMAL":13,"TEXCOORD_0":14},"indices":15,"material":3},{"attributes":{"POSITION":16,"NORMAL":17,"TEXCOORD_0":18},"indices":19,"material":4},{"attributes":{"POSITION":20,"NORMAL":21,"TEXCOORD_0":22},"indices":23,"material":5},{"attributes":{"POSITION":24,"NORMAL":25,"TEXCOORD_0":26},"indices":27,"material":6}]},{"name":"mag","primitives":[{"attributes":{"POSITION":28,"NORMAL":29,"TEXCOORD_0":30},"indices":31,"material":0},{"attributes":{"POSITION":32,"NORMAL":33,"TEXCOORD_0":34},"indices":35,"material":1},{"attributes":{"POSITION":36,"NORMAL":37,"TEXCOORD_0":38},"indices":39,"material":2}]},{"name":"bolt","primitives":[{"attributes":{"POSITION":40,"NORMAL":41,"TEXCOORD_0":42},"indices":43,"material":1},{"attributes":{"POSITION":44,"NORMAL":45,"TEXCOORD_0":46},"indices":47,"material":2},{"attributes":{"POSITION":48,"NORMAL":49,"TEXCOORD_0":50},"indices":51,"material":4},{"attributes":{"POSITION":52,"NORMAL":53,"TEXCOORD_0":54},"indices":55,"material":5}]},{"name":"trigger","primitives":[{"attributes":{"POSITION":56,"NORMAL":57,"TEXCOORD_0":58},"indices":59,"material":2},{"attributes":{"POSITION":60,"NORMAL":61,"TEXCOORD_0":62},"indices":63,"material":4}]},{"name":"factory-optic","primitives":[{"attributes":{"POSITION":64,"NORMAL":65,"TEXCOORD_0":66},"indices":67,"material":0},{"attributes":{"POSITION":68,"NORMAL":69,"TEXCOORD_0":70},"indices":71,"material":1},{"attributes":{"POSITION":72,"NORMAL":73,"TEXCOORD_0":74},"indices":75,"material":4}]}],"materials":[{"name":"PIKE | dark polymer","pbrMetallicRoughness":{"baseColorFactor":[1,1,1,1],"metallicFactor":0.02,"roughnessFactor":0.7,"baseColorTexture":{"index":5}},"extras":{"partMaterial":"dark polymer","textureLibrary":"molded-polymer","textureBumpScale":0.00055}},{"name":"PIKE | arc glow","pbrMetallicRoughness":{"baseColorFactor":[0.1,0.05,0.16,1.0],"metallicFactor":0.0,"roughnessFactor":0.3499999940395355},"extras":{"partMaterial":"arc glow","cosmeticGlow":true},"emissiveFactor":[1.0,0.625,1.0]},{"name":"PIKE | copper rail","pbrMetallicRoughness":{"baseColorFactor":[1,1,1,1],"metallicFactor":0.58,"roughnessFactor":0.43,"baseColorTexture":{"index":6}},"extras":{"partMaterial":"copper rail","textureLibrary":"aged-copper","textureBumpScale":0.0002}},{"name":"PIKE | rubber","pbrMetallicRoughness":{"baseColorFactor":[1,1,1,1],"metallicFactor":0,"roughnessFactor":0.84,"baseColorTexture":{"index":7}},"extras":{"partMaterial":"rubber","textureLibrary":"pebbled-rubber","textureBumpScale":0.0008}},{"name":"PIKE | gunmetal","pbrMetallicRoughness":{"baseColorFactor":[1,1,1,1],"metallicFactor":0.35,"roughnessFactor":0.53,"baseColorTexture":{"index":8}},"extras":{"partMaterial":"gunmetal","textureLibrary":"phosphated-steel","textureBumpScale":0.0003}},{"name":"PIKE | blued steel","pbrMetallicRoughness":{"baseColorFactor":[1,1,1,1],"metallicFactor":0.4,"roughnessFactor":0.46,"baseColorTexture":{"index":9}},"extras":{"partMaterial":"blued steel","textureLibrary":"blued-steel","textureBumpScale":0.00025}},{"name":"PIKE | dark marking","pbrMetallicRoughness":{"baseColorFactor":[0.45,0.47,0.52,1],"metallicFactor":0.6000000238418579,"roughnessFactor":0.5,"baseColorTexture":{"index":0}},"extras":{"partMaterial":"dark marking"}}],"images":[{"uri":"textures/ivory-armor.jpg"},{"uri":"textures/orange-painted-metal.jpg"},{"uri":"textures/petrol-ballistic-fabric.jpg"},{"uri":"textures/worn-gunmetal.jpg"},{"uri":"textures/worn-rubber.jpg"},{"uri":"textures/palette/molded-polymer.jpg","name":"textures/palette/molded-polymer.jpg"},{"uri":"textures/palette/aged-copper.jpg","name":"textures/palette/aged-copper.jpg"},{"uri":"textures/palette/pebbled-rubber.jpg","name":"textures/palette/pebbled-rubber.jpg"},{"uri":"textures/palette/phosphated-steel.jpg","name":"textures/palette/phosphated-steel.jpg"},{"uri":"textures/palette/blued-steel.jpg","name":"textures/palette/blued-steel.jpg"}],"textures":[{"source":0,"sampler":0},{"source":1,"sampler":0},{"source":2,"sampler":0},{"source":3,"sampler":0},{"source":4,"sampler":0},{"source":5,"sampler":0},{"source":6,"sampler":0},{"source":7,"sampler":0},{"source":8,"sampler":0},{"source":9,"sampler":0}],"samplers":[{"magFilter":9729,"minFilter":9987,"wrapS":10497,"wrapT":10497}],"buffers":[{"uri":"pike.bin","byteLength":755296}],"bufferViews":[{"buffer":0,"byteOffset":0,"byteLength":19200,"target":34962},{"buffer":0,"byteOffset":19200,"byteLength":19200,"target":34962},{"buffer":0,"byteOffset":38400,"byteLength":12800,"target":34962},{"buffer":0,"byteOffset":51200,"byteLength":9648,"target":34963},{"buffer":0,"byteOffset":60848,"byteLength":14400,"target":34962},{"buffer":0,"byteOffset":75248,"byteLength":14400,"target":34962},{"buffer":0,"byteOffset":89648,"byteLength":9600,"target":34962},{"buffer":0,"byteOffset":99248,"byteLength":7680,"target":34963},{"buffer":0,"byteOffset":106928,"byteLength":14016,"target":34962},{"buffer":0,"byteOffset":120944,"byteLength":14016,"target":34962},{"buffer":0,"byteOffset":134960,"byteLength":9344,"target":34962},{"buffer":0,"byteOffset":144304,"byteLength":8256,"target":34963},{"buffer":0,"byteOffset":152560,"byteLength":44448,"target":34962},{"buffer":0,"byteOffset":197008,"byteLength":44448,"target":34962},{"buffer":0,"byteOffset":241456,"byteLength":29632,"target":34962},{"buffer":0,"byteOffset":271088,"byteLength":23376,"target":34963},{"buffer":0,"byteOffset":294464,"byteLength":68808,"target":34962},{"buffer":0,"byteOffset":363272,"byteLength":68808,"target":34962},{"buffer":0,"byteOffset":432080,"byteLength":45872,"target":34962},{"buffer":0,"byteOffset":477952,"byteLength":42576,"target":34963},{"buffer":0,"byteOffset":520528,"byteLength":9792,"target":34962},{"buffer":0,"byteOffset":530320,"byteLength":9792,"target":34962},{"buffer":0,"byteOffset":540112,"byteLength":6528,"target":34962},{"buffer":0,"byteOffset":546640,"byteLength":5040,"target":34963},{"buffer":0,"byteOffset":551680,"byteLength":9216,"target":34962},{"buffer":0,"byteOffset":560896,"byteLength":9216,"target":34962},{"buffer":0,"byteOffset":570112,"byteLength":6144,"target":34962},{"buffer":0,"byteOffset":576256,"byteLength":6240,"target":34963},{"buffer":0,"byteOffset":582496,"byteLength":2592,"target":34962},{"buffer":0,"byteOffset":585088,"byteLength":2592,"target":34962},{"buffer":0,"byteOffset":587680,"byteLength":1728,"target":34962},{"buffer":0,"byteOffset":589408,"byteLength":1296,"target":34963},{"buffer":0,"byteOffset":590704,"byteLength":864,"target":34962},{"buffer":0,"byteOffset":591568,"byteLength":864,"target":34962},{"buffer":0,"byteOffset":592432,"byteLength":576,"target":34962},{"buffer":0,"byteOffset":593008,"byteLength":432,"target":34963},{"buffer":0,"byteOffset":593440,"byteLength":7776,"target":34962},{"buffer":0,"byteOffset":601216,"byteLength":7776,"target":34962},{"buffer":0,"byteOffset":608992,"byteLength":5184,"target":34962},{"buffer":0,"byteOffset":614176,"byteLength":3888,"target":34963},{"buffer":0,"byteOffset":618064,"byteLength":288,"target":34962},{"buffer":0,"byteOffset":618352,"byteLength":288,"target":34962},{"buffer":0,"byteOffset":618640,"byteLength":192,"target":34962},{"buffer":0,"byteOffset":618832,"byteLength":144,"target":34963},{"buffer":0,"byteOffset":618976,"byteLength":5184,"target":34962},{"buffer":0,"byteOffset":624160,"byteLength":5184,"target":34962},{"buffer":0,"byteOffset":629344,"byteLength":3456,"target":34962},{"buffer":0,"byteOffset":632800,"byteLength":2592,"target":34963},{"buffer":0,"byteOffset":635392,"byteLength":11376,"target":34962},{"buffer":0,"byteOffset":646768,"byteLength":11376,"target":34962},{"buffer":0,"byteOffset":658144,"byteLength":7584,"target":34962},{"buffer":0,"byteOffset":665728,"byteLength":6096,"target":34963},{"buffer":0,"byteOffset":671824,"byteLength":2592,"target":34962},{"buffer":0,"byteOffset":674416,"byteLength":2592,"target":34962},{"buffer":0,"byteOffset":677008,"byteLength":1728,"target":34962},{"buffer":0,"byteOffset":678736,"byteLength":1296,"target":34963},{"buffer":0,"byteOffset":680032,"byteLength":2592,"target":34962},{"buffer":0,"byteOffset":682624,"byteLength":2592,"target":34962},{"buffer":0,"byteOffset":685216,"byteLength":1728,"target":34962},{"buffer":0,"byteOffset":686944,"byteLength":1296,"target":34963},{"buffer":0,"byteOffset":688240,"byteLength":7776,"target":34962},{"buffer":0,"byteOffset":696016,"byteLength":7776,"target":34962},{"buffer":0,"byteOffset":703792,"byteLength":5184,"target":34962},{"buffer":0,"byteOffset":708976,"byteLength":3984,"target":34963},{"buffer":0,"byteOffset":712960,"byteLength":2592,"target":34962},{"buffer":0,"byteOffset":715552,"byteLength":2592,"target":34962},{"buffer":0,"byteOffset":718144,"byteLength":1728,"target":34962},{"buffer":0,"byteOffset":719872,"byteLength":1296,"target":34963},{"buffer":0,"byteOffset":721168,"byteLength":288,"target":34962},{"buffer":0,"byteOffset":721456,"byteLength":288,"target":34962},{"buffer":0,"byteOffset":721744,"byteLength":192,"target":34962},{"buffer":0,"byteOffset":721936,"byteLength":144,"target":34963},{"buffer":0,"byteOffset":722080,"byteLength":10368,"target":34962},{"buffer":0,"byteOffset":732448,"byteLength":10368,"target":34962},{"buffer":0,"byteOffset":742816,"byteLength":6912,"target":34962},{"buffer":0,"byteOffset":749728,"byteLength":5568,"target":34963}],"accessors":[{"bufferView":0,"componentType":5126,"count":1600,"type":"VEC3","min":[-0.04,-0.128907,-0.437131],"max":[0.04,0.065,0.263]},{"bufferView":1,"componentType":5126,"count":1600,"type":"VEC3"},{"bufferView":2,"componentType":5126,"count":1600,"type":"VEC2"},{"bufferView":3,"componentType":5125,"count":2412,"type":"SCALAR"},{"bufferView":4,"componentType":5126,"count":1200,"type":"VEC3","min":[-0.049,0.004,-0.692],"max":[0.0365,0.086,-0.065]},{"bufferView":5,"componentType":5126,"count":1200,"type":"VEC3"},{"bufferView":6,"componentType":5126,"count":1200,"type":"VEC2"},{"bufferView":7,"componentType":5125,"count":1920,"type":"SCALAR"},{"bufferView":8,"componentType":5126,"count":1168,"type":"VEC3","min":[-0.049,-0.014,-0.719],"max":[0.049,0.089,0.02]},{"bufferView":9,"componentType":5126,"count":1168,"type":"VEC3"},{"bufferView":10,"componentType":5126,"count":1168,"type":"VEC2"},{"bufferView":11,"componentType":5125,"count":2064,"type":"SCALAR"},{"bufferView":12,"componentType":5126,"count":3704,"type":"VEC3","min":[-0.062,-0.089,-0.719],"max":[0.062,0.0865,0.275]},{"bufferView":13,"componentType":5126,"count":3704,"type":"VEC3"},{"bufferView":14,"componentType":5126,"count":3704,"type":"VEC2"},{"bufferView":15,"componentType":5125,"count":5844,"type":"SCALAR"},{"bufferView":16,"componentType":5126,"count":5734,"type":"VEC3","min":[-0.052,-0.141002,-0.72],"max":[0.052,0.1,0.177]},{"bufferView":17,"componentType":5126,"count":5734,"type":"VEC3"},{"bufferView":18,"componentType":5126,"count":5734,"type":"VEC2"},{"bufferView":19,"componentType":5125,"count":10644,"type":"SCALAR"},{"bufferView":20,"componentType":5126,"count":816,"type":"VEC3","min":[-0.03,-0.01644,-0.207],"max":[0.0475,0.103,0.25]},{"bufferView":21,"componentType":5126,"count":816,"type":"VEC3"},{"bufferView":22,"componentType":5126,"count":816,"type":"VEC2"},{"bufferView":23,"componentType":5125,"count":1260,"type":"SCALAR"},{"bufferView":24,"componentType":5126,"count":768,"type":"VEC3","min":[-0.0477,-0.00315,-0.089754],"max":[0.0477,0.004011,0.013743]},{"bufferView":25,"componentType":5126,"count":768,"type":"VEC3"},{"bufferView":26,"componentType":5126,"count":768,"type":"VEC2"},{"bufferView":27,"componentType":5125,"count":1560,"type":"SCALAR"},{"bufferView":28,"componentType":5126,"count":216,"type":"VEC3","min":[-0.03,-0.122114,-0.175948],"max":[0.03,-0.021886,-0.094052]},{"bufferView":29,"componentType":5126,"count":216,"type":"VEC3"},{"bufferView":30,"componentType":5126,"count":216,"type":"VEC2"},{"bufferView":31,"componentType":5125,"count":324,"type":"SCALAR"},{"bufferView":32,"componentType":5126,"count":72,"type":"VEC3","min":[-0.022,-0.100144,-0.175895],"max":[0.022,-0.049856,-0.171105]},{"bufferView":33,"componentType":5126,"count":72,"type":"VEC3"},{"bufferView":34,"componentType":5126,"count":72,"type":"VEC2"},{"bufferView":35,"componentType":5125,"count":108,"type":"SCALAR"},{"bufferView":36,"componentType":5126,"count":648,"type":"VEC3","min":[-0.028,-0.151308,-0.142],"max":[0.028,-0.016,-0.119857]},{"bufferView":37,"componentType":5126,"count":648,"type":"VEC3"},{"bufferView":38,"componentType":5126,"count":648,"type":"VEC2"},{"bufferView":39,"componentType":5125,"count":972,"type":"SCALAR"},{"bufferView":40,"componentType":5126,"count":24,"type":"VEC3","min":[-0.015,0.061,-0.04],"max":[0.015,0.071,-0.032]},{"bufferView":41,"componentType":5126,"count":24,"type":"VEC3"},{"bufferView":42,"componentType":5126,"count":24,"type":"VEC2"},{"bufferView":43,"componentType":5125,"count":36,"type":"SCALAR"},{"bufferView":44,"componentType":5126,"count":432,"type":"VEC3","min":[-0.034,0.018,-0.042],"max":[0.034,0.074,-0.022]},{"bufferView":45,"componentType":5126,"count":432,"type":"VEC3"},{"bufferView":46,"componentType":5126,"count":432,"type":"VEC2"},{"bufferView":47,"componentType":5125,"count":648,"type":"SCALAR"},{"bufferView":48,"componentType":5126,"count":948,"type":"VEC3","min":[-0.103,0.030783,-0.047547],"max":[-0.013,0.061217,-0.016453]},{"bufferView":49,"componentType":5126,"count":948,"type":"VEC3"},{"bufferView":50,"componentType":5126,"count":948,"type":"VEC2"},{"bufferView":51,"componentType":5125,"count":1524,"type":"SCALAR"},{"bufferView":52,"componentType":5126,"count":216,"type":"VEC3","min":[-0.026,0.024,-0.057],"max":[0.026,0.064,-0.007]},{"bufferView":53,"componentType":5126,"count":216,"type":"VEC3"},{"bufferView":54,"componentType":5126,"count":216,"type":"VEC2"},{"bufferView":55,"componentType":5125,"count":324,"type":"SCALAR"},{"bufferView":56,"componentType":5126,"count":216,"type":"VEC3","min":[-0.006,-0.021328,-0.149894],"max":[0.006,-0.006672,-0.140106]},{"bufferView":57,"componentType":5126,"count":216,"type":"VEC3"},{"bufferView":58,"componentType":5126,"count":216,"type":"VEC2"},{"bufferView":59,"componentType":5125,"count":324,"type":"SCALAR"},{"bufferView":60,"componentType":5126,"count":648,"type":"VEC3","min":[-0.015,-0.07,-0.18],"max":[0.015,0.008,-0.095]},{"bufferView":61,"componentType":5126,"count":648,"type":"VEC3"},{"bufferView":62,"componentType":5126,"count":648,"type":"VEC2"},{"bufferView":63,"componentType":5125,"count":996,"type":"SCALAR"},{"bufferView":64,"componentType":5126,"count":216,"type":"VEC3","min":[-0.024,0.16,0.056],"max":[0.024,0.168,0.064]},{"bufferView":65,"componentType":5126,"count":216,"type":"VEC3"},{"bufferView":66,"componentType":5126,"count":216,"type":"VEC2"},{"bufferView":67,"componentType":5125,"count":324,"type":"SCALAR"},{"bufferView":68,"componentType":5126,"count":24,"type":"VEC3","min":[-0.004,0.151,-0.696],"max":[0.004,0.159,-0.688]},{"bufferView":69,"componentType":5126,"count":24,"type":"VEC3"},{"bufferView":70,"componentType":5126,"count":24,"type":"VEC2"},{"bufferView":71,"componentType":5125,"count":36,"type":"SCALAR"},{"bufferView":72,"componentType":5126,"count":864,"type":"VEC3","min":[-0.02,0.081,-0.704],"max":[0.02,0.175,0.08]},{"bufferView":73,"componentType":5126,"count":864,"type":"VEC3"},{"bufferView":74,"componentType":5126,"count":864,"type":"VEC2"},{"bufferView":75,"componentType":5125,"count":1392,"type":"SCALAR"}]}
