{"asset":{"version":"2.0","generator":"Voxel Blitz Blender runtime export"},"scene":0,"scenes":[{"nodes":[0,1,2,3,4,5,6,7,8,9,10,11,12,13,14,15,16]}],"nodes":[{"name":"head","mesh":0,"extras":{"blenderAsset":"rivet"}},{"name":"hips","mesh":1,"extras":{"blenderAsset":"rivet"}},{"name":"lArm","mesh":2,"extras":{"blenderAsset":"rivet"}},{"name":"lBoot","mesh":3,"extras":{"blenderAsset":"rivet"}},{"name":"lElbow","mesh":4,"extras":{"blenderAsset":"rivet"}},{"name":"lHand","mesh":5,"extras":{"blenderAsset":"rivet"}},{"name":"lKnee","mesh":6,"extras":{"blenderAsset":"rivet"}},{"name":"lThigh","mesh":7,"extras":{"blenderAsset":"rivet"}},{"name":"pack","mesh":8,"extras":{"blenderAsset":"rivet"}},{"name":"pouches","mesh":9,"extras":{"blenderAsset":"rivet"}},{"name":"rArm","mesh":10,"extras":{"blenderAsset":"rivet"}},{"name":"rBoot","mesh":11,"extras":{"blenderAsset":"rivet"}},{"name":"rElbow","mesh":12,"extras":{"blenderAsset":"rivet"}},{"name":"rHand","mesh":13,"extras":{"blenderAsset":"rivet"}},{"name":"rKnee","mesh":14,"extras":{"blenderAsset":"rivet"}},{"name":"rThigh","mesh":15,"extras":{"blenderAsset":"rivet"}},{"name":"torso","mesh":16,"extras":{"blenderAsset":"rivet"}}],"meshes":[{"name":"head","primitives":[{"attributes":{"POSITION":0,"NORMAL":1,"TEXCOORD_0":2},"indices":3,"material":1},{"attributes":{"POSITION":4,"NORMAL":5,"TEXCOORD_0":6},"indices":7,"material":2},{"attributes":{"POSITION":8,"NORMAL":9,"TEXCOORD_0":10},"indices":11,"material":3},{"attributes":{"POSITION":12,"NORMAL":13,"TEXCOORD_0":14},"indices":15,"material":4},{"attributes":{"POSITION":16,"NORMAL":17,"TEXCOORD_0":18},"indices":19,"material":8},{"attributes":{"POSITION":20,"NORMAL":21,"TEXCOORD_0":22},"indices":23,"material":9},{"attributes":{"POSITION":24,"NORMAL":25,"TEXCOORD_0":26},"indices":27,"material":10}]},{"name":"hips","primitives":[{"attributes":{"POSITION":28,"NORMAL":29,"TEXCOORD_0":30},"indices":31,"material":0},{"attributes":{"POSITION":32,"NORMAL":33,"TEXCOORD_0":34},"indices":35,"material":2},{"attributes":{"POSITION":36,"NORMAL":37,"TEXCOORD_0":38},"indices":39,"material":3},{"attributes":{"POSITION":40,"NORMAL":41,"TEXCOORD_0":42},"indices":43,"material":4},{"attributes":{"POSITION":44,"NORMAL":45,"TEXCOORD_0":46},"indices":47,"material":5}]},{"name":"lArm","primitives":[{"attributes":{"POSITION":48,"NORMAL":49,"TEXCOORD_0":50},"indices":51,"material":0},{"attributes":{"POSITION":52,"NORMAL":53,"TEXCOORD_0":54},"indices":55,"material":2},{"attributes":{"POSITION":56,"NORMAL":57,"TEXCOORD_0":58},"indices":59,"material":5},{"attributes":{"POSITION":60,"NORMAL":61,"TEXCOORD_0":62},"indices":63,"material":7}]},{"name":"lBoot","primitives":[{"attributes":{"POSITION":64,"NORMAL":65,"TEXCOORD_0":66},"indices":67,"material":2},{"attributes":{"POSITION":68,"NORMAL":69,"TEXCOORD_0":70},"indices":71,"material":3},{"attributes":{"POSITION":72,"NORMAL":73,"TEXCOORD_0":74},"indices":75,"material":4},{"attributes":{"POSITION":76,"NORMAL":77,"TEXCOORD_0":78},"indices":79,"material":6}]},{"name":"lElbow","primitives":[{"attributes":{"POSITION":80,"NORMAL":81,"TEXCOORD_0":82},"indices":83,"material":0},{"attributes":{"POSITION":84,"NORMAL":85,"TEXCOORD_0":86},"indices":87,"material":2},{"attributes":{"POSITION":88,"NORMAL":89,"TEXCOORD_0":90},"indices":91,"material":4},{"attributes":{"POSITION":92,"NORMAL":93,"TEXCOORD_0":94},"indices":95,"material":5}]},{"name":"lHand","primitives":[{"attributes":{"POSITION":96,"NORMAL":97,"TEXCOORD_0":98},"indices":99,"material":2},{"attributes":{"POSITION":100,"NORMAL":101,"TEXCOORD_0":102},"indices":103,"material":4},{"attributes":{"POSITION":104,"NORMAL":105,"TEXCOORD_0":106},"indices":107,"material":5}]},{"name":"lKnee","primitives":[{"attributes":{"POSITION":108,"NORMAL":109,"TEXCOORD_0":110},"indices":111,"material":0},{"attributes":{"POSITION":112,"NORMAL":113,"TEXCOORD_0":114},"indices":115,"material":2},{"attributes":{"POSITION":116,"NORMAL":117,"TEXCOORD_0":118},"indices":119,"material":3},{"attributes":{"POSITION":120,"NORMAL":121,"TEXCOORD_0":122},"indices":123,"material":4},{"attributes":{"POSITION":124,"NORMAL":125,"TEXCOORD_0":126},"indices":127,"material":5}]},{"name":"lThigh","primitives":[{"attributes":{"POSITION":128,"NORMAL":129,"TEXCOORD_0":130},"indices":131,"material":0},{"attributes":{"POSITION":132,"NORMAL":133,"TEXCOORD_0":134},"indices":135,"material":1},{"attributes":{"POSITION":136,"NORMAL":137,"TEXCOORD_0":138},"indices":139,"material":3},{"attributes":{"POSITION":140,"NORMAL":141,"TEXCOORD_0":142},"indices":143,"material":6}]},{"name":"pack","primitives":[{"attributes":{"POSITION":144,"NORMAL":145,"TEXCOORD_0":146},"indices":147,"material":2},{"attributes":{"POSITION":148,"NORMAL":149,"TEXCOORD_0":150},"indices":151,"material":3},{"attributes":{"POSITION":152,"NORMAL":153,"TEXCOORD_0":154},"indices":155,"material":4},{"attributes":{"POSITION":156,"NORMAL":157,"TEXCOORD_0":158},"indices":159,"material":5}]},{"name":"pouches","primitives":[{"attributes":{"POSITION":160,"NORMAL":161,"TEXCOORD_0":162},"indices":163,"material":0},{"attributes":{"POSITION":164,"NORMAL":165,"TEXCOORD_0":166},"indices":167,"material":3},{"attributes":{"POSITION":168,"NORMAL":169,"TEXCOORD_0":170},"indices":171,"material":6}]},{"name":"rArm","primitives":[{"attributes":{"POSITION":172,"NORMAL":173,"TEXCOORD_0":174},"indices":175,"material":0},{"attributes":{"POSITION":176,"NORMAL":177,"TEXCOORD_0":178},"indices":179,"material":2},{"attributes":{"POSITION":180,"NORMAL":181,"TEXCOORD_0":182},"indices":183,"material":4},{"attributes":{"POSITION":184,"NORMAL":185,"TEXCOORD_0":186},"indices":187,"material":7}]},{"name":"rBoot","primitives":[{"attributes":{"POSITION":188,"NORMAL":189,"TEXCOORD_0":190},"indices":191,"material":2},{"attributes":{"POSITION":192,"NORMAL":193,"TEXCOORD_0":194},"indices":195,"material":3},{"attributes":{"POSITION":196,"NORMAL":197,"TEXCOORD_0":198},"indices":199,"material":4},{"attributes":{"POSITION":200,"NORMAL":201,"TEXCOORD_0":202},"indices":203,"material":6}]},{"name":"rElbow","primitives":[{"attributes":{"POSITION":204,"NORMAL":205,"TEXCOORD_0":206},"indices":207,"material":0},{"attributes":{"POSITION":208,"NORMAL":209,"TEXCOORD_0":210},"indices":211,"material":2},{"attributes":{"POSITION":212,"NORMAL":213,"TEXCOORD_0":214},"indices":215,"material":4},{"attributes":{"POSITION":216,"NORMAL":217,"TEXCOORD_0":218},"indices":219,"material":5},{"attributes":{"POSITION":220,"NORMAL":221,"TEXCOORD_0":222},"indices":223,"material":8},{"attributes":{"POSITION":224,"NORMAL":225,"TEXCOORD_0":226},"indices":227,"material":9}]},{"name":"rHand","primitives":[{"attributes":{"POSITION":228,"NORMAL":229,"TEXCOORD_0":230},"indices":231,"material":2},{"attributes":{"POSITION":232,"NORMAL":233,"TEXCOORD_0":234},"indices":235,"material":4},{"attributes":{"POSITION":236,"NORMAL":237,"TEXCOORD_0":238},"indices":239,"material":5}]},{"name":"rKnee","primitives":[{"attributes":{"POSITION":240,"NORMAL":241,"TEXCOORD_0":242},"indices":243,"material":0},{"attributes":{"POSITION":244,"NORMAL":245,"TEXCOORD_0":246},"indices":247,"material":2},{"attributes":{"POSITION":248,"NORMAL":249,"TEXCOORD_0":250},"indices":251,"material":3},{"attributes":{"POSITION":252,"NORMAL":253,"TEXCOORD_0":254},"indices":255,"material":4},{"attributes":{"POSITION":256,"NORMAL":257,"TEXCOORD_0":258},"indices":259,"material":5}]},{"name":"rThigh","primitives":[{"attributes":{"POSITION":260,"NORMAL":261,"TEXCOORD_0":262},"indices":263,"material":0},{"attributes":{"POSITION":264,"NORMAL":265,"TEXCOORD_0":266},"indices":267,"material":1},{"attributes":{"POSITION":268,"NORMAL":269,"TEXCOORD_0":270},"indices":271,"material":3},{"attributes":{"POSITION":272,"NORMAL":273,"TEXCOORD_0":274},"indices":275,"material":6}]},{"name":"torso","primitives":[{"attributes":{"POSITION":276,"NORMAL":277,"TEXCOORD_0":278},"indices":279,"material":0},{"attributes":{"POSITION":280,"NORMAL":281,"TEXCOORD_0":282},"indices":283,"material":1},{"attributes":{"POSITION":284,"NORMAL":285,"TEXCOORD_0":286},"indices":287,"material":2},{"attributes":{"POSITION":288,"NORMAL":289,"TEXCOORD_0":290},"indices":291,"material":3},{"attributes":{"POSITION":292,"NORMAL":293,"TEXCOORD_0":294},"indices":295,"material":6},{"attributes":{"POSITION":296,"NORMAL":297,"TEXCOORD_0":298},"indices":299,"material":7},{"attributes":{"POSITION":300,"NORMAL":301,"TEXCOORD_0":302},"indices":303,"material":8}]}],"materials":[{"name":"Suit | petrol blue","pbrMetallicRoughness":{"baseColorFactor":[1,1,1,1],"metallicFactor":0.0,"roughnessFactor":0.8500000238418579,"baseColorTexture":{"index":2}},"extras":{"slot":"dark"}},{"name":"Armor | rescue orange | team","pbrMetallicRoughness":{"baseColorFactor":[1,1,1,1],"metallicFactor":0.2199999988079071,"roughnessFactor":0.3499999940395355,"baseColorTexture":{"index":1}},"extras":{"slot":"suit"}},{"name":"Joints | graphite","pbrMetallicRoughness":{"baseColorFactor":[1,1,1,1],"metallicFactor":0.0,"roughnessFactor":0.75,"baseColorTexture":{"index":5}},"extras":{}},{"name":"Hardware | gunmetal","pbrMetallicRoughness":{"baseColorFactor":[1,1,1,1],"metallicFactor":0.7200000286102295,"roughnessFactor":0.3199999928474426,"baseColorTexture":{"index":3}},"extras":{}},{"name":"Armor | warm ceramic","pbrMetallicRoughness":{"baseColorFactor":[1,1,1,1],"metallicFactor":0.11999999731779099,"roughnessFactor":0.3799999952316284,"baseColorTexture":{"index":1}},"extras":{"paletteColor":2503227}},{"name":"Armor | rescue orange","pbrMetallicRoughness":{"baseColorFactor":[1,1,1,1],"metallicFactor":0.2199999988079071,"roughnessFactor":0.3499999940395355,"baseColorTexture":{"index":0}},"extras":{}},{"name":"Webbing | sand","pbrMetallicRoughness":{"baseColorFactor":[1,1,1,1],"metallicFactor":0.0,"roughnessFactor":0.8999999761581421,"baseColorTexture":{"index":4}},"extras":{}},{"name":"Markings | ivory","pbrMetallicRoughness":{"baseColorFactor":[0.9399999976158142,0.9200000166893005,0.7699999809265137,1.0],"metallicFactor":0.0,"roughnessFactor":0.550000011920929},"extras":{}},{"name":"Signals | ice cyan","pbrMetallicRoughness":{"baseColorFactor":[0.07000000029802322,0.800000011920929,1.0,1.0],"metallicFactor":0.10000000149011612,"roughnessFactor":0.23999999463558197},"extras":{"cosmeticGlow":true},"emissiveFactor":[0.10500000044703484,1,1]},{"name":"Visor | smoked teal","pbrMetallicRoughness":{"baseColorFactor":[0.02199999988079071,0.15000000596046448,0.18000000715255737,1.0],"metallicFactor":0.699999988079071,"roughnessFactor":0.14000000059604645},"extras":{"paletteColor":6989231}},{"name":"Face | warm skin","pbrMetallicRoughness":{"baseColorFactor":[0.6200000047683716,0.33000001311302185,0.18000000715255737,1.0],"metallicFactor":0.0,"roughnessFactor":0.699999988079071},"extras":{"slot":"skin"}}],"images":[{"uri":"textures/orange-painted-metal.jpg"},{"uri":"textures/ivory-armor.jpg"},{"uri":"textures/petrol-ballistic-fabric.jpg"},{"uri":"textures/worn-gunmetal.jpg"},{"uri":"textures/tan-webbing.jpg"},{"uri":"textures/worn-rubber.jpg"}],"textures":[{"source":0,"sampler":0},{"source":1,"sampler":0},{"source":2,"sampler":0},{"source":3,"sampler":0},{"source":4,"sampler":0},{"source":5,"sampler":0}],"samplers":[{"magFilter":9729,"minFilter":9987,"wrapS":10497,"wrapT":10497}],"buffers":[{"uri":"rivet.bin","byteLength":784448}],"bufferViews":[{"buffer":0,"byteOffset":0,"byteLength":3840,"target":34962},{"buffer":0,"byteOffset":3840,"byteLength":3840,"target":34962},{"buffer":0,"byteOffset":7680,"byteLength":2560,"target":34962},{"buffer":0,"byteOffset":10240,"byteLength":4656,"target":34963},{"buffer":0,"byteOffset":14896,"byteLength":9780,"target":34962},{"buffer":0,"byteOffset":24676,"byteLength":9780,"target":34962},{"buffer":0,"byteOffset":34456,"byteLength":6520,"target":34962},{"buffer":0,"byteOffset":40976,"byteLength":12288,"target":34963},{"buffer":0,"byteOffset":53264,"byteLength":1200,"target":34962},{"buffer":0,"byteOffset":54464,"byteLength":1200,"target":34962},{"buffer":0,"byteOffset":55664,"byteLength":800,"target":34962},{"buffer":0,"byteOffset":56464,"byteLength":1296,"target":34963},{"buffer":0,"byteOffset":57760,"byteLength":6480,"target":34962},{"buffer":0,"byteOffset":64240,"byteLength":6480,"target":34962},{"buffer":0,"byteOffset":70720,"byteLength":4320,"target":34962},{"buffer":0,"byteOffset":75040,"byteLength":8064,"target":34963},{"buffer":0,"byteOffset":83104,"byteLength":2304,"target":34962},{"buffer":0,"byteOffset":85408,"byteLength":2304,"target":34962},{"buffer":0,"byteOffset":87712,"byteLength":1536,"target":34962},{"buffer":0,"byteOffset":89248,"byteLength":2592,"target":34963},{"buffer":0,"byteOffset":91840,"byteLength":2928,"target":34962},{"buffer":0,"byteOffset":94768,"byteLength":2928,"target":34962},{"buffer":0,"byteOffset":97696,"byteLength":1952,"target":34962},{"buffer":0,"byteOffset":99648,"byteLength":3984,"target":34963},{"buffer":0,"byteOffset":103632,"byteLength":4080,"target":34962},{"buffer":0,"byteOffset":107712,"byteLength":4080,"target":34962},{"buffer":0,"byteOffset":111792,"byteLength":2720,"target":34962},{"buffer":0,"byteOffset":114512,"byteLength":5280,"target":34963},{"buffer":0,"byteOffset":119792,"byteLength":1152,"target":34962},{"buffer":0,"byteOffset":120944,"byteLength":1152,"target":34962},{"buffer":0,"byteOffset":122096,"byteLength":768,"target":34962},{"buffer":0,"byteOffset":122864,"byteLength":1296,"target":34963},{"buffer":0,"byteOffset":124160,"byteLength":1152,"target":34962},{"buffer":0,"byteOffset":125312,"byteLength":1152,"target":34962},{"buffer":0,"byteOffset":126464,"byteLength":768,"target":34962},{"buffer":0,"byteOffset":127232,"byteLength":1296,"target":34963},{"buffer":0,"byteOffset":128528,"byteLength":1152,"target":34962},{"buffer":0,"byteOffset":129680,"byteLength":1152,"target":34962},{"buffer":0,"byteOffset":130832,"byteLength":768,"target":34962},{"buffer":0,"byteOffset":131600,"byteLength":1296,"target":34963},{"buffer":0,"byteOffset":132896,"byteLength":2304,"target":34962},{"buffer":0,"byteOffset":135200,"byteLength":2304,"target":34962},{"buffer":0,"byteOffset":137504,"byteLength":1536,"target":34962},{"buffer":0,"byteOffset":139040,"byteLength":2592,"target":34963},{"buffer":0,"byteOffset":141632,"byteLength":1152,"target":34962},{"buffer":0,"byteOffset":142784,"byteLength":1152,"target":34962},{"buffer":0,"byteOffset":143936,"byteLength":768,"target":34962},{"buffer":0,"byteOffset":144704,"byteLength":1296,"target":34963},{"buffer":0,"byteOffset":146000,"byteLength":1152,"target":34962},{"buffer":0,"byteOffset":147152,"byteLength":1152,"target":34962},{"buffer":0,"byteOffset":148304,"byteLength":768,"target":34962},{"buffer":0,"byteOffset":149072,"byteLength":1296,"target":34963},{"buffer":0,"byteOffset":150368,"byteLength":1152,"target":34962},{"buffer":0,"byteOffset":151520,"byteLength":1152,"target":34962},{"buffer":0,"byteOffset":152672,"byteLength":768,"target":34962},{"buffer":0,"byteOffset":153440,"byteLength":1296,"target":34963},{"buffer":0,"byteOffset":154736,"byteLength":1152,"target":34962},{"buffer":0,"byteOffset":155888,"byteLength":1152,"target":34962},{"buffer":0,"byteOffset":157040,"byteLength":768,"target":34962},{"buffer":0,"byteOffset":157808,"byteLength":1296,"target":34963},{"buffer":0,"byteOffset":159104,"byteLength":5232,"target":34962},{"buffer":0,"byteOffset":164336,"byteLength":5232,"target":34962},{"buffer":0,"byteOffset":169568,"byteLength":3488,"target":34962},{"buffer":0,"byteOffset":173056,"byteLength":4848,"target":34963},{"buffer":0,"byteOffset":177904,"byteLength":2304,"target":34962},{"buffer":0,"byteOffset":180208,"byteLength":2304,"target":34962},{"buffer":0,"byteOffset":182512,"byteLength":1536,"target":34962},{"buffer":0,"byteOffset":184048,"byteLength":2592,"target":34963},{"buffer":0,"byteOffset":186640,"byteLength":5760,"target":34962},{"buffer":0,"byteOffset":192400,"byteLength":5760,"target":34962},{"buffer":0,"byteOffset":198160,"byteLength":3840,"target":34962},{"buffer":0,"byteOffset":202000,"byteLength":6480,"target":34963},{"buffer":0,"byteOffset":208480,"byteLength":1152,"target":34962},{"buffer":0,"byteOffset":209632,"byteLength":1152,"target":34962},{"buffer":0,"byteOffset":210784,"byteLength":768,"target":34962},{"buffer":0,"byteOffset":211552,"byteLength":1296,"target":34963},{"buffer":0,"byteOffset":212848,"byteLength":2304,"target":34962},{"buffer":0,"byteOffset":215152,"byteLength":2304,"target":34962},{"buffer":0,"byteOffset":217456,"byteLength":1536,"target":34962},{"buffer":0,"byteOffset":218992,"byteLength":2592,"target":34963},{"buffer":0,"byteOffset":221584,"byteLength":1200,"target":34962},{"buffer":0,"byteOffset":222784,"byteLength":1200,"target":34962},{"buffer":0,"byteOffset":223984,"byteLength":800,"target":34962},{"buffer":0,"byteOffset":224784,"byteLength":1296,"target":34963},{"buffer":0,"byteOffset":226080,"byteLength":1344,"target":34962},{"buffer":0,"byteOffset":227424,"byteLength":1344,"target":34962},{"buffer":0,"byteOffset":228768,"byteLength":896,"target":34962},{"buffer":0,"byteOffset":229664,"byteLength":1680,"target":34963},{"buffer":0,"byteOffset":231344,"byteLength":1152,"target":34962},{"buffer":0,"byteOffset":232496,"byteLength":1152,"target":34962},{"buffer":0,"byteOffset":233648,"byteLength":768,"target":34962},{"buffer":0,"byteOffset":234416,"byteLength":1296,"target":34963},{"buffer":0,"byteOffset":235712,"byteLength":1152,"target":34962},{"buffer":0,"byteOffset":236864,"byteLength":1152,"target":34962},{"buffer":0,"byteOffset":238016,"byteLength":768,"target":34962},{"buffer":0,"byteOffset":238784,"byteLength":1296,"target":34963},{"buffer":0,"byteOffset":240080,"byteLength":6960,"target":34962},{"buffer":0,"byteOffset":247040,"byteLength":6960,"target":34962},{"buffer":0,"byteOffset":254000,"byteLength":4640,"target":34962},{"buffer":0,"byteOffset":258640,"byteLength":7776,"target":34963},{"buffer":0,"byteOffset":266416,"byteLength":4608,"target":34962},{"buffer":0,"byteOffset":271024,"byteLength":4608,"target":34962},{"buffer":0,"byteOffset":275632,"byteLength":3072,"target":34962},{"buffer":0,"byteOffset":278704,"byteLength":5184,"target":34963},{"buffer":0,"byteOffset":283888,"byteLength":1152,"target":34962},{"buffer":0,"byteOffset":285040,"byteLength":1152,"target":34962},{"buffer":0,"byteOffset":286192,"byteLength":768,"target":34962},{"buffer":0,"byteOffset":286960,"byteLength":1296,"target":34963},{"buffer":0,"byteOffset":288256,"byteLength":1152,"target":34962},{"buffer":0,"byteOffset":289408,"byteLength":1152,"target":34962},{"buffer":0,"byteOffset":290560,"byteLength":768,"target":34962},{"buffer":0,"byteOffset":291328,"byteLength":1296,"target":34963},{"buffer":0,"byteOffset":292624,"byteLength":1344,"target":34962},{"buffer":0,"byteOffset":293968,"byteLength":1344,"target":34962},{"buffer":0,"byteOffset":295312,"byteLength":896,"target":34962},{"buffer":0,"byteOffset":296208,"byteLength":1680,"target":34963},{"buffer":0,"byteOffset":297888,"byteLength":1152,"target":34962},{"buffer":0,"byteOffset":299040,"byteLength":1152,"target":34962},{"buffer":0,"byteOffset":300192,"byteLength":768,"target":34962},{"buffer":0,"byteOffset":300960,"byteLength":1296,"target":34963},{"buffer":0,"byteOffset":302256,"byteLength":1152,"target":34962},{"buffer":0,"byteOffset":303408,"byteLength":1152,"target":34962},{"buffer":0,"byteOffset":304560,"byteLength":768,"target":34962},{"buffer":0,"byteOffset":305328,"byteLength":1296,"target":34963},{"buffer":0,"byteOffset":306624,"byteLength":2304,"target":34962},{"buffer":0,"byteOffset":308928,"byteLength":2304,"target":34962},{"buffer":0,"byteOffset":311232,"byteLength":1536,"target":34962},{"buffer":0,"byteOffset":312768,"byteLength":2592,"target":34963},{"buffer":0,"byteOffset":315360,"byteLength":2304,"target":34962},{"buffer":0,"byteOffset":317664,"byteLength":2304,"target":34962},{"buffer":0,"byteOffset":319968,"byteLength":1536,"target":34962},{"buffer":0,"byteOffset":321504,"byteLength":2592,"target":34963},{"buffer":0,"byteOffset":324096,"byteLength":1152,"target":34962},{"buffer":0,"byteOffset":325248,"byteLength":1152,"target":34962},{"buffer":0,"byteOffset":326400,"byteLength":768,"target":34962},{"buffer":0,"byteOffset":327168,"byteLength":1296,"target":34963},{"buffer":0,"byteOffset":328464,"byteLength":1152,"target":34962},{"buffer":0,"byteOffset":329616,"byteLength":1152,"target":34962},{"buffer":0,"byteOffset":330768,"byteLength":768,"target":34962},{"buffer":0,"byteOffset":331536,"byteLength":1296,"target":34963},{"buffer":0,"byteOffset":332832,"byteLength":1152,"target":34962},{"buffer":0,"byteOffset":333984,"byteLength":1152,"target":34962},{"buffer":0,"byteOffset":335136,"byteLength":768,"target":34962},{"buffer":0,"byteOffset":335904,"byteLength":1296,"target":34963},{"buffer":0,"byteOffset":337200,"byteLength":12288,"target":34962},{"buffer":0,"byteOffset":349488,"byteLength":12288,"target":34962},{"buffer":0,"byteOffset":361776,"byteLength":8192,"target":34962},{"buffer":0,"byteOffset":369968,"byteLength":14496,"target":34963},{"buffer":0,"byteOffset":384464,"byteLength":1152,"target":34962},{"buffer":0,"byteOffset":385616,"byteLength":1152,"target":34962},{"buffer":0,"byteOffset":386768,"byteLength":768,"target":34962},{"buffer":0,"byteOffset":387536,"byteLength":1296,"target":34963},{"buffer":0,"byteOffset":388832,"byteLength":1152,"target":34962},{"buffer":0,"byteOffset":389984,"byteLength":1152,"target":34962},{"buffer":0,"byteOffset":391136,"byteLength":768,"target":34962},{"buffer":0,"byteOffset":391904,"byteLength":1296,"target":34963},{"buffer":0,"byteOffset":393200,"byteLength":3840,"target":34962},{"buffer":0,"byteOffset":397040,"byteLength":3840,"target":34962},{"buffer":0,"byteOffset":400880,"byteLength":2560,"target":34962},{"buffer":0,"byteOffset":403440,"byteLength":4656,"target":34963},{"buffer":0,"byteOffset":408096,"byteLength":3456,"target":34962},{"buffer":0,"byteOffset":411552,"byteLength":3456,"target":34962},{"buffer":0,"byteOffset":415008,"byteLength":2304,"target":34962},{"buffer":0,"byteOffset":417312,"byteLength":3888,"target":34963},{"buffer":0,"byteOffset":421200,"byteLength":3456,"target":34962},{"buffer":0,"byteOffset":424656,"byteLength":3456,"target":34962},{"buffer":0,"byteOffset":428112,"byteLength":2304,"target":34962},{"buffer":0,"byteOffset":430416,"byteLength":3888,"target":34963},{"buffer":0,"byteOffset":434304,"byteLength":3456,"target":34962},{"buffer":0,"byteOffset":437760,"byteLength":3456,"target":34962},{"buffer":0,"byteOffset":441216,"byteLength":2304,"target":34962},{"buffer":0,"byteOffset":443520,"byteLength":3888,"target":34963},{"buffer":0,"byteOffset":447408,"byteLength":1152,"target":34962},{"buffer":0,"byteOffset":448560,"byteLength":1152,"target":34962},{"buffer":0,"byteOffset":449712,"byteLength":768,"target":34962},{"buffer":0,"byteOffset":450480,"byteLength":1296,"target":34963},{"buffer":0,"byteOffset":451776,"byteLength":1152,"target":34962},{"buffer":0,"byteOffset":452928,"byteLength":1152,"target":34962},{"buffer":0,"byteOffset":454080,"byteLength":768,"target":34962},{"buffer":0,"byteOffset":454848,"byteLength":1296,"target":34963},{"buffer":0,"byteOffset":456144,"byteLength":1152,"target":34962},{"buffer":0,"byteOffset":457296,"byteLength":1152,"target":34962},{"buffer":0,"byteOffset":458448,"byteLength":768,"target":34962},{"buffer":0,"byteOffset":459216,"byteLength":1296,"target":34963},{"buffer":0,"byteOffset":460512,"byteLength":5232,"target":34962},{"buffer":0,"byteOffset":465744,"byteLength":5232,"target":34962},{"buffer":0,"byteOffset":470976,"byteLength":3488,"target":34962},{"buffer":0,"byteOffset":474464,"byteLength":4848,"target":34963},{"buffer":0,"byteOffset":479312,"byteLength":2304,"target":34962},{"buffer":0,"byteOffset":481616,"byteLength":2304,"target":34962},{"buffer":0,"byteOffset":483920,"byteLength":1536,"target":34962},{"buffer":0,"byteOffset":485456,"byteLength":2592,"target":34963},{"buffer":0,"byteOffset":488048,"byteLength":5760,"target":34962},{"buffer":0,"byteOffset":493808,"byteLength":5760,"target":34962},{"buffer":0,"byteOffset":499568,"byteLength":3840,"target":34962},{"buffer":0,"byteOffset":503408,"byteLength":6480,"target":34963},{"buffer":0,"byteOffset":509888,"byteLength":1152,"target":34962},{"buffer":0,"byteOffset":511040,"byteLength":1152,"target":34962},{"buffer":0,"byteOffset":512192,"byteLength":768,"target":34962},{"buffer":0,"byteOffset":512960,"byteLength":1296,"target":34963},{"buffer":0,"byteOffset":514256,"byteLength":2304,"target":34962},{"buffer":0,"byteOffset":516560,"byteLength":2304,"target":34962},{"buffer":0,"byteOffset":518864,"byteLength":1536,"target":34962},{"buffer":0,"byteOffset":520400,"byteLength":2592,"target":34963},{"buffer":0,"byteOffset":522992,"byteLength":1200,"target":34962},{"buffer":0,"byteOffset":524192,"byteLength":1200,"target":34962},{"buffer":0,"byteOffset":525392,"byteLength":800,"target":34962},{"buffer":0,"byteOffset":526192,"byteLength":1296,"target":34963},{"buffer":0,"byteOffset":527488,"byteLength":2496,"target":34962},{"buffer":0,"byteOffset":529984,"byteLength":2496,"target":34962},{"buffer":0,"byteOffset":532480,"byteLength":1664,"target":34962},{"buffer":0,"byteOffset":534144,"byteLength":2976,"target":34963},{"buffer":0,"byteOffset":537120,"byteLength":1152,"target":34962},{"buffer":0,"byteOffset":538272,"byteLength":1152,"target":34962},{"buffer":0,"byteOffset":539424,"byteLength":768,"target":34962},{"buffer":0,"byteOffset":540192,"byteLength":1296,"target":34963},{"buffer":0,"byteOffset":541488,"byteLength":1152,"target":34962},{"buffer":0,"byteOffset":542640,"byteLength":1152,"target":34962},{"buffer":0,"byteOffset":543792,"byteLength":768,"target":34962},{"buffer":0,"byteOffset":544560,"byteLength":1296,"target":34963},{"buffer":0,"byteOffset":545856,"byteLength":1152,"target":34962},{"buffer":0,"byteOffset":547008,"byteLength":1152,"target":34962},{"buffer":0,"byteOffset":548160,"byteLength":768,"target":34962},{"buffer":0,"byteOffset":548928,"byteLength":1296,"target":34963},{"buffer":0,"byteOffset":550224,"byteLength":2304,"target":34962},{"buffer":0,"byteOffset":552528,"byteLength":2304,"target":34962},{"buffer":0,"byteOffset":554832,"byteLength":1536,"target":34962},{"buffer":0,"byteOffset":556368,"byteLength":2592,"target":34963},{"buffer":0,"byteOffset":558960,"byteLength":6960,"target":34962},{"buffer":0,"byteOffset":565920,"byteLength":6960,"target":34962},{"buffer":0,"byteOffset":572880,"byteLength":4640,"target":34962},{"buffer":0,"byteOffset":577520,"byteLength":7776,"target":34963},{"buffer":0,"byteOffset":585296,"byteLength":4608,"target":34962},{"buffer":0,"byteOffset":589904,"byteLength":4608,"target":34962},{"buffer":0,"byteOffset":594512,"byteLength":3072,"target":34962},{"buffer":0,"byteOffset":597584,"byteLength":5184,"target":34963},{"buffer":0,"byteOffset":602768,"byteLength":1152,"target":34962},{"buffer":0,"byteOffset":603920,"byteLength":1152,"target":34962},{"buffer":0,"byteOffset":605072,"byteLength":768,"target":34962},{"buffer":0,"byteOffset":605840,"byteLength":1296,"target":34963},{"buffer":0,"byteOffset":607136,"byteLength":1152,"target":34962},{"buffer":0,"byteOffset":608288,"byteLength":1152,"target":34962},{"buffer":0,"byteOffset":609440,"byteLength":768,"target":34962},{"buffer":0,"byteOffset":610208,"byteLength":1296,"target":34963},{"buffer":0,"byteOffset":611504,"byteLength":1344,"target":34962},{"buffer":0,"byteOffset":612848,"byteLength":1344,"target":34962},{"buffer":0,"byteOffset":614192,"byteLength":896,"target":34962},{"buffer":0,"byteOffset":615088,"byteLength":1680,"target":34963},{"buffer":0,"byteOffset":616768,"byteLength":1152,"target":34962},{"buffer":0,"byteOffset":617920,"byteLength":1152,"target":34962},{"buffer":0,"byteOffset":619072,"byteLength":768,"target":34962},{"buffer":0,"byteOffset":619840,"byteLength":1296,"target":34963},{"buffer":0,"byteOffset":621136,"byteLength":1152,"target":34962},{"buffer":0,"byteOffset":622288,"byteLength":1152,"target":34962},{"buffer":0,"byteOffset":623440,"byteLength":768,"target":34962},{"buffer":0,"byteOffset":624208,"byteLength":1296,"target":34963},{"buffer":0,"byteOffset":625504,"byteLength":2304,"target":34962},{"buffer":0,"byteOffset":627808,"byteLength":2304,"target":34962},{"buffer":0,"byteOffset":630112,"byteLength":1536,"target":34962},{"buffer":0,"byteOffset":631648,"byteLength":2592,"target":34963},{"buffer":0,"byteOffset":634240,"byteLength":2304,"target":34962},{"buffer":0,"byteOffset":636544,"byteLength":2304,"target":34962},{"buffer":0,"byteOffset":638848,"byteLength":1536,"target":34962},{"buffer":0,"byteOffset":640384,"byteLength":2592,"target":34963},{"buffer":0,"byteOffset":642976,"byteLength":1152,"target":34962},{"buffer":0,"byteOffset":644128,"byteLength":1152,"target":34962},{"buffer":0,"byteOffset":645280,"byteLength":768,"target":34962},{"buffer":0,"byteOffset":646048,"byteLength":1296,"target":34963},{"buffer":0,"byteOffset":647344,"byteLength":1152,"target":34962},{"buffer":0,"byteOffset":648496,"byteLength":1152,"target":34962},{"buffer":0,"byteOffset":649648,"byteLength":768,"target":34962},{"buffer":0,"byteOffset":650416,"byteLength":1296,"target":34963},{"buffer":0,"byteOffset":651712,"byteLength":1152,"target":34962},{"buffer":0,"byteOffset":652864,"byteLength":1152,"target":34962},{"buffer":0,"byteOffset":654016,"byteLength":768,"target":34962},{"buffer":0,"byteOffset":654784,"byteLength":1296,"target":34963},{"buffer":0,"byteOffset":656080,"byteLength":3456,"target":34962},{"buffer":0,"byteOffset":659536,"byteLength":3456,"target":34962},{"buffer":0,"byteOffset":662992,"byteLength":2304,"target":34962},{"buffer":0,"byteOffset":665296,"byteLength":4752,"target":34963},{"buffer":0,"byteOffset":670048,"byteLength":2940,"target":34962},{"buffer":0,"byteOffset":672988,"byteLength":2940,"target":34962},{"buffer":0,"byteOffset":675928,"byteLength":1960,"target":34962},{"buffer":0,"byteOffset":677888,"byteLength":3888,"target":34963},{"buffer":0,"byteOffset":681776,"byteLength":9216,"target":34962},{"buffer":0,"byteOffset":690992,"byteLength":9216,"target":34962},{"buffer":0,"byteOffset":700208,"byteLength":6144,"target":34962},{"buffer":0,"byteOffset":706352,"byteLength":10368,"target":34963},{"buffer":0,"byteOffset":716720,"byteLength":2304,"target":34962},{"buffer":0,"byteOffset":719024,"byteLength":2304,"target":34962},{"buffer":0,"byteOffset":721328,"byteLength":1536,"target":34962},{"buffer":0,"byteOffset":722864,"byteLength":2592,"target":34963},{"buffer":0,"byteOffset":725456,"byteLength":2304,"target":34962},{"buffer":0,"byteOffset":727760,"byteLength":2304,"target":34962},{"buffer":0,"byteOffset":730064,"byteLength":1536,"target":34962},{"buffer":0,"byteOffset":731600,"byteLength":2592,"target":34963},{"buffer":0,"byteOffset":734192,"byteLength":10368,"target":34962},{"buffer":0,"byteOffset":744560,"byteLength":10368,"target":34962},{"buffer":0,"byteOffset":754928,"byteLength":6912,"target":34962},{"buffer":0,"byteOffset":761840,"byteLength":9504,"target":34963},{"buffer":0,"byteOffset":771344,"byteLength":3456,"target":34962},{"buffer":0,"byteOffset":774800,"byteLength":3456,"target":34962},{"buffer":0,"byteOffset":778256,"byteLength":2304,"target":34962},{"buffer":0,"byteOffset":780560,"byteLength":3888,"target":34963}],"accessors":[{"bufferView":0,"componentType":5126,"count":320,"type":"VEC3","min":[-0.2064,-0.067,-0.09],"max":[0.2064,0.1985,0.09]},{"bufferView":1,"componentType":5126,"count":320,"type":"VEC3"},{"bufferView":2,"componentType":5126,"count":320,"type":"VEC2"},{"bufferView":3,"componentType":5125,"count":1164,"type":"SCALAR"},{"bufferView":4,"componentType":5126,"count":815,"type":"VEC3","min":[-0.19776,-0.285,-0.2085],"max":[0.19776,0.07,0.089545]},{"bufferView":5,"componentType":5126,"count":815,"type":"VEC3"},{"bufferView":6,"componentType":5126,"count":815,"type":"VEC2"},{"bufferView":7,"componentType":5125,"count":3072,"type":"SCALAR"},{"bufferView":8,"componentType":5126,"count":100,"type":"VEC3","min":[0.120298,-0.114692,-0.193345],"max":[0.212822,-0.035308,-0.005655]},{"bufferView":9,"componentType":5126,"count":100,"type":"VEC3"},{"bufferView":10,"componentType":5126,"count":100,"type":"VEC2"},{"bufferView":11,"componentType":5125,"count":324,"type":"SCALAR"},{"bufferView":12,"componentType":5126,"count":540,"type":"VEC3","min":[-0.1704,-0.1365,-0.2335],"max":[0.1704,0.195,0.185]},{"bufferView":13,"componentType":5126,"count":540,"type":"VEC3"},{"bufferView":14,"componentType":5126,"count":540,"type":"VEC2"},{"bufferView":15,"componentType":5125,"count":2016,"type":"SCALAR"},{"bufferView":16,"componentType":5126,"count":192,"type":"VEC3","min":[-0.12336,-0.0025,-0.21],"max":[-0.02304,0.026,-0.1975]},{"bufferView":17,"componentType":5126,"count":192,"type":"VEC3"},{"bufferView":18,"componentType":5126,"count":192,"type":"VEC2"},{"bufferView":19,"componentType":5125,"count":648,"type":"SCALAR"},{"bufferView":20,"componentType":5126,"count":244,"type":"VEC3","min":[-0.139662,-0.033,-0.200766],"max":[0.139662,0.051,-0.167078]},{"bufferView":21,"componentType":5126,"count":244,"type":"VEC3"},{"bufferView":22,"componentType":5126,"count":244,"type":"VEC2"},{"bufferView":23,"componentType":5125,"count":996,"type":"SCALAR"},{"bufferView":24,"componentType":5126,"count":340,"type":"VEC3","min":[-0.116915,-0.185,-0.1755],"max":[0.116915,0.02,0.112866]},{"bufferView":25,"componentType":5126,"count":340,"type":"VEC3"},{"bufferView":26,"componentType":5126,"count":340,"type":"VEC2"},{"bufferView":27,"componentType":5125,"count":1320,"type":"SCALAR"},{"bufferView":28,"componentType":5126,"count":96,"type":"VEC3","min":[-0.288,-0.12,-0.15],"max":[0.288,0.07,0.15]},{"bufferView":29,"componentType":5126,"count":96,"type":"VEC3"},{"bufferView":30,"componentType":5126,"count":96,"type":"VEC2"},{"bufferView":31,"componentType":5125,"count":324,"type":"SCALAR"},{"bufferView":32,"componentType":5126,"count":96,"type":"VEC3","min":[-0.2208,0.0475,-0.16],"max":[0.2208,0.1225,0.16]},{"bufferView":33,"componentType":5126,"count":96,"type":"VEC3"},{"bufferView":34,"componentType":5126,"count":96,"type":"VEC2"},{"bufferView":35,"componentType":5125,"count":324,"type":"SCALAR"},{"bufferView":36,"componentType":5126,"count":96,"type":"VEC3","min":[-0.048,0.052,-0.1945],"max":[0.048,0.114,-0.1615]},{"bufferView":37,"componentType":5126,"count":96,"type":"VEC3"},{"bufferView":38,"componentType":5126,"count":96,"type":"VEC2"},{"bufferView":39,"componentType":5125,"count":324,"type":"SCALAR"},{"bufferView":40,"componentType":5126,"count":192,"type":"VEC3","min":[-0.3216,-0.095,-0.115],"max":[0.3216,0.055,0.095]},{"bufferView":41,"componentType":5126,"count":192,"type":"VEC3"},{"bufferView":42,"componentType":5126,"count":192,"type":"VEC2"},{"bufferView":43,"componentType":5125,"count":648,"type":"SCALAR"},{"bufferView":44,"componentType":5126,"count":96,"type":"VEC3","min":[-0.02784,0.0675,-0.2035],"max":[0.02784,0.0985,-0.1945]},{"bufferView":45,"componentType":5126,"count":96,"type":"VEC3"},{"bufferView":46,"componentType":5126,"count":96,"type":"VEC2"},{"bufferView":47,"componentType":5125,"count":324,"type":"SCALAR"},{"bufferView":48,"componentType":5126,"count":96,"type":"VEC3","min":[-0.0902,-0.34,-0.0792],"max":[0.0902,-0.0,0.0792]},{"bufferView":49,"componentType":5126,"count":96,"type":"VEC3"},{"bufferView":50,"componentType":5126,"count":96,"type":"VEC2"},{"bufferView":51,"componentType":5125,"count":324,"type":"SCALAR"},{"bufferView":52,"componentType":5126,"count":96,"type":"VEC3","min":[-0.053731,-0.111591,-0.13728],"max":[0.050599,0.003818,-0.12144]},{"bufferView":53,"componentType":5126,"count":96,"type":"VEC3"},{"bufferView":54,"componentType":5126,"count":96,"type":"VEC2"},{"bufferView":55,"componentType":5125,"count":324,"type":"SCALAR"},{"bufferView":56,"componentType":5126,"count":96,"type":"VEC3","min":[-0.098671,-0.180855,-0.1188],"max":[0.129492,0.103462,0.1188]},{"bufferView":57,"componentType":5126,"count":96,"type":"VEC3"},{"bufferView":58,"componentType":5126,"count":96,"type":"VEC2"},{"bufferView":59,"componentType":5125,"count":324,"type":"SCALAR"},{"bufferView":60,"componentType":5126,"count":436,"type":"VEC3","min":[-0.027754,-0.072089,-0.141152],"max":[0.017792,-0.028735,-0.140448]},{"bufferView":61,"componentType":5126,"count":436,"type":"VEC3"},{"bufferView":62,"componentType":5126,"count":436,"type":"VEC2"},{"bufferView":63,"componentType":5125,"count":1212,"type":"SCALAR"},{"bufferView":64,"componentType":5126,"count":192,"type":"VEC3","min":[-0.11396,-0.06952,-0.23276],"max":[0.11396,0.1364,0.08888]},{"bufferView":65,"componentType":5126,"count":192,"type":"VEC3"},{"bufferView":66,"componentType":5126,"count":192,"type":"VEC2"},{"bufferView":67,"componentType":5125,"count":648,"type":"SCALAR"},{"bufferView":68,"componentType":5126,"count":480,"type":"VEC3","min":[-0.1188,-0.0704,-0.2068],"max":[0.1188,-0.05456,0.06424]},{"bufferView":69,"componentType":5126,"count":480,"type":"VEC3"},{"bufferView":70,"componentType":5126,"count":480,"type":"VEC2"},{"bufferView":71,"componentType":5125,"count":1620,"type":"SCALAR"},{"bufferView":72,"componentType":5126,"count":96,"type":"VEC3","min":[-0.10736,-0.03828,-0.23276],"max":[0.10736,0.06644,-0.01012]},{"bufferView":73,"componentType":5126,"count":96,"type":"VEC3"},{"bufferView":74,"componentType":5126,"count":96,"type":"VEC2"},{"bufferView":75,"componentType":5125,"count":324,"type":"SCALAR"},{"bufferView":76,"componentType":5126,"count":192,"type":"VEC3","min":[-0.0704,0.05588,-0.1122],"max":[0.0704,0.1034,-0.04532]},{"bufferView":77,"componentType":5126,"count":192,"type":"VEC3"},{"bufferView":78,"componentType":5126,"count":192,"type":"VEC2"},{"bufferView":79,"componentType":5125,"count":648,"type":"SCALAR"},{"bufferView":80,"componentType":5126,"count":100,"type":"VEC3","min":[-0.078927,-0.34,-0.069019],"max":[0.078927,0.0,0.069019]},{"bufferView":81,"componentType":5126,"count":100,"type":"VEC3"},{"bufferView":82,"componentType":5126,"count":100,"type":"VEC2"},{"bufferView":83,"componentType":5125,"count":324,"type":"SCALAR"},{"bufferView":84,"componentType":5126,"count":112,"type":"VEC3","min":[-0.09677,-0.149838,-0.071007],"max":[0.09677,0.149838,0.071007]},{"bufferView":85,"componentType":5126,"count":112,"type":"VEC3"},{"bufferView":86,"componentType":5126,"count":112,"type":"VEC2"},{"bufferView":87,"componentType":5125,"count":420,"type":"SCALAR"},{"bufferView":88,"componentType":5126,"count":96,"type":"VEC3","min":[-0.043251,-0.316003,-0.152839],"max":[0.051289,-0.056554,-0.018875]},{"bufferView":89,"componentType":5126,"count":96,"type":"VEC3"},{"bufferView":90,"componentType":5126,"count":96,"type":"VEC2"},{"bufferView":91,"componentType":5125,"count":324,"type":"SCALAR"},{"bufferView":92,"componentType":5126,"count":96,"type":"VEC3","min":[-0.033366,-0.263157,-0.162537],"max":[0.037529,-0.099005,-0.081707]},{"bufferView":93,"componentType":5126,"count":96,"type":"VEC3"},{"bufferView":94,"componentType":5126,"count":96,"type":"VEC2"},{"bufferView":95,"componentType":5125,"count":324,"type":"SCALAR"},{"bufferView":96,"componentType":5126,"count":580,"type":"VEC3","min":[-0.052318,-0.078108,-0.050712],"max":[0.054615,0.044956,0.050712]},{"bufferView":97,"componentType":5126,"count":580,"type":"VEC3"},{"bufferView":98,"componentType":5126,"count":580,"type":"VEC2"},{"bufferView":99,"componentType":5125,"count":1944,"type":"SCALAR"},{"bufferView":100,"componentType":5126,"count":384,"type":"VEC3","min":[-0.033705,-0.051528,-0.047617],"max":[0.032639,-0.019373,-0.034526]},{"bufferView":101,"componentType":5126,"count":384,"type":"VEC3"},{"bufferView":102,"componentType":5126,"count":384,"type":"VEC2"},{"bufferView":103,"componentType":5125,"count":1296,"type":"SCALAR"},{"bufferView":104,"componentType":5126,"count":96,"type":"VEC3","min":[-0.046216,-0.035298,-0.066344],"max":[0.032654,0.030077,-0.036832]},{"bufferView":105,"componentType":5126,"count":96,"type":"VEC3"},{"bufferView":106,"componentType":5126,"count":96,"type":"VEC2"},{"bufferView":107,"componentType":5125,"count":324,"type":"SCALAR"},{"bufferView":108,"componentType":5126,"count":96,"type":"VEC3","min":[-0.106281,-0.325,-0.104838],"max":[0.106281,-0.0,0.104838]},{"bufferView":109,"componentType":5126,"count":96,"type":"VEC3"},{"bufferView":110,"componentType":5126,"count":96,"type":"VEC2"},{"bufferView":111,"componentType":5125,"count":324,"type":"SCALAR"},{"bufferView":112,"componentType":5126,"count":112,"type":"VEC3","min":[-0.090118,-0.084786,-0.079207],"max":[0.090118,0.084786,0.079207]},{"bufferView":113,"componentType":5126,"count":112,"type":"VEC3"},{"bufferView":114,"componentType":5126,"count":112,"type":"VEC2"},{"bufferView":115,"componentType":5125,"count":420,"type":"SCALAR"},{"bufferView":116,"componentType":5126,"count":96,"type":"VEC3","min":[-0.075628,-0.258365,-0.123172],"max":[0.067689,-0.096353,-0.064077]},{"bufferView":117,"componentType":5126,"count":96,"type":"VEC3"},{"bufferView":118,"componentType":5126,"count":96,"type":"VEC2"},{"bufferView":119,"componentType":5125,"count":324,"type":"SCALAR"},{"bufferView":120,"componentType":5126,"count":96,"type":"VEC3","min":[-0.097309,-0.078481,-0.148135],"max":[0.097337,0.080016,-0.073648]},{"bufferView":121,"componentType":5126,"count":96,"type":"VEC3"},{"bufferView":122,"componentType":5126,"count":96,"type":"VEC2"},{"bufferView":123,"componentType":5125,"count":324,"type":"SCALAR"},{"bufferView":124,"componentType":5126,"count":192,"type":"VEC3","min":[-0.061872,-0.211657,-0.157776],"max":[0.061874,0.018974,-0.121286]},{"bufferView":125,"componentType":5126,"count":192,"type":"VEC3"},{"bufferView":126,"componentType":5126,"count":192,"type":"VEC2"},{"bufferView":127,"componentType":5125,"count":648,"type":"SCALAR"},{"bufferView":128,"componentType":5126,"count":192,"type":"VEC3","min":[-0.152418,-0.325,-0.132],"max":[0.133718,0.0,0.132]},{"bufferView":129,"componentType":5126,"count":192,"type":"VEC3"},{"bufferView":130,"componentType":5126,"count":192,"type":"VEC2"},{"bufferView":131,"componentType":5125,"count":648,"type":"SCALAR"},{"bufferView":132,"componentType":5126,"count":96,"type":"VEC3","min":[-0.082005,-0.248224,-0.127767],"max":[0.072653,-0.058869,-0.089155]},{"bufferView":133,"componentType":5126,"count":96,"type":"VEC3"},{"bufferView":134,"componentType":5126,"count":96,"type":"VEC2"},{"bufferView":135,"componentType":5125,"count":324,"type":"SCALAR"},{"bufferView":136,"componentType":5126,"count":96,"type":"VEC3","min":[-0.162058,-0.127352,-0.069269],"max":[-0.150703,-0.091932,-0.014092]},{"bufferView":137,"componentType":5126,"count":96,"type":"VEC3"},{"bufferView":138,"componentType":5126,"count":96,"type":"VEC2"},{"bufferView":139,"componentType":5125,"count":324,"type":"SCALAR"},{"bufferView":140,"componentType":5126,"count":96,"type":"VEC3","min":[-0.111134,-0.232046,-0.113552],"max":[0.096106,-0.188028,0.122649]},{"bufferView":141,"componentType":5126,"count":96,"type":"VEC3"},{"bufferView":142,"componentType":5126,"count":96,"type":"VEC2"},{"bufferView":143,"componentType":5125,"count":324,"type":"SCALAR"},{"bufferView":144,"componentType":5126,"count":1024,"type":"VEC3","min":[-0.24288,-0.288,-0.011],"max":[0.24288,0.295259,0.16]},{"bufferView":145,"componentType":5126,"count":1024,"type":"VEC3"},{"bufferView":146,"componentType":5126,"count":1024,"type":"VEC2"},{"bufferView":147,"componentType":5125,"count":3624,"type":"SCALAR"},{"bufferView":148,"componentType":5126,"count":96,"type":"VEC3","min":[-0.1632,-0.33,-0.045],"max":[0.1632,0.03,0.075]},{"bufferView":149,"componentType":5126,"count":96,"type":"VEC3"},{"bufferView":150,"componentType":5126,"count":96,"type":"VEC2"},{"bufferView":151,"componentType":5125,"count":324,"type":"SCALAR"},{"bufferView":152,"componentType":5126,"count":96,"type":"VEC3","min":[-0.1368,-0.2875,0.035],"max":[0.1368,-0.0025,0.145]},{"bufferView":153,"componentType":5126,"count":96,"type":"VEC3"},{"bufferView":154,"componentType":5126,"count":96,"type":"VEC2"},{"bufferView":155,"componentType":5125,"count":324,"type":"SCALAR"},{"bufferView":156,"componentType":5126,"count":320,"type":"VEC3","min":[-0.23808,-0.31,-0.006],"max":[0.23808,-0.03,0.1635]},{"bufferView":157,"componentType":5126,"count":320,"type":"VEC3"},{"bufferView":158,"componentType":5126,"count":320,"type":"VEC2"},{"bufferView":159,"componentType":5125,"count":1164,"type":"SCALAR"},{"bufferView":160,"componentType":5126,"count":288,"type":"VEC3","min":[-0.16656,-0.0595,-0.07],"max":[0.20784,-0.0045,-0.05]},{"bufferView":161,"componentType":5126,"count":288,"type":"VEC3"},{"bufferView":162,"componentType":5126,"count":288,"type":"VEC2"},{"bufferView":163,"componentType":5125,"count":972,"type":"SCALAR"},{"bufferView":164,"componentType":5126,"count":288,"type":"VEC3","min":[-0.12144,-0.0935,-0.081],"max":[0.16272,-0.0365,-0.069]},{"bufferView":165,"componentType":5126,"count":288,"type":"VEC3"},{"bufferView":166,"componentType":5126,"count":288,"type":"VEC2"},{"bufferView":167,"componentType":5125,"count":972,"type":"SCALAR"},{"bufferView":168,"componentType":5126,"count":288,"type":"VEC3","min":[-0.16512,-0.143,-0.053],"max":[0.2064,-0.003,0.041]},{"bufferView":169,"componentType":5126,"count":288,"type":"VEC3"},{"bufferView":170,"componentType":5126,"count":288,"type":"VEC2"},{"bufferView":171,"componentType":5125,"count":972,"type":"SCALAR"},{"bufferView":172,"componentType":5126,"count":96,"type":"VEC3","min":[-0.0902,-0.34,-0.0792],"max":[0.0902,-0.0,0.0792]},{"bufferView":173,"componentType":5126,"count":96,"type":"VEC3"},{"bufferView":174,"componentType":5126,"count":96,"type":"VEC2"},{"bufferView":175,"componentType":5125,"count":324,"type":"SCALAR"},{"bufferView":176,"componentType":5126,"count":96,"type":"VEC3","min":[-0.050599,-0.111591,-0.13728],"max":[0.053731,0.003818,-0.12144]},{"bufferView":177,"componentType":5126,"count":96,"type":"VEC3"},{"bufferView":178,"componentType":5126,"count":96,"type":"VEC2"},{"bufferView":179,"componentType":5125,"count":324,"type":"SCALAR"},{"bufferView":180,"componentType":5126,"count":96,"type":"VEC3","min":[-0.129492,-0.180855,-0.1188],"max":[0.098671,0.103462,0.1188]},{"bufferView":181,"componentType":5126,"count":96,"type":"VEC3"},{"bufferView":182,"componentType":5126,"count":96,"type":"VEC2"},{"bufferView":183,"componentType":5125,"count":324,"type":"SCALAR"},{"bufferView":184,"componentType":5126,"count":436,"type":"VEC3","min":[-0.012092,-0.075582,-0.141152],"max":[0.02287,-0.023762,-0.140448]},{"bufferView":185,"componentType":5126,"count":436,"type":"VEC3"},{"bufferView":186,"componentType":5126,"count":436,"type":"VEC2"},{"bufferView":187,"componentType":5125,"count":1212,"type":"SCALAR"},{"bufferView":188,"componentType":5126,"count":192,"type":"VEC3","min":[-0.11396,-0.06952,-0.23276],"max":[0.11396,0.1364,0.08888]},{"bufferView":189,"componentType":5126,"count":192,"type":"VEC3"},{"bufferView":190,"componentType":5126,"count":192,"type":"VEC2"},{"bufferView":191,"componentType":5125,"count":648,"type":"SCALAR"},{"bufferView":192,"componentType":5126,"count":480,"type":"VEC3","min":[-0.1188,-0.0704,-0.2068],"max":[0.1188,-0.05456,0.06424]},{"bufferView":193,"componentType":5126,"count":480,"type":"VEC3"},{"bufferView":194,"componentType":5126,"count":480,"type":"VEC2"},{"bufferView":195,"componentType":5125,"count":1620,"type":"SCALAR"},{"bufferView":196,"componentType":5126,"count":96,"type":"VEC3","min":[-0.10736,-0.03828,-0.23276],"max":[0.10736,0.06644,-0.01012]},{"bufferView":197,"componentType":5126,"count":96,"type":"VEC3"},{"bufferView":198,"componentType":5126,"count":96,"type":"VEC2"},{"bufferView":199,"componentType":5125,"count":324,"type":"SCALAR"},{"bufferView":200,"componentType":5126,"count":192,"type":"VEC3","min":[-0.0704,0.05588,-0.1122],"max":[0.0704,0.1034,-0.04532]},{"bufferView":201,"componentType":5126,"count":192,"type":"VEC3"},{"bufferView":202,"componentType":5126,"count":192,"type":"VEC2"},{"bufferView":203,"componentType":5125,"count":648,"type":"SCALAR"},{"bufferView":204,"componentType":5126,"count":100,"type":"VEC3","min":[-0.078927,-0.34,-0.069019],"max":[0.078927,0.0,0.069019]},{"bufferView":205,"componentType":5126,"count":100,"type":"VEC3"},{"bufferView":206,"componentType":5126,"count":100,"type":"VEC2"},{"bufferView":207,"componentType":5125,"count":324,"type":"SCALAR"},{"bufferView":208,"componentType":5126,"count":208,"type":"VEC3","min":[-0.09677,-0.322054,-0.131801],"max":[0.09677,0.149838,0.071007]},{"bufferView":209,"componentType":5126,"count":208,"type":"VEC3"},{"bufferView":210,"componentType":5126,"count":208,"type":"VEC2"},{"bufferView":211,"componentType":5125,"count":744,"type":"SCALAR"},{"bufferView":212,"componentType":5126,"count":96,"type":"VEC3","min":[-0.051289,-0.316003,-0.152839],"max":[0.043251,-0.056554,-0.018875]},{"bufferView":213,"componentType":5126,"count":96,"type":"VEC3"},{"bufferView":214,"componentType":5126,"count":96,"type":"VEC2"},{"bufferView":215,"componentType":5125,"count":324,"type":"SCALAR"},{"bufferView":216,"componentType":5126,"count":96,"type":"VEC3","min":[-0.037529,-0.263157,-0.162537],"max":[0.033366,-0.099005,-0.081707]},{"bufferView":217,"componentType":5126,"count":96,"type":"VEC3"},{"bufferView":218,"componentType":5126,"count":96,"type":"VEC2"},{"bufferView":219,"componentType":5125,"count":324,"type":"SCALAR"},{"bufferView":220,"componentType":5126,"count":96,"type":"VEC3","min":[-0.03882,-0.292758,-0.138754],"max":[0.038574,-0.189953,-0.128827]},{"bufferView":221,"componentType":5126,"count":96,"type":"VEC3"},{"bufferView":222,"componentType":5126,"count":96,"type":"VEC2"},{"bufferView":223,"componentType":5125,"count":324,"type":"SCALAR"},{"bufferView":224,"componentType":5126,"count":192,"type":"VEC3","min":[-0.024021,-0.273713,-0.141874],"max":[0.026838,-0.212197,-0.137983]},{"bufferView":225,"componentType":5126,"count":192,"type":"VEC3"},{"bufferView":226,"componentType":5126,"count":192,"type":"VEC2"},{"bufferView":227,"componentType":5125,"count":648,"type":"SCALAR"},{"bufferView":228,"componentType":5126,"count":580,"type":"VEC3","min":[-0.054615,-0.078108,-0.050712],"max":[0.052318,0.044956,0.050712]},{"bufferView":229,"componentType":5126,"count":580,"type":"VEC3"},{"bufferView":230,"componentType":5126,"count":580,"type":"VEC2"},{"bufferView":231,"componentType":5125,"count":1944,"type":"SCALAR"},{"bufferView":232,"componentType":5126,"count":384,"type":"VEC3","min":[-0.032639,-0.051528,-0.047617],"max":[0.033705,-0.019373,-0.034526]},{"bufferView":233,"componentType":5126,"count":384,"type":"VEC3"},{"bufferView":234,"componentType":5126,"count":384,"type":"VEC2"},{"bufferView":235,"componentType":5125,"count":1296,"type":"SCALAR"},{"bufferView":236,"componentType":5126,"count":96,"type":"VEC3","min":[-0.032654,-0.035298,-0.066344],"max":[0.046216,0.030077,-0.036832]},{"bufferView":237,"componentType":5126,"count":96,"type":"VEC3"},{"bufferView":238,"componentType":5126,"count":96,"type":"VEC2"},{"bufferView":239,"componentType":5125,"count":324,"type":"SCALAR"},{"bufferView":240,"componentType":5126,"count":96,"type":"VEC3","min":[-0.106281,-0.325,-0.104838],"max":[0.106281,-0.0,0.104838]},{"bufferView":241,"componentType":5126,"count":96,"type":"VEC3"},{"bufferView":242,"componentType":5126,"count":96,"type":"VEC2"},{"bufferView":243,"componentType":5125,"count":324,"type":"SCALAR"},{"bufferView":244,"componentType":5126,"count":112,"type":"VEC3","min":[-0.090118,-0.084786,-0.079207],"max":[0.090118,0.084786,0.079207]},{"bufferView":245,"componentType":5126,"count":112,"type":"VEC3"},{"bufferView":246,"componentType":5126,"count":112,"type":"VEC2"},{"bufferView":247,"componentType":5125,"count":420,"type":"SCALAR"},{"bufferView":248,"componentType":5126,"count":96,"type":"VEC3","min":[-0.067689,-0.258365,-0.123172],"max":[0.075628,-0.096353,-0.064077]},{"bufferView":249,"componentType":5126,"count":96,"type":"VEC3"},{"bufferView":250,"componentType":5126,"count":96,"type":"VEC2"},{"bufferView":251,"componentType":5125,"count":324,"type":"SCALAR"},{"bufferView":252,"componentType":5126,"count":96,"type":"VEC3","min":[-0.097337,-0.078481,-0.148135],"max":[0.097309,0.080016,-0.073648]},{"bufferView":253,"componentType":5126,"count":96,"type":"VEC3"},{"bufferView":254,"componentType":5126,"count":96,"type":"VEC2"},{"bufferView":255,"componentType":5125,"count":324,"type":"SCALAR"},{"bufferView":256,"componentType":5126,"count":192,"type":"VEC3","min":[-0.061874,-0.211657,-0.157776],"max":[0.061872,0.018974,-0.121286]},{"bufferView":257,"componentType":5126,"count":192,"type":"VEC3"},{"bufferView":258,"componentType":5126,"count":192,"type":"VEC2"},{"bufferView":259,"componentType":5125,"count":648,"type":"SCALAR"},{"bufferView":260,"componentType":5126,"count":192,"type":"VEC3","min":[-0.133718,-0.325,-0.132],"max":[0.152418,-0.0,0.132]},{"bufferView":261,"componentType":5126,"count":192,"type":"VEC3"},{"bufferView":262,"componentType":5126,"count":192,"type":"VEC2"},{"bufferView":263,"componentType":5125,"count":648,"type":"SCALAR"},{"bufferView":264,"componentType":5126,"count":96,"type":"VEC3","min":[-0.072653,-0.248224,-0.127767],"max":[0.082005,-0.058869,-0.089155]},{"bufferView":265,"componentType":5126,"count":96,"type":"VEC3"},{"bufferView":266,"componentType":5126,"count":96,"type":"VEC2"},{"bufferView":267,"componentType":5125,"count":324,"type":"SCALAR"},{"bufferView":268,"componentType":5126,"count":96,"type":"VEC3","min":[0.150703,-0.127352,-0.069269],"max":[0.162058,-0.091932,-0.014092]},{"bufferView":269,"componentType":5126,"count":96,"type":"VEC3"},{"bufferView":270,"componentType":5126,"count":96,"type":"VEC2"},{"bufferView":271,"componentType":5125,"count":324,"type":"SCALAR"},{"bufferView":272,"componentType":5126,"count":96,"type":"VEC3","min":[-0.096106,-0.232046,-0.113552],"max":[0.111134,-0.188028,0.122649]},{"bufferView":273,"componentType":5126,"count":96,"type":"VEC3"},{"bufferView":274,"componentType":5126,"count":96,"type":"VEC2"},{"bufferView":275,"componentType":5125,"count":324,"type":"SCALAR"},{"bufferView":276,"componentType":5126,"count":288,"type":"VEC3","min":[-0.231142,-0.255,-0.14],"max":[0.231142,0.245,0.14]},{"bufferView":277,"componentType":5126,"count":288,"type":"VEC3"},{"bufferView":278,"componentType":5126,"count":288,"type":"VEC2"},{"bufferView":279,"componentType":5125,"count":1188,"type":"SCALAR"},{"bufferView":280,"componentType":5126,"count":245,"type":"VEC3","min":[-0.204577,-0.045,-0.2],"max":[0.204577,0.215,-0.097431]},{"bufferView":281,"componentType":5126,"count":245,"type":"VEC3"},{"bufferView":282,"componentType":5126,"count":245,"type":"VEC2"},{"bufferView":283,"componentType":5125,"count":972,"type":"SCALAR"},{"bufferView":284,"componentType":5126,"count":768,"type":"VEC3","min":[-0.17328,-0.1695,-0.22],"max":[0.17328,0.2,-0.1115]},{"bufferView":285,"componentType":5126,"count":768,"type":"VEC3"},{"bufferView":286,"componentType":5126,"count":768,"type":"VEC2"},{"bufferView":287,"componentType":5125,"count":2592,"type":"SCALAR"},{"bufferView":288,"componentType":5126,"count":192,"type":"VEC3","min":[-0.1896,-0.0325,-0.188],"max":[0.1896,0.0225,-0.166]},{"bufferView":289,"componentType":5126,"count":192,"type":"VEC3"},{"bufferView":290,"componentType":5126,"count":192,"type":"VEC2"},{"bufferView":291,"componentType":5125,"count":648,"type":"SCALAR"},{"bufferView":292,"componentType":5126,"count":192,"type":"VEC3","min":[-0.183862,-0.165184,-0.183057],"max":[0.183862,0.215184,-0.124943]},{"bufferView":293,"componentType":5126,"count":192,"type":"VEC3"},{"bufferView":294,"componentType":5126,"count":192,"type":"VEC2"},{"bufferView":295,"componentType":5125,"count":648,"type":"SCALAR"},{"bufferView":296,"componentType":5126,"count":864,"type":"VEC3","min":[-0.133187,0.115112,-0.2164],"max":[-0.060872,0.137512,-0.2156]},{"bufferView":297,"componentType":5126,"count":864,"type":"VEC3"},{"bufferView":298,"componentType":5126,"count":864,"type":"VEC2"},{"bufferView":299,"componentType":5125,"count":2376,"type":"SCALAR"},{"bufferView":300,"componentType":5126,"count":288,"type":"VEC3","min":[0.07248,0.1505,-0.227],"max":[0.13104,0.1595,-0.219]},{"bufferView":301,"componentType":5126,"count":288,"type":"VEC3"},{"bufferView":302,"componentType":5126,"count":288,"type":"VEC2"},{"bufferView":303,"componentType":5125,"count":972,"type":"SCALAR"}]}
