{"asset":{"version":"2.0","generator":"Voxel Blitz Blender runtime export"},"scene":0,"scenes":[{"nodes":[7,15,18,20,24,25,26,27,28]}],"nodes":[{"name":"body | rubber","mesh":0,"extras":{"blenderAsset":"skipjack","part":"body","skipjack_material":"rubber"}},{"name":"body | gunmetal","mesh":1,"extras":{"blenderAsset":"skipjack","part":"body","skipjack_material":"gunmetal"}},{"name":"body | machined steel","mesh":2,"extras":{"blenderAsset":"skipjack","part":"body","skipjack_material":"machined steel"}},{"name":"body | orange paint","mesh":3,"extras":{"blenderAsset":"skipjack","part":"body","skipjack_material":"orange paint"}},{"name":"body | dark polymer","mesh":4,"extras":{"blenderAsset":"skipjack","part":"body","skipjack_material":"dark polymer"}},{"name":"body | olive drab","mesh":5,"extras":{"blenderAsset":"skipjack","part":"body","skipjack_material":"olive drab"}},{"name":"body | optic glass","mesh":6,"extras":{"blenderAsset":"skipjack","part":"body","skipjack_material":"optic glass"}},{"name":"body","extras":{"blenderAsset":"skipjack"},"children":[0,1,2,3,4,5,6]},{"name":"mag | gunmetal","mesh":7,"extras":{"blenderAsset":"skipjack","part":"mag","skipjack_material":"gunmetal"}},{"name":"mag | machined steel","mesh":8,"extras":{"blenderAsset":"skipjack","part":"mag","skipjack_material":"machined steel"}},{"name":"mag | orange paint","mesh":9,"extras":{"blenderAsset":"skipjack","part":"mag","skipjack_material":"orange paint"}},{"name":"mag | dark polymer","mesh":10,"extras":{"blenderAsset":"skipjack","part":"mag","skipjack_material":"dark polymer"}},{"name":"mag | round 1","mesh":11,"extras":{"blenderAsset":"skipjack","part":"mag","ammoRound":1}},{"name":"mag | round 2","mesh":12,"extras":{"blenderAsset":"skipjack","part":"mag","ammoRound":2}},{"name":"mag | round 3","mesh":13,"extras":{"blenderAsset":"skipjack","part":"mag","ammoRound":3}},{"name":"mag","extras":{"blenderAsset":"skipjack"},"children":[8,9,10,11,12,13,14]},{"name":"bolt | gunmetal","mesh":14,"extras":{"blenderAsset":"skipjack","part":"bolt","skipjack_material":"gunmetal"}},{"name":"bolt | machined steel","mesh":15,"extras":{"blenderAsset":"skipjack","part":"bolt","skipjack_material":"machined steel"}},{"name":"bolt","extras":{"blenderAsset":"skipjack"},"children":[16,17]},{"name":"trigger | gunmetal","mesh":16,"extras":{"blenderAsset":"skipjack","part":"trigger","skipjack_material":"gunmetal"}},{"name":"trigger","extras":{"blenderAsset":"skipjack"},"children":[19]},{"name":"extra | gunmetal","mesh":17,"extras":{"blenderAsset":"skipjack","part":"extra","skipjack_material":"gunmetal"}},{"name":"extra | orange paint","mesh":18,"extras":{"blenderAsset":"skipjack","part":"extra","skipjack_material":"orange paint"}},{"name":"extra | phosphor","mesh":19,"extras":{"blenderAsset":"skipjack","part":"extra","skipjack_material":"phosphor"}},{"name":"extra","extras":{"blenderAsset":"skipjack"},"children":[21,22,23]},{"name":"muzzle","extras":{"role":"gameplay mount marker"},"translation":[0.0,0.075,-0.782]},{"name":"grip","extras":{"role":"gameplay mount marker"},"translation":[0.041,-0.112,-0.332]},{"name":"support","extras":{"role":"gameplay mount marker"},"translation":[-0.052,0.006,-0.478]},{"name":"sight","extras":{"role":"gameplay mount marker"},"translation":[0.0,0.216,-0.342]}],"meshes":[{"name":"body | rubber","primitives":[{"attributes":{"POSITION":0,"NORMAL":1,"TEXCOORD_0":2},"indices":3,"material":0}]},{"name":"body | gunmetal","primitives":[{"attributes":{"POSITION":4,"NORMAL":5,"TEXCOORD_0":6},"indices":7,"material":1}]},{"name":"body | machined steel","primitives":[{"attributes":{"POSITION":8,"NORMAL":9,"TEXCOORD_0":10},"indices":11,"material":2}]},{"name":"body | orange paint","primitives":[{"attributes":{"POSITION":12,"NORMAL":13,"TEXCOORD_0":14},"indices":15,"material":3}]},{"name":"body | dark polymer","primitives":[{"attributes":{"POSITION":16,"NORMAL":17,"TEXCOORD_0":18},"indices":19,"material":4}]},{"name":"body | olive drab","primitives":[{"attributes":{"POSITION":20,"NORMAL":21,"TEXCOORD_0":22},"indices":23,"material":5}]},{"name":"body | optic glass","primitives":[{"attributes":{"POSITION":24,"NORMAL":25,"TEXCOORD_0":26},"indices":27,"material":8}]},{"name":"mag | gunmetal","primitives":[{"attributes":{"POSITION":28,"NORMAL":29,"TEXCOORD_0":30},"indices":31,"material":1}]},{"name":"mag | machined steel","primitives":[{"attributes":{"POSITION":32,"NORMAL":33,"TEXCOORD_0":34},"indices":35,"material":2}]},{"name":"mag | orange paint","primitives":[{"attributes":{"POSITION":36,"NORMAL":37,"TEXCOORD_0":38},"indices":39,"material":3}]},{"name":"mag | dark polymer","primitives":[{"attributes":{"POSITION":40,"NORMAL":41,"TEXCOORD_0":42},"indices":43,"material":4}]},{"name":"mag | round 1","primitives":[{"attributes":{"POSITION":44,"NORMAL":45,"TEXCOORD_0":46,"COLOR_0":47},"indices":48,"material":6}]},{"name":"mag | round 2","primitives":[{"attributes":{"POSITION":49,"NORMAL":50,"TEXCOORD_0":51,"COLOR_0":52},"indices":53,"material":6}]},{"name":"mag | round 3","primitives":[{"attributes":{"POSITION":54,"NORMAL":55,"TEXCOORD_0":56,"COLOR_0":57},"indices":58,"material":6}]},{"name":"bolt | gunmetal","primitives":[{"attributes":{"POSITION":59,"NORMAL":60,"TEXCOORD_0":61},"indices":62,"material":1}]},{"name":"bolt | machined steel","primitives":[{"attributes":{"POSITION":63,"NORMAL":64,"TEXCOORD_0":65},"indices":66,"material":2}]},{"name":"trigger | gunmetal","primitives":[{"attributes":{"POSITION":67,"NORMAL":68,"TEXCOORD_0":69},"indices":70,"material":1}]},{"name":"extra | gunmetal","primitives":[{"attributes":{"POSITION":71,"NORMAL":72,"TEXCOORD_0":73},"indices":74,"material":1}]},{"name":"extra | orange paint","primitives":[{"attributes":{"POSITION":75,"NORMAL":76,"TEXCOORD_0":77},"indices":78,"material":3}]},{"name":"extra | phosphor","primitives":[{"attributes":{"POSITION":79,"NORMAL":80,"TEXCOORD_0":81},"indices":82,"material":7}]}],"materials":[{"name":"SKIPJACK | rubber","pbrMetallicRoughness":{"baseColorFactor":[0.55,0.57,0.57,1.0],"metallicFactor":0,"roughnessFactor":0.84,"baseColorTexture":{"index":0}},"extras":{"textureLibrary":"pebbled-rubber","textureBumpScale":0.0008,"gltfTint":[0.55,0.57,0.57]}},{"name":"SKIPJACK | gunmetal","pbrMetallicRoughness":{"baseColorFactor":[0.29,0.31,0.34,1.0],"metallicFactor":0.48,"roughnessFactor":0.47,"baseColorTexture":{"index":1}},"extras":{"textureLibrary":"skipjack-dark-steel","textureBumpScale":4.5e-05,"gltfTint":[0.29,0.31,0.34]}},{"name":"SKIPJACK | machined steel","pbrMetallicRoughness":{"baseColorFactor":[0.42,0.45,0.48,1.0],"metallicFactor":0.55,"roughnessFactor":0.36,"baseColorTexture":{"index":2}},"extras":{"textureLibrary":"machined-steel","textureBumpScale":0.00018,"gltfTint":[0.42,0.45,0.48]}},{"name":"SKIPJACK | orange paint","pbrMetallicRoughness":{"baseColorFactor":[0.82,0.55,0.34,1.0],"metallicFactor":0.14,"roughnessFactor":0.5,"baseColorTexture":{"index":3}},"extras":{"textureLibrary":"orange-paint","textureBumpScale":0.0004,"gltfTint":[0.82,0.55,0.34]}},{"name":"SKIPJACK | dark polymer","pbrMetallicRoughness":{"baseColorFactor":[0.48,0.52,0.56,1.0],"metallicFactor":0.02,"roughnessFactor":0.7,"baseColorTexture":{"index":4}},"extras":{"textureLibrary":"molded-polymer","textureBumpScale":0.00055,"gltfTint":[0.48,0.52,0.56]}},{"name":"SKIPJACK | olive drab","pbrMetallicRoughness":{"baseColorFactor":[0.44,0.49,0.37,1.0],"metallicFactor":0.2,"roughnessFactor":0.6,"baseColorTexture":{"index":5}},"extras":{"textureLibrary":"skipjack-olive-armor","textureBumpScale":7e-05,"gltfTint":[0.44,0.49,0.37]}},{"name":"SKIPJACK | round colors","pbrMetallicRoughness":{"baseColorFactor":[1,1,1,1],"metallicFactor":0.24,"roughnessFactor":0.48,"baseColorTexture":{"index":6}},"extras":{"textureLibrary":"skipjack-shell","textureBumpScale":4e-05}},{"name":"SKIPJACK | phosphor","pbrMetallicRoughness":{"baseColorFactor":[0.38,0.78,0.38,1.0],"metallicFactor":0.0,"roughnessFactor":0.3199999928474426},"extras":{"gltfTint":[0.38,0.78,0.38]}},{"name":"SKIPJACK | optic glass","pbrMetallicRoughness":{"baseColorFactor":[0.18,0.58,0.65,0.28],"metallicFactor":0.03999999910593033,"roughnessFactor":0.10000000149011612},"extras":{"glass":true},"alphaMode":"BLEND"}],"buffers":[{"uri":"skipjack.bin","byteLength":1248768}],"bufferViews":[{"buffer":0,"byteOffset":0,"byteLength":25560,"target":34962},{"buffer":0,"byteOffset":25560,"byteLength":25560,"target":34962},{"buffer":0,"byteOffset":51120,"byteLength":17040,"target":34962},{"buffer":0,"byteOffset":68160,"byteLength":18912,"target":34963},{"buffer":0,"byteOffset":87072,"byteLength":80856,"target":34962},{"buffer":0,"byteOffset":167928,"byteLength":80856,"target":34962},{"buffer":0,"byteOffset":248784,"byteLength":53904,"target":34962},{"buffer":0,"byteOffset":302688,"byteLength":66384,"target":34963},{"buffer":0,"byteOffset":369072,"byteLength":55488,"target":34962},{"buffer":0,"byteOffset":424560,"byteLength":55488,"target":34962},{"buffer":0,"byteOffset":480048,"byteLength":36992,"target":34962},{"buffer":0,"byteOffset":517040,"byteLength":51264,"target":34963},{"buffer":0,"byteOffset":568304,"byteLength":9408,"target":34962},{"buffer":0,"byteOffset":577712,"byteLength":9408,"target":34962},{"buffer":0,"byteOffset":587120,"byteLength":6272,"target":34962},{"buffer":0,"byteOffset":593392,"byteLength":8880,"target":34963},{"buffer":0,"byteOffset":602272,"byteLength":52512,"target":34962},{"buffer":0,"byteOffset":654784,"byteLength":52512,"target":34962},{"buffer":0,"byteOffset":707296,"byteLength":35008,"target":34962},{"buffer":0,"byteOffset":742304,"byteLength":42144,"target":34963},{"buffer":0,"byteOffset":784448,"byteLength":15984,"target":34962},{"buffer":0,"byteOffset":800432,"byteLength":15984,"target":34962},{"buffer":0,"byteOffset":816416,"byteLength":10656,"target":34962},{"buffer":0,"byteOffset":827072,"byteLength":25248,"target":34963},{"buffer":0,"byteOffset":852320,"byteLength":4224,"target":34962},{"buffer":0,"byteOffset":856544,"byteLength":4224,"target":34962},{"buffer":0,"byteOffset":860768,"byteLength":2816,"target":34962},{"buffer":0,"byteOffset":863584,"byteLength":2256,"target":34963},{"buffer":0,"byteOffset":865840,"byteLength":13632,"target":34962},{"buffer":0,"byteOffset":879472,"byteLength":13632,"target":34962},{"buffer":0,"byteOffset":893104,"byteLength":9088,"target":34962},{"buffer":0,"byteOffset":902192,"byteLength":7824,"target":34963},{"buffer":0,"byteOffset":910016,"byteLength":32160,"target":34962},{"buffer":0,"byteOffset":942176,"byteLength":32160,"target":34962},{"buffer":0,"byteOffset":974336,"byteLength":21440,"target":34962},{"buffer":0,"byteOffset":995776,"byteLength":34800,"target":34963},{"buffer":0,"byteOffset":1030576,"byteLength":8064,"target":34962},{"buffer":0,"byteOffset":1038640,"byteLength":8064,"target":34962},{"buffer":0,"byteOffset":1046704,"byteLength":5376,"target":34962},{"buffer":0,"byteOffset":1052080,"byteLength":3840,"target":34963},{"buffer":0,"byteOffset":1055920,"byteLength":12672,"target":34962},{"buffer":0,"byteOffset":1068592,"byteLength":12672,"target":34962},{"buffer":0,"byteOffset":1081264,"byteLength":8448,"target":34962},{"buffer":0,"byteOffset":1089712,"byteLength":6768,"target":34963},{"buffer":0,"byteOffset":1096480,"byteLength":7488,"target":34962},{"buffer":0,"byteOffset":1103968,"byteLength":7488,"target":34962},{"buffer":0,"byteOffset":1111456,"byteLength":4992,"target":34962},{"buffer":0,"byteOffset":1116448,"byteLength":2496,"target":34962},{"buffer":0,"byteOffset":1118944,"byteLength":6624,"target":34963},{"buffer":0,"byteOffset":1125568,"byteLength":7488,"target":34962},{"buffer":0,"byteOffset":1133056,"byteLength":7488,"target":34962},{"buffer":0,"byteOffset":1140544,"byteLength":4992,"target":34962},{"buffer":0,"byteOffset":1145536,"byteLength":2496,"target":34962},{"buffer":0,"byteOffset":1148032,"byteLength":6624,"target":34963},{"buffer":0,"byteOffset":1154656,"byteLength":7488,"target":34962},{"buffer":0,"byteOffset":1162144,"byteLength":7488,"target":34962},{"buffer":0,"byteOffset":1169632,"byteLength":4992,"target":34962},{"buffer":0,"byteOffset":1174624,"byteLength":2496,"target":34962},{"buffer":0,"byteOffset":1177120,"byteLength":6624,"target":34963},{"buffer":0,"byteOffset":1183744,"byteLength":4608,"target":34962},{"buffer":0,"byteOffset":1188352,"byteLength":4608,"target":34962},{"buffer":0,"byteOffset":1192960,"byteLength":3072,"target":34962},{"buffer":0,"byteOffset":1196032,"byteLength":2256,"target":34963},{"buffer":0,"byteOffset":1198288,"byteLength":1536,"target":34962},{"buffer":0,"byteOffset":1199824,"byteLength":1536,"target":34962},{"buffer":0,"byteOffset":1201360,"byteLength":1024,"target":34962},{"buffer":0,"byteOffset":1202384,"byteLength":1872,"target":34963},{"buffer":0,"byteOffset":1204256,"byteLength":4800,"target":34962},{"buffer":0,"byteOffset":1209056,"byteLength":4800,"target":34962},{"buffer":0,"byteOffset":1213856,"byteLength":3200,"target":34962},{"buffer":0,"byteOffset":1217056,"byteLength":5280,"target":34963},{"buffer":0,"byteOffset":1222336,"byteLength":1536,"target":34962},{"buffer":0,"byteOffset":1223872,"byteLength":1536,"target":34962},{"buffer":0,"byteOffset":1225408,"byteLength":1024,"target":34962},{"buffer":0,"byteOffset":1226432,"byteLength":1872,"target":34963},{"buffer":0,"byteOffset":1228304,"byteLength":5760,"target":34962},{"buffer":0,"byteOffset":1234064,"byteLength":5760,"target":34962},{"buffer":0,"byteOffset":1239824,"byteLength":3840,"target":34962},{"buffer":0,"byteOffset":1243664,"byteLength":2784,"target":34963},{"buffer":0,"byteOffset":1246448,"byteLength":672,"target":34962},{"buffer":0,"byteOffset":1247120,"byteLength":672,"target":34962},{"buffer":0,"byteOffset":1247792,"byteLength":448,"target":34962},{"buffer":0,"byteOffset":1248240,"byteLength":528,"target":34963}],"accessors":[{"bufferView":0,"componentType":5126,"count":2130,"type":"VEC3","min":[-0.0705,-0.162173,-0.5915],"max":[0.0705,0.128991,0.249973]},{"bufferView":1,"componentType":5126,"count":2130,"type":"VEC3"},{"bufferView":2,"componentType":5126,"count":2130,"type":"VEC2"},{"bufferView":3,"componentType":5125,"count":4728,"type":"SCALAR","normalized":false},{"bufferView":4,"componentType":5126,"count":6738,"type":"VEC3","min":[-0.0805,-0.0935,-0.782],"max":[0.0795,0.255,-0.057281]},{"bufferView":5,"componentType":5126,"count":6738,"type":"VEC3"},{"bufferView":6,"componentType":5126,"count":6738,"type":"VEC2"},{"bufferView":7,"componentType":5125,"count":16596,"type":"SCALAR","normalized":false},{"bufferView":8,"componentType":5126,"count":4624,"type":"VEC3","min":[-0.08,-0.168131,-0.782],"max":[0.08,0.190896,0.191551]},{"bufferView":9,"componentType":5126,"count":4624,"type":"VEC3"},{"bufferView":10,"componentType":5126,"count":4624,"type":"VEC2"},{"bufferView":11,"componentType":5125,"count":12816,"type":"SCALAR","normalized":false},{"bufferView":12,"componentType":5126,"count":784,"type":"VEC3","min":[-0.063,0.012,-0.769],"max":[0.063,0.2053,-0.3057]},{"bufferView":13,"componentType":5126,"count":784,"type":"VEC3"},{"bufferView":14,"componentType":5126,"count":784,"type":"VEC2"},{"bufferView":15,"componentType":5125,"count":2220,"type":"SCALAR","normalized":false},{"bufferView":16,"componentType":5126,"count":4376,"type":"VEC3","min":[-0.0807,-0.18132,-0.40433],"max":[0.0807,0.209,0.24788]},{"bufferView":17,"componentType":5126,"count":4376,"type":"VEC3"},{"bufferView":18,"componentType":5126,"count":4376,"type":"VEC2"},{"bufferView":19,"componentType":5125,"count":10536,"type":"SCALAR","normalized":false},{"bufferView":20,"componentType":5126,"count":1332,"type":"VEC3","min":[-0.0765,-0.097507,-0.43864],"max":[0.0765,0.177747,0.23248]},{"bufferView":21,"componentType":5126,"count":1332,"type":"VEC3"},{"bufferView":22,"componentType":5126,"count":1332,"type":"VEC2"},{"bufferView":23,"componentType":5125,"count":6312,"type":"SCALAR","normalized":false},{"bufferView":24,"componentType":5126,"count":352,"type":"VEC3","min":[-0.0255,0.1905,-0.3425],"max":[0.0255,0.2415,-0.3415]},{"bufferView":25,"componentType":5126,"count":352,"type":"VEC3"},{"bufferView":26,"componentType":5126,"count":352,"type":"VEC2"},{"bufferView":27,"componentType":5125,"count":564,"type":"SCALAR","normalized":false},{"bufferView":28,"componentType":5126,"count":1136,"type":"VEC3","min":[-0.176,-0.0945,-0.3],"max":[-0.1265,0.1345,-0.074578]},{"bufferView":29,"componentType":5126,"count":1136,"type":"VEC3"},{"bufferView":30,"componentType":5126,"count":1136,"type":"VEC2"},{"bufferView":31,"componentType":5125,"count":1956,"type":"SCALAR","normalized":false},{"bufferView":32,"componentType":5126,"count":2680,"type":"VEC3","min":[-0.1765,-0.0745,-0.296722],"max":[-0.0875,0.1145,-0.079278]},{"bufferView":33,"componentType":5126,"count":2680,"type":"VEC3"},{"bufferView":34,"componentType":5126,"count":2680,"type":"VEC2"},{"bufferView":35,"componentType":5125,"count":8700,"type":"SCALAR","normalized":false},{"bufferView":36,"componentType":5126,"count":672,"type":"VEC3","min":[-0.1735,-0.106,-0.089],"max":[-0.1525,0.08475,-0.0675]},{"bufferView":37,"componentType":5126,"count":672,"type":"VEC3"},{"bufferView":38,"componentType":5126,"count":672,"type":"VEC2"},{"bufferView":39,"componentType":5125,"count":960,"type":"SCALAR","normalized":false},{"bufferView":40,"componentType":5126,"count":1056,"type":"VEC3","min":[-0.165,-0.088,-0.2955],"max":[-0.0755,0.128,-0.0805]},{"bufferView":41,"componentType":5126,"count":1056,"type":"VEC3"},{"bufferView":42,"componentType":5126,"count":1056,"type":"VEC2"},{"bufferView":43,"componentType":5125,"count":1692,"type":"SCALAR","normalized":false},{"bufferView":44,"componentType":5126,"count":624,"type":"VEC3","min":[-0.1455,0.0565,-0.283],"max":[-0.0925,0.1095,-0.098]},{"bufferView":45,"componentType":5126,"count":624,"type":"VEC3"},{"bufferView":46,"componentType":5126,"count":624,"type":"VEC2"},{"bufferView":47,"componentType":5121,"count":624,"type":"VEC4","normalized":true},{"bufferView":48,"componentType":5125,"count":1656,"type":"SCALAR","normalized":false},{"bufferView":49,"componentType":5126,"count":624,"type":"VEC3","min":[-0.1455,-0.0065,-0.283],"max":[-0.0925,0.0465,-0.098]},{"bufferView":50,"componentType":5126,"count":624,"type":"VEC3"},{"bufferView":51,"componentType":5126,"count":624,"type":"VEC2"},{"bufferView":52,"componentType":5121,"count":624,"type":"VEC4","normalized":true},{"bufferView":53,"componentType":5125,"count":1656,"type":"SCALAR","normalized":false},{"bufferView":54,"componentType":5126,"count":624,"type":"VEC3","min":[-0.1455,-0.0695,-0.283],"max":[-0.0925,-0.0165,-0.098]},{"bufferView":55,"componentType":5126,"count":624,"type":"VEC3"},{"bufferView":56,"componentType":5126,"count":624,"type":"VEC2"},{"bufferView":57,"componentType":5121,"count":624,"type":"VEC4","normalized":true},{"bufferView":58,"componentType":5125,"count":1656,"type":"SCALAR","normalized":false},{"bufferView":59,"componentType":5126,"count":384,"type":"VEC3","min":[0.078,0.08,-0.2685],"max":[0.092,0.092,-0.2275]},{"bufferView":60,"componentType":5126,"count":384,"type":"VEC3"},{"bufferView":61,"componentType":5126,"count":384,"type":"VEC2"},{"bufferView":62,"componentType":5125,"count":564,"type":"SCALAR","normalized":false},{"bufferView":63,"componentType":5126,"count":128,"type":"VEC3","min":[0.091,0.079,-0.257],"max":[0.101,0.093,-0.243]},{"bufferView":64,"componentType":5126,"count":128,"type":"VEC3"},{"bufferView":65,"componentType":5126,"count":128,"type":"VEC2"},{"bufferView":66,"componentType":5125,"count":468,"type":"SCALAR","normalized":false},{"bufferView":67,"componentType":5126,"count":400,"type":"VEC3","min":[-0.022,-0.060929,-0.395609],"max":[0.022,-0.018,-0.304629]},{"bufferView":68,"componentType":5126,"count":400,"type":"VEC3"},{"bufferView":69,"componentType":5126,"count":400,"type":"VEC2"},{"bufferView":70,"componentType":5125,"count":1320,"type":"SCALAR","normalized":false},{"bufferView":71,"componentType":5126,"count":128,"type":"VEC3","min":[0.076,-0.024,-0.34],"max":[0.082,-0.006,-0.322]},{"bufferView":72,"componentType":5126,"count":128,"type":"VEC3"},{"bufferView":73,"componentType":5126,"count":128,"type":"VEC2"},{"bufferView":74,"componentType":5125,"count":468,"type":"SCALAR","normalized":false},{"bufferView":75,"componentType":5126,"count":480,"type":"VEC3","min":[-0.037,-0.05406,-0.39356],"max":[0.0825,0.0405,-0.2885]},{"bufferView":76,"componentType":5126,"count":480,"type":"VEC3"},{"bufferView":77,"componentType":5126,"count":480,"type":"VEC2"},{"bufferView":78,"componentType":5125,"count":696,"type":"SCALAR","normalized":false},{"bufferView":79,"componentType":5126,"count":56,"type":"VEC3","min":[-0.0014,0.2146,-0.3425],"max":[0.0014,0.2174,-0.3415]},{"bufferView":80,"componentType":5126,"count":56,"type":"VEC3"},{"bufferView":81,"componentType":5126,"count":56,"type":"VEC2"},{"bufferView":82,"componentType":5125,"count":132,"type":"SCALAR","normalized":false}],"images":[{"uri":"textures/palette/pebbled-rubber.jpg","name":"textures/palette/pebbled-rubber.jpg"},{"uri":"textures/palette/skipjack-dark-steel.jpg","name":"textures/palette/skipjack-dark-steel.jpg"},{"uri":"textures/palette/machined-steel.jpg","name":"textures/palette/machined-steel.jpg"},{"uri":"textures/palette/orange-paint.jpg","name":"textures/palette/orange-paint.jpg"},{"uri":"textures/palette/molded-polymer.jpg","name":"textures/palette/molded-polymer.jpg"},{"uri":"textures/palette/skipjack-olive-armor.jpg","name":"textures/palette/skipjack-olive-armor.jpg"},{"uri":"textures/palette/skipjack-shell.jpg","name":"textures/palette/skipjack-shell.jpg"}],"textures":[{"source":0,"sampler":0},{"source":1,"sampler":0},{"source":2,"sampler":0},{"source":3,"sampler":0},{"source":4,"sampler":0},{"source":5,"sampler":0},{"source":6,"sampler":0}],"samplers":[{"magFilter":9729,"minFilter":9987,"wrapS":10497,"wrapT":10497}]}
