{"asset":{"version":"2.0","generator":"Voxel Blitz Blender runtime export"},"scene":0,"scenes":[{"nodes":[0,1,2,3,12,13,14,15,16]}],"nodes":[{"name":"body","extras":{"blenderAsset":"skua"},"mesh":0},{"name":"mag","extras":{"blenderAsset":"skua","role":"seated disc","spinAxis":[0,0.994522,0.104528],"tiltDeg":6},"mesh":1,"translation":[0.0,0.042,-0.22]},{"name":"bolt","extras":{"blenderAsset":"skua","role":"flywheel","spinAxis":[0,0,1]},"mesh":2,"translation":[0.0,0.0,0.06]},{"name":"trigger","extras":{"blenderAsset":"skua"},"mesh":3},{"name":"horn left | orange paint","extras":{"blenderAsset":"skua","role":"catch horn","hingeAxis":[0,1,0],"flareSign":1},"mesh":4,"translation":[-0.05,0.0,-0.335]},{"name":"horn left | razor glow","extras":{"blenderAsset":"skua","role":"catch horn","hingeAxis":[0,1,0],"flareSign":1},"mesh":5,"translation":[-0.05,0.0,-0.335]},{"name":"horn right | orange paint","extras":{"blenderAsset":"skua","role":"catch horn","hingeAxis":[0,1,0],"flareSign":-1},"mesh":6,"translation":[0.05,0.0,-0.335]},{"name":"horn right | razor glow","extras":{"blenderAsset":"skua","role":"catch horn","hingeAxis":[0,1,0],"flareSign":-1},"mesh":7,"translation":[0.05,0.0,-0.335]},{"name":"spare disc | razor glow","extras":{"blenderAsset":"skua","role":"spare disc round"},"mesh":8,"translation":[0.0,-0.072,-0.165]},{"name":"spare disc | polished edge","extras":{"blenderAsset":"skua","role":"spare disc round"},"mesh":9,"translation":[0.0,-0.072,-0.165]},{"name":"spare disc | blade steel","extras":{"blenderAsset":"skua","role":"spare disc round"},"mesh":10,"translation":[0.0,-0.072,-0.165]},{"name":"gauge needle | brass","extras":{"blenderAsset":"skua","role":"gauge needle","spinAxis":[1,0,0]},"mesh":11,"translation":[-0.0635,0.0,0.07]},{"name":"extra","extras":{"blenderAsset":"skua"},"children":[4,5,6,7,8,9,10,11]},{"name":"grip","extras":{"role":"gameplay mount marker"},"translation":[0.0,-0.075,0.04]},{"name":"muzzle","extras":{"role":"gameplay mount marker"},"translation":[0.0,0.0,-0.4]},{"name":"sight","extras":{"role":"gameplay mount marker"},"translation":[0.0,0.15,-0.34]},{"name":"support","extras":{"role":"gameplay mount marker"},"translation":[0.0,-0.06,-0.3]}],"meshes":[{"name":"body","primitives":[{"attributes":{"POSITION":0,"NORMAL":1,"TEXCOORD_0":2},"indices":3,"material":0},{"attributes":{"POSITION":4,"NORMAL":5,"TEXCOORD_0":6},"indices":7,"material":1},{"attributes":{"POSITION":8,"NORMAL":9,"TEXCOORD_0":10},"indices":11,"material":2},{"attributes":{"POSITION":12,"NORMAL":13,"TEXCOORD_0":14},"indices":15,"material":3},{"attributes":{"POSITION":16,"NORMAL":17,"TEXCOORD_0":18},"indices":19,"material":4},{"attributes":{"POSITION":20,"NORMAL":21,"TEXCOORD_0":22},"indices":23,"material":6}]},{"name":"mag","primitives":[{"attributes":{"POSITION":24,"NORMAL":25,"TEXCOORD_0":26},"indices":27,"material":3},{"attributes":{"POSITION":28,"NORMAL":29,"TEXCOORD_0":30},"indices":31,"material":5},{"attributes":{"POSITION":32,"NORMAL":33,"TEXCOORD_0":34},"indices":35,"material":7}]},{"name":"bolt","primitives":[{"attributes":{"POSITION":36,"NORMAL":37,"TEXCOORD_0":38},"indices":39,"material":5}]},{"name":"trigger","primitives":[{"attributes":{"POSITION":40,"NORMAL":41,"TEXCOORD_0":42},"indices":43,"material":2}]},{"name":"horn left | orange paint","primitives":[{"attributes":{"POSITION":44,"NORMAL":45,"TEXCOORD_0":46},"indices":47,"material":0}]},{"name":"horn left | razor glow","primitives":[{"attributes":{"POSITION":48,"NORMAL":49,"TEXCOORD_0":50},"indices":51,"material":3}]},{"name":"horn right | orange paint","primitives":[{"attributes":{"POSITION":52,"NORMAL":53,"TEXCOORD_0":54},"indices":55,"material":0}]},{"name":"horn right | razor glow","primitives":[{"attributes":{"POSITION":56,"NORMAL":57,"TEXCOORD_0":58},"indices":59,"material":3}]},{"name":"spare disc | razor glow","primitives":[{"attributes":{"POSITION":60,"NORMAL":61,"TEXCOORD_0":62},"indices":63,"material":3}]},{"name":"spare disc | polished edge","primitives":[{"attributes":{"POSITION":64,"NORMAL":65,"TEXCOORD_0":66},"indices":67,"material":5}]},{"name":"spare disc | blade steel","primitives":[{"attributes":{"POSITION":68,"NORMAL":69,"TEXCOORD_0":70},"indices":71,"material":7}]},{"name":"gauge needle | brass","primitives":[{"attributes":{"POSITION":72,"NORMAL":73,"TEXCOORD_0":74},"indices":75,"material":4}]}],"materials":[{"name":"SKUA | orange paint","pbrMetallicRoughness":{"baseColorFactor":[1,1,1,1],"metallicFactor":0.14,"roughnessFactor":0.5,"baseColorTexture":{"index":0}},"extras":{"partMaterial":"orange paint","textureLibrary":"orange-paint","textureBumpScale":0.0004}},{"name":"SKUA | dark polymer","pbrMetallicRoughness":{"baseColorFactor":[1,1,1,1],"metallicFactor":0.02,"roughnessFactor":0.7,"baseColorTexture":{"index":1}},"extras":{"partMaterial":"dark polymer","textureLibrary":"molded-polymer","textureBumpScale":0.00055}},{"name":"SKUA | gunmetal","pbrMetallicRoughness":{"baseColorFactor":[1,1,1,1],"metallicFactor":0.35,"roughnessFactor":0.53,"baseColorTexture":{"index":2}},"extras":{"partMaterial":"gunmetal","textureLibrary":"phosphated-steel","textureBumpScale":0.0003}},{"name":"SKUA | razor glow","pbrMetallicRoughness":{"baseColorFactor":[0.3,0.01,0.19,1.0],"metallicFactor":0.0,"roughnessFactor":0.3499999940395355},"extras":{"partMaterial":"razor glow","cosmeticGlow":true,"emissiveStrength":6.0},"emissiveFactor":[1.0,0.049707,0.630757]},{"name":"SKUA | brass","pbrMetallicRoughness":{"baseColorFactor":[1,1,1,1],"metallicFactor":0.58,"roughnessFactor":0.42,"baseColorTexture":{"index":3}},"extras":{"partMaterial":"brass","textureLibrary":"aged-brass","textureBumpScale":0.0002}},{"name":"SKUA | polished edge","pbrMetallicRoughness":{"baseColorFactor":[1,1,1,1],"metallicFactor":0.55,"roughnessFactor":0.36,"baseColorTexture":{"index":4}},"extras":{"partMaterial":"polished edge","textureLibrary":"machined-steel","textureBumpScale":0.00018}},{"name":"SKUA | ivory coating","pbrMetallicRoughness":{"baseColorFactor":[1,1,1,1],"metallicFactor":0.08,"roughnessFactor":0.62,"baseColorTexture":{"index":5}},"extras":{"partMaterial":"ivory coating","textureLibrary":"ivory-ceramic","textureBumpScale":0.0003}},{"name":"SKUA | blade steel","pbrMetallicRoughness":{"baseColorFactor":[1,1,1,1],"metallicFactor":0.55,"roughnessFactor":0.36,"baseColorTexture":{"index":4}},"extras":{"partMaterial":"blade steel","textureLibrary":"machined-steel","textureBumpScale":0.00018}}],"images":[{"uri":"textures/palette/orange-paint.jpg","name":"textures/palette/orange-paint.jpg"},{"uri":"textures/palette/molded-polymer.jpg","name":"textures/palette/molded-polymer.jpg"},{"uri":"textures/palette/phosphated-steel.jpg","name":"textures/palette/phosphated-steel.jpg"},{"uri":"textures/palette/aged-brass.jpg","name":"textures/palette/aged-brass.jpg"},{"uri":"textures/palette/machined-steel.jpg","name":"textures/palette/machined-steel.jpg"},{"uri":"textures/palette/ivory-ceramic.jpg","name":"textures/palette/ivory-ceramic.jpg"}],"textures":[{"source":0,"sampler":0},{"source":1,"sampler":0},{"source":2,"sampler":0},{"source":3,"sampler":0},{"source":4,"sampler":0},{"source":5,"sampler":0}],"samplers":[{"magFilter":9729,"minFilter":9987,"wrapS":10497,"wrapT":10497}],"buffers":[{"uri":"skua.bin","byteLength":1101328}],"bufferViews":[{"buffer":0,"byteOffset":0,"byteLength":25104,"target":34962},{"buffer":0,"byteOffset":25104,"byteLength":25104,"target":34962},{"buffer":0,"byteOffset":50208,"byteLength":16736,"target":34962},{"buffer":0,"byteOffset":66944,"byteLength":13008,"target":34963},{"buffer":0,"byteOffset":79952,"byteLength":58584,"target":34962},{"buffer":0,"byteOffset":138536,"byteLength":58584,"target":34962},{"buffer":0,"byteOffset":197120,"byteLength":39056,"target":34962},{"buffer":0,"byteOffset":236176,"byteLength":29280,"target":34963},{"buffer":0,"byteOffset":265456,"byteLength":82524,"target":34962},{"buffer":0,"byteOffset":347980,"byteLength":82524,"target":34962},{"buffer":0,"byteOffset":430504,"byteLength":55016,"target":34962},{"buffer":0,"byteOffset":485520,"byteLength":44208,"target":34963},{"buffer":0,"byteOffset":529728,"byteLength":1008,"target":34962},{"buffer":0,"byteOffset":530736,"byteLength":1008,"target":34962},{"buffer":0,"byteOffset":531744,"byteLength":672,"target":34962},{"buffer":0,"byteOffset":532416,"byteLength":624,"target":34963},{"buffer":0,"byteOffset":533040,"byteLength":22176,"target":34962},{"buffer":0,"byteOffset":555216,"byteLength":22176,"target":34962},{"buffer":0,"byteOffset":577392,"byteLength":14784,"target":34962},{"buffer":0,"byteOffset":592176,"byteLength":11856,"target":34963},{"buffer":0,"byteOffset":604032,"byteLength":7272,"target":34962},{"buffer":0,"byteOffset":611304,"byteLength":7272,"target":34962},{"buffer":0,"byteOffset":618576,"byteLength":4848,"target":34962},{"buffer":0,"byteOffset":623424,"byteLength":3840,"target":34963},{"buffer":0,"byteOffset":627264,"byteLength":6912,"target":34962},{"buffer":0,"byteOffset":634176,"byteLength":6912,"target":34962},{"buffer":0,"byteOffset":641088,"byteLength":4608,"target":34962},{"buffer":0,"byteOffset":645696,"byteLength":4608,"target":34963},{"buffer":0,"byteOffset":650304,"byteLength":6912,"target":34962},{"buffer":0,"byteOffset":657216,"byteLength":6912,"target":34962},{"buffer":0,"byteOffset":664128,"byteLength":4608,"target":34962},{"buffer":0,"byteOffset":668736,"byteLength":3456,"target":34963},{"buffer":0,"byteOffset":672192,"byteLength":30336,"target":34962},{"buffer":0,"byteOffset":702528,"byteLength":30336,"target":34962},{"buffer":0,"byteOffset":732864,"byteLength":20224,"target":34962},{"buffer":0,"byteOffset":753088,"byteLength":16944,"target":34963},{"buffer":0,"byteOffset":770032,"byteLength":19584,"target":34962},{"buffer":0,"byteOffset":789616,"byteLength":19584,"target":34962},{"buffer":0,"byteOffset":809200,"byteLength":13056,"target":34962},{"buffer":0,"byteOffset":822256,"byteLength":10944,"target":34963},{"buffer":0,"byteOffset":833200,"byteLength":2736,"target":34962},{"buffer":0,"byteOffset":835936,"byteLength":2736,"target":34962},{"buffer":0,"byteOffset":838672,"byteLength":1824,"target":34962},{"buffer":0,"byteOffset":840496,"byteLength":1392,"target":34963},{"buffer":0,"byteOffset":841888,"byteLength":16800,"target":34962},{"buffer":0,"byteOffset":858688,"byteLength":16800,"target":34962},{"buffer":0,"byteOffset":875488,"byteLength":11200,"target":34962},{"buffer":0,"byteOffset":886688,"byteLength":9072,"target":34963},{"buffer":0,"byteOffset":895760,"byteLength":864,"target":34962},{"buffer":0,"byteOffset":896624,"byteLength":864,"target":34962},{"buffer":0,"byteOffset":897488,"byteLength":576,"target":34962},{"buffer":0,"byteOffset":898064,"byteLength":528,"target":34963},{"buffer":0,"byteOffset":898592,"byteLength":16800,"target":34962},{"buffer":0,"byteOffset":915392,"byteLength":16800,"target":34962},{"buffer":0,"byteOffset":932192,"byteLength":11200,"target":34962},{"buffer":0,"byteOffset":943392,"byteLength":9072,"target":34963},{"buffer":0,"byteOffset":952464,"byteLength":864,"target":34962},{"buffer":0,"byteOffset":953328,"byteLength":864,"target":34962},{"buffer":0,"byteOffset":954192,"byteLength":576,"target":34962},{"buffer":0,"byteOffset":954768,"byteLength":528,"target":34963},{"buffer":0,"byteOffset":955296,"byteLength":6912,"target":34962},{"buffer":0,"byteOffset":962208,"byteLength":6912,"target":34962},{"buffer":0,"byteOffset":969120,"byteLength":4608,"target":34962},{"buffer":0,"byteOffset":973728,"byteLength":4608,"target":34963},{"buffer":0,"byteOffset":978336,"byteLength":6912,"target":34962},{"buffer":0,"byteOffset":985248,"byteLength":6912,"target":34962},{"buffer":0,"byteOffset":992160,"byteLength":4608,"target":34962},{"buffer":0,"byteOffset":996768,"byteLength":3456,"target":34963},{"buffer":0,"byteOffset":1000224,"byteLength":30336,"target":34962},{"buffer":0,"byteOffset":1030560,"byteLength":30336,"target":34962},{"buffer":0,"byteOffset":1060896,"byteLength":20224,"target":34962},{"buffer":0,"byteOffset":1081120,"byteLength":16944,"target":34963},{"buffer":0,"byteOffset":1098064,"byteLength":1008,"target":34962},{"buffer":0,"byteOffset":1099072,"byteLength":1008,"target":34962},{"buffer":0,"byteOffset":1100080,"byteLength":672,"target":34962},{"buffer":0,"byteOffset":1100752,"byteLength":576,"target":34963}],"accessors":[{"bufferView":0,"componentType":5126,"count":2092,"type":"VEC3","min":[-0.064,-0.0255,-0.346112],"max":[0.064,0.1665,0.0768]},{"bufferView":1,"componentType":5126,"count":2092,"type":"VEC3"},{"bufferView":2,"componentType":5126,"count":2092,"type":"VEC2"},{"bufferView":3,"componentType":5125,"count":3252,"type":"SCALAR"},{"bufferView":4,"componentType":5126,"count":4882,"type":"VEC3","min":[-0.1215,-0.140014,-0.321],"max":[0.1215,-0.026,0.158]},{"bufferView":5,"componentType":5126,"count":4882,"type":"VEC3"},{"bufferView":6,"componentType":5126,"count":4882,"type":"VEC2"},{"bufferView":7,"componentType":5125,"count":7320,"type":"SCALAR"},{"bufferView":8,"componentType":5126,"count":6877,"type":"VEC3","min":[-0.068,-0.138,-0.4],"max":[0.068,0.158,0.1605]},{"bufferView":9,"componentType":5126,"count":6877,"type":"VEC3"},{"bufferView":10,"componentType":5126,"count":6877,"type":"VEC2"},{"bufferView":11,"componentType":5125,"count":11052,"type":"SCALAR"},{"bufferView":12,"componentType":5126,"count":84,"type":"VEC3","min":[0.115832,-0.0795,-0.199317],"max":[0.1245,-0.0725,-0.130683]},{"bufferView":13,"componentType":5126,"count":84,"type":"VEC3"},{"bufferView":14,"componentType":5126,"count":84,"type":"VEC2"},{"bufferView":15,"componentType":5125,"count":156,"type":"SCALAR"},{"bufferView":16,"componentType":5126,"count":1848,"type":"VEC3","min":[-0.1275,-0.109556,-0.343],"max":[0.057741,0.101,0.144]},{"bufferView":17,"componentType":5126,"count":1848,"type":"VEC3"},{"bufferView":18,"componentType":5126,"count":1848,"type":"VEC2"},{"bufferView":19,"componentType":5125,"count":2964,"type":"SCALAR"},{"bufferView":20,"componentType":5126,"count":606,"type":"VEC3","min":[-0.062,-0.0685,-0.1],"max":[0.042,0.029,0.126]},{"bufferView":21,"componentType":5126,"count":606,"type":"VEC3"},{"bufferView":22,"componentType":5126,"count":606,"type":"VEC2"},{"bufferView":23,"componentType":5125,"count":960,"type":"SCALAR"},{"bufferView":24,"componentType":5126,"count":576,"type":"VEC3","min":[-0.093,-0.021407,-0.093719],"max":[0.093,0.021407,0.093719]},{"bufferView":25,"componentType":5126,"count":576,"type":"VEC3"},{"bufferView":26,"componentType":5126,"count":576,"type":"VEC2"},{"bufferView":27,"componentType":5125,"count":1152,"type":"SCALAR"},{"bufferView":28,"componentType":5126,"count":576,"type":"VEC3","min":[-0.109799,-0.01645,-0.10972],"max":[0.109799,0.01645,0.10972]},{"bufferView":29,"componentType":5126,"count":576,"type":"VEC3"},{"bufferView":30,"componentType":5126,"count":576,"type":"VEC2"},{"bufferView":31,"componentType":5125,"count":864,"type":"SCALAR"},{"bufferView":32,"componentType":5126,"count":2528,"type":"VEC3","min":[-0.1,-0.020272,-0.100372],"max":[0.1,0.020272,0.100372]},{"bufferView":33,"componentType":5126,"count":2528,"type":"VEC3"},{"bufferView":34,"componentType":5126,"count":2528,"type":"VEC2"},{"bufferView":35,"componentType":5125,"count":4236,"type":"SCALAR"},{"bufferView":36,"componentType":5126,"count":1632,"type":"VEC3","min":[-0.0415,-0.044,-0.014],"max":[0.0415,0.044,0.014]},{"bufferView":37,"componentType":5126,"count":1632,"type":"VEC3"},{"bufferView":38,"componentType":5126,"count":1632,"type":"VEC2"},{"bufferView":39,"componentType":5125,"count":2736,"type":"SCALAR"},{"bufferView":40,"componentType":5126,"count":228,"type":"VEC3","min":[-0.007,-0.088,-0.049],"max":[0.007,-0.036,0.016]},{"bufferView":41,"componentType":5126,"count":228,"type":"VEC3"},{"bufferView":42,"componentType":5126,"count":228,"type":"VEC2"},{"bufferView":43,"componentType":5125,"count":348,"type":"SCALAR"},{"bufferView":44,"componentType":5126,"count":1400,"type":"VEC3","min":[-0.056577,-0.011,-0.131853],"max":[0.011,0.067,0.011]},{"bufferView":45,"componentType":5126,"count":1400,"type":"VEC3"},{"bufferView":46,"componentType":5126,"count":1400,"type":"VEC2"},{"bufferView":47,"componentType":5125,"count":2268,"type":"SCALAR"},{"bufferView":48,"componentType":5126,"count":72,"type":"VEC3","min":[-0.033,0.0185,-0.1295],"max":[-0.019,0.0295,-0.1185]},{"bufferView":49,"componentType":5126,"count":72,"type":"VEC3"},{"bufferView":50,"componentType":5126,"count":72,"type":"VEC2"},{"bufferView":51,"componentType":5125,"count":132,"type":"SCALAR"},{"bufferView":52,"componentType":5126,"count":1400,"type":"VEC3","min":[-0.011,-0.011,-0.131853],"max":[0.056577,0.067,0.011]},{"bufferView":53,"componentType":5126,"count":1400,"type":"VEC3"},{"bufferView":54,"componentType":5126,"count":1400,"type":"VEC2"},{"bufferView":55,"componentType":5125,"count":2268,"type":"SCALAR"},{"bufferView":56,"componentType":5126,"count":72,"type":"VEC3","min":[0.019,0.0185,-0.1295],"max":[0.033,0.0295,-0.1185]},{"bufferView":57,"componentType":5126,"count":72,"type":"VEC3"},{"bufferView":58,"componentType":5126,"count":72,"type":"VEC2"},{"bufferView":59,"componentType":5125,"count":132,"type":"SCALAR"},{"bufferView":60,"componentType":5126,"count":576,"type":"VEC3","min":[-0.093,-0.01175,-0.093],"max":[0.093,0.01175,0.093]},{"bufferView":61,"componentType":5126,"count":576,"type":"VEC3"},{"bufferView":62,"componentType":5126,"count":576,"type":"VEC2"},{"bufferView":63,"componentType":5125,"count":1152,"type":"SCALAR"},{"bufferView":64,"componentType":5126,"count":576,"type":"VEC3","min":[-0.109799,-0.005,-0.109799],"max":[0.109799,0.005,0.109799]},{"bufferView":65,"componentType":5126,"count":576,"type":"VEC3"},{"bufferView":66,"componentType":5126,"count":576,"type":"VEC2"},{"bufferView":67,"componentType":5125,"count":864,"type":"SCALAR"},{"bufferView":68,"componentType":5126,"count":2528,"type":"VEC3","min":[-0.1,-0.012,-0.1],"max":[0.1,0.012,0.1]},{"bufferView":69,"componentType":5126,"count":2528,"type":"VEC3"},{"bufferView":70,"componentType":5126,"count":2528,"type":"VEC2"},{"bufferView":71,"componentType":5125,"count":4236,"type":"SCALAR"},{"bufferView":72,"componentType":5126,"count":84,"type":"VEC3","min":[-0.0017,-0.002092,-0.0022],"max":[0.0017,0.0095,0.0022]},{"bufferView":73,"componentType":5126,"count":84,"type":"VEC3"},{"bufferView":74,"componentType":5126,"count":84,"type":"VEC2"},{"bufferView":75,"componentType":5125,"count":144,"type":"SCALAR"}]}
