{"asset":{"version":"2.0","generator":"Voxel Blitz Blender runtime export"},"scene":0,"scenes":[{"nodes":[0,1,2,3,4,5,6,7]}],"nodes":[{"name":"body","mesh":0,"extras":{"blenderAsset":"talon"}},{"name":"mag","extras":{"blenderAsset":"talon"}},{"name":"bolt","extras":{"blenderAsset":"talon"}},{"name":"trigger","extras":{"blenderAsset":"talon"}},{"name":"extra","extras":{"blenderAsset":"talon"},"children":[]},{"name":"grip","extras":{"role":"gameplay mount marker"},"translation":[0.02,-0.225,-0.035]},{"name":"muzzle","extras":{"role":"gameplay mount marker"},"translation":[0.0,0.02,-0.42]},{"name":"sight","extras":{"role":"gameplay mount marker"},"translation":[0.0,0.02,-0.22]}],"meshes":[{"name":"body","primitives":[{"attributes":{"POSITION":0,"NORMAL":1,"TEXCOORD_0":2},"indices":3,"material":0},{"attributes":{"POSITION":4,"NORMAL":5,"TEXCOORD_0":6},"indices":7,"material":1},{"attributes":{"POSITION":8,"NORMAL":9,"TEXCOORD_0":10},"indices":11,"material":2},{"attributes":{"POSITION":12,"NORMAL":13,"TEXCOORD_0":14},"indices":15,"material":3},{"attributes":{"POSITION":16,"NORMAL":17,"TEXCOORD_0":18},"indices":19,"material":4},{"attributes":{"POSITION":20,"NORMAL":21,"TEXCOORD_0":22},"indices":23,"material":5},{"attributes":{"POSITION":24,"NORMAL":25,"TEXCOORD_0":26},"indices":27,"material":6},{"attributes":{"POSITION":28,"NORMAL":29,"TEXCOORD_0":30},"indices":31,"material":7}]}],"materials":[{"name":"TALON | blade steel","pbrMetallicRoughness":{"baseColorFactor":[1,1,1,1],"metallicFactor":0.55,"roughnessFactor":0.36,"baseColorTexture":{"index":6}},"extras":{"partMaterial":"blade steel","textureLibrary":"machined-steel","textureBumpScale":0.00018}},{"name":"TALON | polished edge","pbrMetallicRoughness":{"baseColorFactor":[1,1,1,1],"metallicFactor":0.55,"roughnessFactor":0.36,"baseColorTexture":{"index":6}},"extras":{"partMaterial":"polished edge","textureLibrary":"machined-steel","textureBumpScale":0.00018}},{"name":"TALON | orange paint","pbrMetallicRoughness":{"baseColorFactor":[1,1,1,1],"metallicFactor":0.14,"roughnessFactor":0.5,"baseColorTexture":{"index":7}},"extras":{"partMaterial":"orange paint","textureLibrary":"orange-paint","textureBumpScale":0.0004}},{"name":"TALON | blackened","pbrMetallicRoughness":{"baseColorFactor":[1,1,1,1],"metallicFactor":0.4,"roughnessFactor":0.46,"baseColorTexture":{"index":8}},"extras":{"partMaterial":"blackened","textureLibrary":"blued-steel","textureBumpScale":0.00025}},{"name":"TALON | petrol grip","pbrMetallicRoughness":{"baseColorFactor":[1,1,1,1],"metallicFactor":0,"roughnessFactor":0.87,"baseColorTexture":{"index":9}},"extras":{"partMaterial":"petrol grip","textureLibrary":"petrol-fabric","textureBumpScale":0.00065}},{"name":"TALON | tan webbing","pbrMetallicRoughness":{"baseColorFactor":[1,1,1,1],"metallicFactor":0,"roughnessFactor":0.9,"baseColorTexture":{"index":10}},"extras":{"partMaterial":"tan webbing","textureLibrary":"tan-webbing","textureBumpScale":0.00065}},{"name":"TALON | ivory coating","pbrMetallicRoughness":{"baseColorFactor":[1,1,1,1],"metallicFactor":0.08,"roughnessFactor":0.62,"baseColorTexture":{"index":11}},"extras":{"partMaterial":"ivory coating","textureLibrary":"ivory-ceramic","textureBumpScale":0.0003}},{"name":"TALON | rubber","pbrMetallicRoughness":{"baseColorFactor":[1,1,1,1],"metallicFactor":0,"roughnessFactor":0.84,"baseColorTexture":{"index":12}},"extras":{"partMaterial":"rubber","textureLibrary":"pebbled-rubber","textureBumpScale":0.0008}}],"images":[{"uri":"textures/ivory-armor.jpg"},{"uri":"textures/orange-painted-metal.jpg"},{"uri":"textures/petrol-ballistic-fabric.jpg"},{"uri":"textures/tan-webbing.jpg"},{"uri":"textures/worn-gunmetal.jpg"},{"uri":"textures/worn-rubber.jpg"},{"uri":"textures/palette/machined-steel.jpg","name":"textures/palette/machined-steel.jpg"},{"uri":"textures/palette/orange-paint.jpg","name":"textures/palette/orange-paint.jpg"},{"uri":"textures/palette/blued-steel.jpg","name":"textures/palette/blued-steel.jpg"},{"uri":"textures/palette/petrol-fabric.jpg","name":"textures/palette/petrol-fabric.jpg"},{"uri":"textures/palette/tan-webbing.jpg","name":"textures/palette/tan-webbing.jpg"},{"uri":"textures/palette/ivory-ceramic.jpg","name":"textures/palette/ivory-ceramic.jpg"},{"uri":"textures/palette/pebbled-rubber.jpg","name":"textures/palette/pebbled-rubber.jpg"}],"textures":[{"source":0,"sampler":0},{"source":1,"sampler":0},{"source":2,"sampler":0},{"source":3,"sampler":0},{"source":4,"sampler":0},{"source":5,"sampler":0},{"source":6,"sampler":0},{"source":7,"sampler":0},{"source":8,"sampler":0},{"source":9,"sampler":0},{"source":10,"sampler":0},{"source":11,"sampler":0},{"source":12,"sampler":0}],"samplers":[{"magFilter":9729,"minFilter":9987,"wrapS":10497,"wrapT":10497}],"buffers":[{"uri":"talon.bin","byteLength":324576}],"bufferViews":[{"buffer":0,"byteOffset":0,"byteLength":25200,"target":34962},{"buffer":0,"byteOffset":25200,"byteLength":25200,"target":34962},{"buffer":0,"byteOffset":50400,"byteLength":16800,"target":34962},{"buffer":0,"byteOffset":67200,"byteLength":13344,"target":34963},{"buffer":0,"byteOffset":80544,"byteLength":2808,"target":34962},{"buffer":0,"byteOffset":83352,"byteLength":2808,"target":34962},{"buffer":0,"byteOffset":86160,"byteLength":1872,"target":34962},{"buffer":0,"byteOffset":88032,"byteLength":1392,"target":34963},{"buffer":0,"byteOffset":89424,"byteLength":5184,"target":34962},{"buffer":0,"byteOffset":94608,"byteLength":5184,"target":34962},{"buffer":0,"byteOffset":99792,"byteLength":3456,"target":34962},{"buffer":0,"byteOffset":103248,"byteLength":2592,"target":34963},{"buffer":0,"byteOffset":105840,"byteLength":24192,"target":34962},{"buffer":0,"byteOffset":130032,"byteLength":24192,"target":34962},{"buffer":0,"byteOffset":154224,"byteLength":16128,"target":34962},{"buffer":0,"byteOffset":170352,"byteLength":12432,"target":34963},{"buffer":0,"byteOffset":182784,"byteLength":5184,"target":34962},{"buffer":0,"byteOffset":187968,"byteLength":5184,"target":34962},{"buffer":0,"byteOffset":193152,"byteLength":3456,"target":34962},{"buffer":0,"byteOffset":196608,"byteLength":2592,"target":34963},{"buffer":0,"byteOffset":199200,"byteLength":26736,"target":34962},{"buffer":0,"byteOffset":225936,"byteLength":26736,"target":34962},{"buffer":0,"byteOffset":252672,"byteLength":17824,"target":34962},{"buffer":0,"byteOffset":270496,"byteLength":13680,"target":34963},{"buffer":0,"byteOffset":284176,"byteLength":9696,"target":34962},{"buffer":0,"byteOffset":293872,"byteLength":9696,"target":34962},{"buffer":0,"byteOffset":303568,"byteLength":6464,"target":34962},{"buffer":0,"byteOffset":310032,"byteLength":6336,"target":34963},{"buffer":0,"byteOffset":316368,"byteLength":2592,"target":34962},{"buffer":0,"byteOffset":318960,"byteLength":2592,"target":34962},{"buffer":0,"byteOffset":321552,"byteLength":1728,"target":34962},{"buffer":0,"byteOffset":323280,"byteLength":1296,"target":34963}],"accessors":[{"bufferView":0,"componentType":5126,"count":2100,"type":"VEC3","min":[-0.033,-0.278,-0.37],"max":[0.033,0.02,0.006658]},{"bufferView":1,"componentType":5126,"count":2100,"type":"VEC3"},{"bufferView":2,"componentType":5126,"count":2100,"type":"VEC2"},{"bufferView":3,"componentType":5125,"count":3336,"type":"SCALAR"},{"bufferView":4,"componentType":5126,"count":234,"type":"VEC3","min":[-0.0032,-0.0145,-0.42],"max":[0.0032,0.02,-0.006]},{"bufferView":5,"componentType":5126,"count":234,"type":"VEC3"},{"bufferView":6,"componentType":5126,"count":234,"type":"VEC2"},{"bufferView":7,"componentType":5125,"count":348,"type":"SCALAR"},{"bufferView":8,"componentType":5126,"count":432,"type":"VEC3","min":[-0.014,-0.249187,-0.052911],"max":[0.034,-0.020565,0.01166]},{"bufferView":9,"componentType":5126,"count":432,"type":"VEC3"},{"bufferView":10,"componentType":5126,"count":432,"type":"VEC2"},{"bufferView":11,"componentType":5125,"count":648,"type":"SCALAR"},{"bufferView":12,"componentType":5126,"count":2016,"type":"VEC3","min":[-0.035244,-0.298,-0.35],"max":[0.035244,0.017,0.0097]},{"bufferView":13,"componentType":5126,"count":2016,"type":"VEC3"},{"bufferView":14,"componentType":5126,"count":2016,"type":"VEC2"},{"bufferView":15,"componentType":5125,"count":3108,"type":"SCALAR"},{"bufferView":16,"componentType":5126,"count":432,"type":"VEC3","min":[-0.0345,-0.227195,-0.040285],"max":[0.0345,-0.025805,0.003285]},{"bufferView":17,"componentType":5126,"count":432,"type":"VEC3"},{"bufferView":18,"componentType":5126,"count":432,"type":"VEC2"},{"bufferView":19,"componentType":5125,"count":648,"type":"SCALAR"},{"bufferView":20,"componentType":5126,"count":2228,"type":"VEC3","min":[-0.037,-0.335,-0.049882],"max":[0.037,-0.052921,0.011382]},{"bufferView":21,"componentType":5126,"count":2228,"type":"VEC3"},{"bufferView":22,"componentType":5126,"count":2228,"type":"VEC2"},{"bufferView":23,"componentType":5125,"count":3420,"type":"SCALAR"},{"bufferView":24,"componentType":5126,"count":808,"type":"VEC3","min":[-0.0047,0.001983,-0.221652],"max":[0.0047,0.011083,-0.049164]},{"bufferView":25,"componentType":5126,"count":808,"type":"VEC3"},{"bufferView":26,"componentType":5126,"count":808,"type":"VEC2"},{"bufferView":27,"componentType":5125,"count":1584,"type":"SCALAR"},{"bufferView":28,"componentType":5126,"count":216,"type":"VEC3","min":[-0.01,-0.272511,-0.053078],"max":[0.03,-0.259489,-0.002922]},{"bufferView":29,"componentType":5126,"count":216,"type":"VEC3"},{"bufferView":30,"componentType":5126,"count":216,"type":"VEC2"},{"bufferView":31,"componentType":5125,"count":324,"type":"SCALAR"}]}
