{"asset":{"version":"2.0","generator":"Voxel Blitz Blender runtime export"},"scene":0,"scenes":[{"nodes":[0,1,2,3,7,8,9,10,11]}],"nodes":[{"name":"body","mesh":0,"extras":{"blenderAsset":"torch"}},{"name":"mag","mesh":1,"extras":{"blenderAsset":"torch"}},{"name":"bolt","mesh":2,"extras":{"blenderAsset":"torch"}},{"name":"trigger","mesh":3,"extras":{"blenderAsset":"torch"}},{"name":"gate | gunmetal","mesh":4,"translation":[0.0,0.075,-0.06],"extras":{"blenderAsset":"torch","role":"breech gate"}},{"name":"gate | orange paint","mesh":5,"translation":[0.0,0.075,-0.06],"extras":{"blenderAsset":"torch","role":"breech gate"}},{"name":"gate | cavity black","mesh":6,"translation":[0.0,0.075,-0.06],"extras":{"blenderAsset":"torch","role":"breech gate"}},{"name":"extra","extras":{"blenderAsset":"torch"},"children":[4,5,6]},{"name":"grip","extras":{"role":"gameplay mount marker"},"translation":[0.045,-0.02,-0.08]},{"name":"muzzle","extras":{"role":"gameplay mount marker"},"translation":[0.0,0.075,-0.78]},{"name":"sight","extras":{"role":"gameplay mount marker"},"translation":[0.0,0.175,-0.34]},{"name":"support","extras":{"role":"gameplay mount marker"},"translation":[-0.06,-0.03,-0.4]}],"meshes":[{"name":"body","primitives":[{"attributes":{"POSITION":0,"NORMAL":1,"TEXCOORD_0":2},"indices":3,"material":0},{"attributes":{"POSITION":4,"NORMAL":5,"TEXCOORD_0":6},"indices":7,"material":1},{"attributes":{"POSITION":8,"NORMAL":9,"TEXCOORD_0":10},"indices":11,"material":2},{"attributes":{"POSITION":12,"NORMAL":13,"TEXCOORD_0":14},"indices":15,"material":3},{"attributes":{"POSITION":16,"NORMAL":17,"TEXCOORD_0":18},"indices":19,"material":4},{"attributes":{"POSITION":20,"NORMAL":21,"TEXCOORD_0":22},"indices":23,"material":5},{"attributes":{"POSITION":24,"NORMAL":25,"TEXCOORD_0":26},"indices":27,"material":6}]},{"name":"mag","primitives":[{"attributes":{"POSITION":28,"NORMAL":29,"TEXCOORD_0":30},"indices":31,"material":0},{"attributes":{"POSITION":32,"NORMAL":33,"TEXCOORD_0":34},"indices":35,"material":1},{"attributes":{"POSITION":36,"NORMAL":37,"TEXCOORD_0":38},"indices":39,"material":3}]},{"name":"bolt","primitives":[{"attributes":{"POSITION":40,"NORMAL":41,"TEXCOORD_0":42},"indices":43,"material":0},{"attributes":{"POSITION":44,"NORMAL":45,"TEXCOORD_0":46},"indices":47,"material":1}]},{"name":"trigger","primitives":[{"attributes":{"POSITION":48,"NORMAL":49,"TEXCOORD_0":50},"indices":51,"material":0},{"attributes":{"POSITION":52,"NORMAL":53,"TEXCOORD_0":54},"indices":55,"material":1}]},{"name":"gate | gunmetal","primitives":[{"attributes":{"POSITION":56,"NORMAL":57,"TEXCOORD_0":58},"indices":59,"material":0}]},{"name":"gate | orange paint","primitives":[{"attributes":{"POSITION":60,"NORMAL":61,"TEXCOORD_0":62},"indices":63,"material":1}]},{"name":"gate | cavity black","primitives":[{"attributes":{"POSITION":64,"NORMAL":65,"TEXCOORD_0":66},"indices":67,"material":6}]}],"materials":[{"name":"TORCH | gunmetal","pbrMetallicRoughness":{"baseColorFactor":[1,1,1,1],"metallicFactor":0.35,"roughnessFactor":0.53,"baseColorTexture":{"index":5}},"extras":{"partMaterial":"gunmetal","textureLibrary":"phosphated-steel","textureBumpScale":0.0003}},{"name":"TORCH | orange paint","pbrMetallicRoughness":{"baseColorFactor":[1,1,1,1],"metallicFactor":0.14,"roughnessFactor":0.5,"baseColorTexture":{"index":6}},"extras":{"partMaterial":"orange paint","textureLibrary":"orange-paint","textureBumpScale":0.0004}},{"name":"TORCH | olive drab","pbrMetallicRoughness":{"baseColorFactor":[1,1,1,1],"metallicFactor":0.14,"roughnessFactor":0.61,"baseColorTexture":{"index":7}},"extras":{"partMaterial":"olive drab","textureLibrary":"olive-paint","textureBumpScale":0.0004}},{"name":"TORCH | polymer","pbrMetallicRoughness":{"baseColorFactor":[1,1,1,1],"metallicFactor":0.02,"roughnessFactor":0.7,"baseColorTexture":{"index":8}},"extras":{"partMaterial":"polymer","textureLibrary":"molded-polymer","textureBumpScale":0.00055}},{"name":"TORCH | rubber","pbrMetallicRoughness":{"baseColorFactor":[1,1,1,1],"metallicFactor":0,"roughnessFactor":0.84,"baseColorTexture":{"index":9}},"extras":{"partMaterial":"rubber","textureLibrary":"pebbled-rubber","textureBumpScale":0.0008}},{"name":"TORCH | ivory coating","pbrMetallicRoughness":{"baseColorFactor":[1,1,1,1],"metallicFactor":0.08,"roughnessFactor":0.62,"baseColorTexture":{"index":10}},"extras":{"partMaterial":"ivory coating","textureLibrary":"ivory-ceramic","textureBumpScale":0.0003}},{"name":"TORCH | cavity black","pbrMetallicRoughness":{"baseColorFactor":[0.015,0.015,0.016,1.0],"metallicFactor":0.0,"roughnessFactor":1.0},"extras":{"partMaterial":"cavity black"}}],"images":[{"uri":"textures/ivory-armor.jpg"},{"uri":"textures/orange-painted-metal.jpg"},{"uri":"textures/petrol-ballistic-fabric.jpg"},{"uri":"textures/worn-gunmetal.jpg"},{"uri":"textures/worn-rubber.jpg"},{"uri":"textures/palette/phosphated-steel.jpg","name":"textures/palette/phosphated-steel.jpg"},{"uri":"textures/palette/orange-paint.jpg","name":"textures/palette/orange-paint.jpg"},{"uri":"textures/palette/olive-paint.jpg","name":"textures/palette/olive-paint.jpg"},{"uri":"textures/palette/molded-polymer.jpg","name":"textures/palette/molded-polymer.jpg"},{"uri":"textures/palette/pebbled-rubber.jpg","name":"textures/palette/pebbled-rubber.jpg"},{"uri":"textures/palette/ivory-ceramic.jpg","name":"textures/palette/ivory-ceramic.jpg"}],"textures":[{"source":0,"sampler":0},{"source":1,"sampler":0},{"source":2,"sampler":0},{"source":3,"sampler":0},{"source":4,"sampler":0},{"source":5,"sampler":0},{"source":6,"sampler":0},{"source":7,"sampler":0},{"source":8,"sampler":0},{"source":9,"sampler":0},{"source":10,"sampler":0}],"samplers":[{"magFilter":9729,"minFilter":9987,"wrapS":10497,"wrapT":10497}],"buffers":[{"uri":"torch.bin","byteLength":907312}],"bufferViews":[{"buffer":0,"byteOffset":0,"byteLength":118752,"target":34962},{"buffer":0,"byteOffset":118752,"byteLength":118752,"target":34962},{"buffer":0,"byteOffset":237504,"byteLength":79168,"target":34962},{"buffer":0,"byteOffset":316672,"byteLength":62688,"target":34963},{"buffer":0,"byteOffset":379360,"byteLength":40704,"target":34962},{"buffer":0,"byteOffset":420064,"byteLength":40704,"target":34962},{"buffer":0,"byteOffset":460768,"byteLength":27136,"target":34962},{"buffer":0,"byteOffset":487904,"byteLength":23280,"target":34963},{"buffer":0,"byteOffset":511184,"byteLength":32424,"target":34962},{"buffer":0,"byteOffset":543608,"byteLength":32424,"target":34962},{"buffer":0,"byteOffset":576032,"byteLength":21616,"target":34962},{"buffer":0,"byteOffset":597648,"byteLength":26736,"target":34963},{"buffer":0,"byteOffset":624384,"byteLength":17376,"target":34962},{"buffer":0,"byteOffset":641760,"byteLength":17376,"target":34962},{"buffer":0,"byteOffset":659136,"byteLength":11584,"target":34962},{"buffer":0,"byteOffset":670720,"byteLength":8736,"target":34963},{"buffer":0,"byteOffset":679456,"byteLength":4896,"target":34962},{"buffer":0,"byteOffset":684352,"byteLength":4896,"target":34962},{"buffer":0,"byteOffset":689248,"byteLength":3264,"target":34962},{"buffer":0,"byteOffset":692512,"byteLength":2448,"target":34963},{"buffer":0,"byteOffset":694960,"byteLength":6912,"target":34962},{"buffer":0,"byteOffset":701872,"byteLength":6912,"target":34962},{"buffer":0,"byteOffset":708784,"byteLength":4608,"target":34962},{"buffer":0,"byteOffset":713392,"byteLength":4992,"target":34963},{"buffer":0,"byteOffset":718384,"byteLength":2016,"target":34962},{"buffer":0,"byteOffset":720400,"byteLength":2016,"target":34962},{"buffer":0,"byteOffset":722416,"byteLength":1344,"target":34962},{"buffer":0,"byteOffset":723760,"byteLength":1296,"target":34963},{"buffer":0,"byteOffset":725056,"byteLength":2592,"target":34962},{"buffer":0,"byteOffset":727648,"byteLength":2592,"target":34962},{"buffer":0,"byteOffset":730240,"byteLength":1728,"target":34962},{"buffer":0,"byteOffset":731968,"byteLength":1296,"target":34963},{"buffer":0,"byteOffset":733264,"byteLength":2592,"target":34962},{"buffer":0,"byteOffset":735856,"byteLength":2592,"target":34962},{"buffer":0,"byteOffset":738448,"byteLength":1728,"target":34962},{"buffer":0,"byteOffset":740176,"byteLength":1296,"target":34963},{"buffer":0,"byteOffset":741472,"byteLength":2592,"target":34962},{"buffer":0,"byteOffset":744064,"byteLength":2592,"target":34962},{"buffer":0,"byteOffset":746656,"byteLength":1728,"target":34962},{"buffer":0,"byteOffset":748384,"byteLength":1296,"target":34963},{"buffer":0,"byteOffset":749680,"byteLength":11664,"target":34962},{"buffer":0,"byteOffset":761344,"byteLength":11664,"target":34962},{"buffer":0,"byteOffset":773008,"byteLength":7776,"target":34962},{"buffer":0,"byteOffset":780784,"byteLength":5904,"target":34963},{"buffer":0,"byteOffset":786688,"byteLength":6480,"target":34962},{"buffer":0,"byteOffset":793168,"byteLength":6480,"target":34962},{"buffer":0,"byteOffset":799648,"byteLength":4320,"target":34962},{"buffer":0,"byteOffset":803968,"byteLength":3312,"target":34963},{"buffer":0,"byteOffset":807280,"byteLength":7776,"target":34962},{"buffer":0,"byteOffset":815056,"byteLength":7776,"target":34962},{"buffer":0,"byteOffset":822832,"byteLength":5184,"target":34962},{"buffer":0,"byteOffset":828016,"byteLength":3984,"target":34963},{"buffer":0,"byteOffset":832000,"byteLength":2592,"target":34962},{"buffer":0,"byteOffset":834592,"byteLength":2592,"target":34962},{"buffer":0,"byteOffset":837184,"byteLength":1728,"target":34962},{"buffer":0,"byteOffset":838912,"byteLength":1296,"target":34963},{"buffer":0,"byteOffset":840208,"byteLength":14112,"target":34962},{"buffer":0,"byteOffset":854320,"byteLength":14112,"target":34962},{"buffer":0,"byteOffset":868432,"byteLength":9408,"target":34962},{"buffer":0,"byteOffset":877840,"byteLength":9360,"target":34963},{"buffer":0,"byteOffset":887200,"byteLength":4032,"target":34962},{"buffer":0,"byteOffset":891232,"byteLength":4032,"target":34962},{"buffer":0,"byteOffset":895264,"byteLength":2688,"target":34962},{"buffer":0,"byteOffset":897952,"byteLength":2688,"target":34963},{"buffer":0,"byteOffset":900640,"byteLength":2016,"target":34962},{"buffer":0,"byteOffset":902656,"byteLength":2016,"target":34962},{"buffer":0,"byteOffset":904672,"byteLength":1344,"target":34962},{"buffer":0,"byteOffset":906016,"byteLength":1296,"target":34963}],"accessors":[{"bufferView":0,"componentType":5126,"count":9896,"type":"VEC3","min":[-0.077,-0.126,-0.781],"max":[0.089,0.190818,-0.003]},{"bufferView":1,"componentType":5126,"count":9896,"type":"VEC3"},{"bufferView":2,"componentType":5126,"count":9896,"type":"VEC2"},{"bufferView":3,"componentType":5125,"count":15672,"type":"SCALAR"},{"bufferView":4,"componentType":5126,"count":3392,"type":"VEC3","min":[-0.089,-0.0595,-0.7785],"max":[0.089,0.1775,-0.018]},{"bufferView":5,"componentType":5126,"count":3392,"type":"VEC3"},{"bufferView":6,"componentType":5126,"count":3392,"type":"VEC2"},{"bufferView":7,"componentType":5125,"count":5820,"type":"SCALAR"},{"bufferView":8,"componentType":5126,"count":2702,"type":"VEC3","min":[-0.074,0.001,-0.78],"max":[0.074,0.149,-0.18]},{"bufferView":9,"componentType":5126,"count":2702,"type":"VEC3"},{"bufferView":10,"componentType":5126,"count":2702,"type":"VEC2"},{"bufferView":11,"componentType":5125,"count":6684,"type":"SCALAR"},{"bufferView":12,"componentType":5126,"count":1448,"type":"VEC3","min":[-0.06,-0.116943,-0.448],"max":[0.027,0.025,-0.026]},{"bufferView":13,"componentType":5126,"count":1448,"type":"VEC3"},{"bufferView":14,"componentType":5126,"count":1448,"type":"VEC2"},{"bufferView":15,"componentType":5125,"count":2184,"type":"SCALAR"},{"bufferView":16,"componentType":5126,"count":408,"type":"VEC3","min":[-0.067,-0.066,-0.3683],"max":[0.035,0.174,0.022]},{"bufferView":17,"componentType":5126,"count":408,"type":"VEC3"},{"bufferView":18,"componentType":5126,"count":408,"type":"VEC2"},{"bufferView":19,"componentType":5125,"count":612,"type":"SCALAR"},{"bufferView":20,"componentType":5126,"count":576,"type":"VEC3","min":[-0.0697,0.074601,-0.253887],"max":[0.0697,0.082301,-0.216113]},{"bufferView":21,"componentType":5126,"count":576,"type":"VEC3"},{"bufferView":22,"componentType":5126,"count":576,"type":"VEC2"},{"bufferView":23,"componentType":5125,"count":1248,"type":"SCALAR"},{"bufferView":24,"componentType":5126,"count":168,"type":"VEC3","min":[-0.057,0.018,-0.779],"max":[0.057,0.132,-0.777]},{"bufferView":25,"componentType":5126,"count":168,"type":"VEC3"},{"bufferView":26,"componentType":5126,"count":168,"type":"VEC2"},{"bufferView":27,"componentType":5125,"count":324,"type":"SCALAR"},{"bufferView":28,"componentType":5126,"count":216,"type":"VEC3","min":[-0.007,-0.02,-0.333],"max":[0.007,0.0,-0.313]},{"bufferView":29,"componentType":5126,"count":216,"type":"VEC3"},{"bufferView":30,"componentType":5126,"count":216,"type":"VEC2"},{"bufferView":31,"componentType":5125,"count":324,"type":"SCALAR"},{"bufferView":32,"componentType":5126,"count":216,"type":"VEC3","min":[-0.034,-0.057,-0.29],"max":[0.034,-0.003,-0.27]},{"bufferView":33,"componentType":5126,"count":216,"type":"VEC3"},{"bufferView":34,"componentType":5126,"count":216,"type":"VEC2"},{"bufferView":35,"componentType":5125,"count":324,"type":"SCALAR"},{"bufferView":36,"componentType":5126,"count":216,"type":"VEC3","min":[-0.03,-0.043,-0.315],"max":[0.03,0.007,-0.245]},{"bufferView":37,"componentType":5126,"count":216,"type":"VEC3"},{"bufferView":38,"componentType":5126,"count":216,"type":"VEC2"},{"bufferView":39,"componentType":5125,"count":324,"type":"SCALAR"},{"bufferView":40,"componentType":5126,"count":972,"type":"VEC3","min":[0.078,0.058,-0.076547],"max":[0.101,0.092,-0.015]},{"bufferView":41,"componentType":5126,"count":972,"type":"VEC3"},{"bufferView":42,"componentType":5126,"count":972,"type":"VEC2"},{"bufferView":43,"componentType":5125,"count":1476,"type":"SCALAR"},{"bufferView":44,"componentType":5126,"count":540,"type":"VEC3","min":[0.092,0.063587,-0.051547],"max":[0.112,0.086413,-0.028453]},{"bufferView":45,"componentType":5126,"count":540,"type":"VEC3"},{"bufferView":46,"componentType":5126,"count":540,"type":"VEC2"},{"bufferView":47,"componentType":5125,"count":828,"type":"SCALAR"},{"bufferView":48,"componentType":5126,"count":648,"type":"VEC3","min":[-0.015,-0.078,-0.17],"max":[0.015,0.002,-0.06]},{"bufferView":49,"componentType":5126,"count":648,"type":"VEC3"},{"bufferView":50,"componentType":5126,"count":648,"type":"VEC2"},{"bufferView":51,"componentType":5125,"count":996,"type":"SCALAR"},{"bufferView":52,"componentType":5126,"count":216,"type":"VEC3","min":[-0.006,-0.05528,-0.117727],"max":[0.006,-0.04072,-0.108273]},{"bufferView":53,"componentType":5126,"count":216,"type":"VEC3"},{"bufferView":54,"componentType":5126,"count":216,"type":"VEC2"},{"bufferView":55,"componentType":5125,"count":324,"type":"SCALAR"},{"bufferView":56,"componentType":5126,"count":1176,"type":"VEC3","min":[-0.095,-0.095,-0.1],"max":[0.095,0.095,0.109]},{"bufferView":57,"componentType":5126,"count":1176,"type":"VEC3"},{"bufferView":58,"componentType":5126,"count":1176,"type":"VEC2"},{"bufferView":59,"componentType":5125,"count":2340,"type":"SCALAR"},{"bufferView":60,"componentType":5126,"count":336,"type":"VEC3","min":[-0.084,-0.084,0.0775],"max":[0.084,0.084,0.0825]},{"bufferView":61,"componentType":5126,"count":336,"type":"VEC3"},{"bufferView":62,"componentType":5126,"count":336,"type":"VEC2"},{"bufferView":63,"componentType":5125,"count":672,"type":"SCALAR"},{"bufferView":64,"componentType":5126,"count":168,"type":"VEC3","min":[-0.086,-0.086,0.042],"max":[0.086,0.086,0.072]},{"bufferView":65,"componentType":5126,"count":168,"type":"VEC3"},{"bufferView":66,"componentType":5126,"count":168,"type":"VEC2"},{"bufferView":67,"componentType":5125,"count":324,"type":"SCALAR"}]}
