{"asset":{"version":"2.0","generator":"Voxel Blitz Blender runtime export"},"scene":0,"scenes":[{"nodes":[0,1,2,3,4,5,6,7]}],"nodes":[{"name":"body","mesh":0,"extras":{"blenderAsset":"wasp"}},{"name":"mag","mesh":1,"extras":{"blenderAsset":"wasp"}},{"name":"bolt","mesh":2,"extras":{"blenderAsset":"wasp"}},{"name":"trigger","mesh":3,"extras":{"blenderAsset":"wasp"}},{"name":"extra","extras":{"blenderAsset":"wasp"},"children":[]},{"name":"muzzle","extras":{"role":"gameplay mount marker"},"translation":[0.0,0.02,-0.398]},{"name":"grip","extras":{"role":"gameplay mount marker"},"translation":[0.045,-0.01,-0.06]},{"name":"sight","extras":{"role":"gameplay mount marker"},"translation":[0.0,0.112,0.005]}],"meshes":[{"name":"body","primitives":[{"attributes":{"POSITION":0,"NORMAL":1,"TEXCOORD_0":2},"indices":3,"material":0},{"attributes":{"POSITION":4,"NORMAL":5,"TEXCOORD_0":6},"indices":7,"material":1},{"attributes":{"POSITION":8,"NORMAL":9,"TEXCOORD_0":10},"indices":11,"material":2},{"attributes":{"POSITION":12,"NORMAL":13,"TEXCOORD_0":14},"indices":15,"material":3},{"attributes":{"POSITION":16,"NORMAL":17,"TEXCOORD_0":18},"indices":19,"material":4},{"attributes":{"POSITION":20,"NORMAL":21,"TEXCOORD_0":22},"indices":23,"material":5},{"attributes":{"POSITION":24,"NORMAL":25,"TEXCOORD_0":26},"indices":27,"material":6},{"attributes":{"POSITION":28,"NORMAL":29,"TEXCOORD_0":30},"indices":31,"material":7}]},{"name":"mag","primitives":[{"attributes":{"POSITION":32,"NORMAL":33,"TEXCOORD_0":34},"indices":35,"material":0},{"attributes":{"POSITION":36,"NORMAL":37,"TEXCOORD_0":38},"indices":39,"material":1},{"attributes":{"POSITION":40,"NORMAL":41,"TEXCOORD_0":42},"indices":43,"material":3},{"attributes":{"POSITION":44,"NORMAL":45,"TEXCOORD_0":46},"indices":47,"material":4}]},{"name":"bolt","primitives":[{"attributes":{"POSITION":48,"NORMAL":49,"TEXCOORD_0":50},"indices":51,"material":1}]},{"name":"trigger","primitives":[{"attributes":{"POSITION":52,"NORMAL":53,"TEXCOORD_0":54},"indices":55,"material":1},{"attributes":{"POSITION":56,"NORMAL":57,"TEXCOORD_0":58},"indices":59,"material":4}]}],"materials":[{"name":"WASP | olive drab","pbrMetallicRoughness":{"baseColorFactor":[1,1,1,1],"metallicFactor":0.14,"roughnessFactor":0.61,"baseColorTexture":{"index":6}},"extras":{"partMaterial":"olive drab","textureLibrary":"olive-paint","textureBumpScale":0.0004}},{"name":"WASP | gunmetal","pbrMetallicRoughness":{"baseColorFactor":[1,1,1,1],"metallicFactor":0.35,"roughnessFactor":0.53,"baseColorTexture":{"index":7}},"extras":{"partMaterial":"gunmetal","textureLibrary":"phosphated-steel","textureBumpScale":0.0003}},{"name":"WASP | petrol fabric","pbrMetallicRoughness":{"baseColorFactor":[1,1,1,1],"metallicFactor":0,"roughnessFactor":0.87,"baseColorTexture":{"index":8}},"extras":{"partMaterial":"petrol fabric","textureLibrary":"petrol-fabric","textureBumpScale":0.00065}},{"name":"WASP | rubber","pbrMetallicRoughness":{"baseColorFactor":[1,1,1,1],"metallicFactor":0,"roughnessFactor":0.84,"baseColorTexture":{"index":9}},"extras":{"partMaterial":"rubber","textureLibrary":"pebbled-rubber","textureBumpScale":0.0008}},{"name":"WASP | orange paint","pbrMetallicRoughness":{"baseColorFactor":[1,1,1,1],"metallicFactor":0.14,"roughnessFactor":0.5,"baseColorTexture":{"index":10}},"extras":{"partMaterial":"orange paint","textureLibrary":"orange-paint","textureBumpScale":0.0004}},{"name":"WASP | ivory coating","pbrMetallicRoughness":{"baseColorFactor":[1,1,1,1],"metallicFactor":0.08,"roughnessFactor":0.62,"baseColorTexture":{"index":11}},"extras":{"partMaterial":"ivory coating","textureLibrary":"ivory-ceramic","textureBumpScale":0.0003}},{"name":"WASP | optic glass","pbrMetallicRoughness":{"baseColorFactor":[0.18,0.58,0.65,0.16],"metallicFactor":0,"roughnessFactor":0.10000000149011612},"extras":{"partMaterial":"optic glass","glass":true,"cosmeticGlow":true},"alphaMode":"BLEND","doubleSided":true,"emissiveFactor":[0.02500000037252903,0.08749999850988388,0.10000000149011612]},{"name":"WASP | tan webbing","pbrMetallicRoughness":{"baseColorFactor":[1,1,1,1],"metallicFactor":0,"roughnessFactor":0.9,"baseColorTexture":{"index":12}},"extras":{"partMaterial":"tan webbing","textureLibrary":"tan-webbing","textureBumpScale":0.00065}}],"images":[{"uri":"textures/ivory-armor.jpg"},{"uri":"textures/orange-painted-metal.jpg"},{"uri":"textures/petrol-ballistic-fabric.jpg"},{"uri":"textures/tan-webbing.jpg"},{"uri":"textures/worn-gunmetal.jpg"},{"uri":"textures/worn-rubber.jpg"},{"uri":"textures/palette/olive-paint.jpg","name":"textures/palette/olive-paint.jpg"},{"uri":"textures/palette/phosphated-steel.jpg","name":"textures/palette/phosphated-steel.jpg"},{"uri":"textures/palette/petrol-fabric.jpg","name":"textures/palette/petrol-fabric.jpg"},{"uri":"textures/palette/pebbled-rubber.jpg","name":"textures/palette/pebbled-rubber.jpg"},{"uri":"textures/palette/orange-paint.jpg","name":"textures/palette/orange-paint.jpg"},{"uri":"textures/palette/ivory-ceramic.jpg","name":"textures/palette/ivory-ceramic.jpg"},{"uri":"textures/palette/tan-webbing.jpg","name":"textures/palette/tan-webbing.jpg"}],"textures":[{"source":0,"sampler":0},{"source":1,"sampler":0},{"source":2,"sampler":0},{"source":3,"sampler":0},{"source":4,"sampler":0},{"source":5,"sampler":0},{"source":6,"sampler":0},{"source":7,"sampler":0},{"source":8,"sampler":0},{"source":9,"sampler":0},{"source":10,"sampler":0},{"source":11,"sampler":0},{"source":12,"sampler":0}],"samplers":[{"magFilter":9729,"minFilter":9987,"wrapS":10497,"wrapT":10497}],"buffers":[{"uri":"wasp.bin","byteLength":691296}],"bufferViews":[{"buffer":0,"byteOffset":0,"byteLength":43680,"target":34962},{"buffer":0,"byteOffset":43680,"byteLength":43680,"target":34962},{"buffer":0,"byteOffset":87360,"byteLength":29120,"target":34962},{"buffer":0,"byteOffset":116480,"byteLength":25824,"target":34963},{"buffer":0,"byteOffset":142304,"byteLength":83664,"target":34962},{"buffer":0,"byteOffset":225968,"byteLength":83664,"target":34962},{"buffer":0,"byteOffset":309632,"byteLength":55776,"target":34962},{"buffer":0,"byteOffset":365408,"byteLength":49776,"target":34963},{"buffer":0,"byteOffset":415184,"byteLength":2160,"target":34962},{"buffer":0,"byteOffset":417344,"byteLength":2160,"target":34962},{"buffer":0,"byteOffset":419504,"byteLength":1440,"target":34962},{"buffer":0,"byteOffset":420944,"byteLength":1296,"target":34963},{"buffer":0,"byteOffset":422240,"byteLength":13248,"target":34962},{"buffer":0,"byteOffset":435488,"byteLength":13248,"target":34962},{"buffer":0,"byteOffset":448736,"byteLength":8832,"target":34962},{"buffer":0,"byteOffset":457568,"byteLength":7296,"target":34963},{"buffer":0,"byteOffset":464864,"byteLength":2880,"target":34962},{"buffer":0,"byteOffset":467744,"byteLength":2880,"target":34962},{"buffer":0,"byteOffset":470624,"byteLength":1920,"target":34962},{"buffer":0,"byteOffset":472544,"byteLength":1440,"target":34963},{"buffer":0,"byteOffset":473984,"byteLength":14880,"target":34962},{"buffer":0,"byteOffset":488864,"byteLength":14880,"target":34962},{"buffer":0,"byteOffset":503744,"byteLength":9920,"target":34962},{"buffer":0,"byteOffset":513664,"byteLength":10944,"target":34963},{"buffer":0,"byteOffset":524608,"byteLength":288,"target":34962},{"buffer":0,"byteOffset":524896,"byteLength":288,"target":34962},{"buffer":0,"byteOffset":525184,"byteLength":192,"target":34962},{"buffer":0,"byteOffset":525376,"byteLength":144,"target":34963},{"buffer":0,"byteOffset":525520,"byteLength":10368,"target":34962},{"buffer":0,"byteOffset":535888,"byteLength":10368,"target":34962},{"buffer":0,"byteOffset":546256,"byteLength":6912,"target":34962},{"buffer":0,"byteOffset":553168,"byteLength":5376,"target":34963},{"buffer":0,"byteOffset":558544,"byteLength":2592,"target":34962},{"buffer":0,"byteOffset":561136,"byteLength":2592,"target":34962},{"buffer":0,"byteOffset":563728,"byteLength":1728,"target":34962},{"buffer":0,"byteOffset":565456,"byteLength":1296,"target":34963},{"buffer":0,"byteOffset":566752,"byteLength":4704,"target":34962},{"buffer":0,"byteOffset":571456,"byteLength":4704,"target":34962},{"buffer":0,"byteOffset":576160,"byteLength":3136,"target":34962},{"buffer":0,"byteOffset":579296,"byteLength":2448,"target":34963},{"buffer":0,"byteOffset":581744,"byteLength":7776,"target":34962},{"buffer":0,"byteOffset":589520,"byteLength":7776,"target":34962},{"buffer":0,"byteOffset":597296,"byteLength":5184,"target":34962},{"buffer":0,"byteOffset":602480,"byteLength":3888,"target":34963},{"buffer":0,"byteOffset":606368,"byteLength":2880,"target":34962},{"buffer":0,"byteOffset":609248,"byteLength":2880,"target":34962},{"buffer":0,"byteOffset":612128,"byteLength":1920,"target":34962},{"buffer":0,"byteOffset":614048,"byteLength":1440,"target":34963},{"buffer":0,"byteOffset":615488,"byteLength":13344,"target":34962},{"buffer":0,"byteOffset":628832,"byteLength":13344,"target":34962},{"buffer":0,"byteOffset":642176,"byteLength":8896,"target":34962},{"buffer":0,"byteOffset":651072,"byteLength":7296,"target":34963},{"buffer":0,"byteOffset":658368,"byteLength":7776,"target":34962},{"buffer":0,"byteOffset":666144,"byteLength":7776,"target":34962},{"buffer":0,"byteOffset":673920,"byteLength":5184,"target":34962},{"buffer":0,"byteOffset":679104,"byteLength":3984,"target":34963},{"buffer":0,"byteOffset":683088,"byteLength":2592,"target":34962},{"buffer":0,"byteOffset":685680,"byteLength":2592,"target":34962},{"buffer":0,"byteOffset":688272,"byteLength":1728,"target":34962},{"buffer":0,"byteOffset":690000,"byteLength":1296,"target":34963}],"accessors":[{"bufferView":0,"componentType":5126,"count":3640,"type":"VEC3","min":[-0.046,-0.06,-0.3135],"max":[0.046,0.066,0.308]},{"bufferView":1,"componentType":5126,"count":3640,"type":"VEC3"},{"bufferView":2,"componentType":5126,"count":3640,"type":"VEC2"},{"bufferView":3,"componentType":5125,"count":6456,"type":"SCALAR"},{"bufferView":4,"componentType":5126,"count":6972,"type":"VEC3","min":[-0.05,-0.119403,-0.398],"max":[0.05,0.127,0.295]},{"bufferView":5,"componentType":5126,"count":6972,"type":"VEC3"},{"bufferView":6,"componentType":5126,"count":6972,"type":"VEC2"},{"bufferView":7,"componentType":5125,"count":12444,"type":"SCALAR"},{"bufferView":8,"componentType":5126,"count":180,"type":"VEC3","min":[-0.029,-0.055,0.304],"max":[0.029,0.045,0.314]},{"bufferView":9,"componentType":5126,"count":180,"type":"VEC3"},{"bufferView":10,"componentType":5126,"count":180,"type":"VEC2"},{"bufferView":11,"componentType":5125,"count":324,"type":"SCALAR"},{"bufferView":12,"componentType":5126,"count":1104,"type":"VEC3","min":[-0.041,-0.129,-0.39855],"max":[0.041,0.061,-0.005]},{"bufferView":13,"componentType":5126,"count":1104,"type":"VEC3"},{"bufferView":14,"componentType":5126,"count":1104,"type":"VEC2"},{"bufferView":15,"componentType":5125,"count":1824,"type":"SCALAR"},{"bufferView":16,"componentType":5126,"count":240,"type":"VEC3","min":[-0.0395,0.0,-0.101],"max":[0.002,0.114,0.0065]},{"bufferView":17,"componentType":5126,"count":240,"type":"VEC3"},{"bufferView":18,"componentType":5126,"count":240,"type":"VEC2"},{"bufferView":19,"componentType":5125,"count":360,"type":"SCALAR"},{"bufferView":20,"componentType":5126,"count":1240,"type":"VEC3","min":[-0.0297,0.010983,-0.097401],"max":[0.0297,0.020083,0.066003]},{"bufferView":21,"componentType":5126,"count":1240,"type":"VEC3"},{"bufferView":22,"componentType":5126,"count":1240,"type":"VEC2"},{"bufferView":23,"componentType":5125,"count":2736,"type":"SCALAR"},{"bufferView":24,"componentType":5126,"count":24,"type":"VEC3","min":[-0.015,0.104,0.004],"max":[0.015,0.12,0.006]},{"bufferView":25,"componentType":5126,"count":24,"type":"VEC3"},{"bufferView":26,"componentType":5126,"count":24,"type":"VEC2"},{"bufferView":27,"componentType":5125,"count":36,"type":"SCALAR"},{"bufferView":28,"componentType":5126,"count":864,"type":"VEC3","min":[-0.05,-0.03,-0.144],"max":[-0.0195,0.042,0.318]},{"bufferView":29,"componentType":5126,"count":864,"type":"VEC3"},{"bufferView":30,"componentType":5126,"count":864,"type":"VEC2"},{"bufferView":31,"componentType":5125,"count":1344,"type":"SCALAR"},{"bufferView":32,"componentType":5126,"count":216,"type":"VEC3","min":[-0.028,-0.045,-0.178],"max":[0.028,-0.015,-0.138]},{"bufferView":33,"componentType":5126,"count":216,"type":"VEC3"},{"bufferView":34,"componentType":5126,"count":216,"type":"VEC2"},{"bufferView":35,"componentType":5125,"count":324,"type":"SCALAR"},{"bufferView":36,"componentType":5126,"count":392,"type":"VEC3","min":[-0.023,-0.205,-0.189701],"max":[0.023,-0.03,-0.108862]},{"bufferView":37,"componentType":5126,"count":392,"type":"VEC3"},{"bufferView":38,"componentType":5126,"count":392,"type":"VEC2"},{"bufferView":39,"componentType":5125,"count":612,"type":"SCALAR"},{"bufferView":40,"componentType":5126,"count":648,"type":"VEC3","min":[-0.024,-0.14,-0.172],"max":[0.024,-0.016,-0.151]},{"bufferView":41,"componentType":5126,"count":648,"type":"VEC3"},{"bufferView":42,"componentType":5126,"count":648,"type":"VEC2"},{"bufferView":43,"componentType":5125,"count":972,"type":"SCALAR"},{"bufferView":44,"componentType":5126,"count":240,"type":"VEC3","min":[-0.026,-0.217,-0.159],"max":[0.026,-0.109739,-0.105]},{"bufferView":45,"componentType":5126,"count":240,"type":"VEC3"},{"bufferView":46,"componentType":5126,"count":240,"type":"VEC2"},{"bufferView":47,"componentType":5125,"count":360,"type":"SCALAR"},{"bufferView":48,"componentType":5126,"count":1112,"type":"VEC3","min":[-0.088,0.047,-0.097],"max":[0.015,0.077,0.057]},{"bufferView":49,"componentType":5126,"count":1112,"type":"VEC3"},{"bufferView":50,"componentType":5126,"count":1112,"type":"VEC2"},{"bufferView":51,"componentType":5125,"count":1824,"type":"SCALAR"},{"bufferView":52,"componentType":5126,"count":648,"type":"VEC3","min":[-0.013,-0.062,-0.13],"max":[0.013,0.005719,-0.06]},{"bufferView":53,"componentType":5126,"count":648,"type":"VEC3"},{"bufferView":54,"componentType":5126,"count":648,"type":"VEC2"},{"bufferView":55,"componentType":5125,"count":996,"type":"SCALAR"},{"bufferView":56,"componentType":5126,"count":216,"type":"VEC3","min":[-0.006,-0.021328,-0.104894],"max":[0.006,-0.006672,-0.095106]},{"bufferView":57,"componentType":5126,"count":216,"type":"VEC3"},{"bufferView":58,"componentType":5126,"count":216,"type":"VEC2"},{"bufferView":59,"componentType":5125,"count":324,"type":"SCALAR"}]}
